G04 EAGLE Gerber X2 export*
%TF.Part,Single*%
%TF.FileFunction,Copper,L1,Top,Mixed*%
%TF.FilePolarity,Positive*%
%TF.GenerationSoftware,Autodesk,EAGLE,9.1.2*%
%TF.CreationDate,2019-04-25T09:22:07Z*%
G75*
%MOMM*%
%FSLAX34Y34*%
%LPD*%
%AMOC8*
5,1,8,0,0,1.08239X$1,22.5*%
G01*
%ADD10C,1.308000*%
%ADD11C,1.600200*%
%ADD12P,1.429621X8X22.500000*%
%ADD13C,1.320800*%
%ADD14C,1.208000*%
%ADD15C,1.408000*%
%ADD16C,1.930400*%
%ADD17C,1.790700*%
%ADD18C,1.800000*%
%ADD19C,1.524000*%
%ADD20P,2.110661X8X202.500000*%
%ADD21C,2.250000*%
%ADD22C,1.320800*%
%ADD23C,1.524000*%
%ADD24C,1.016000*%
%ADD25C,0.756400*%
%ADD26C,0.254000*%


D10*
X393540Y406400D03*
X418940Y406400D03*
X839000Y564200D03*
X839000Y589600D03*
X839000Y615000D03*
X723900Y770890D03*
X749300Y770890D03*
X723900Y715010D03*
X749300Y715010D03*
D11*
X204470Y394970D03*
X179070Y394970D03*
X361950Y643890D03*
X336550Y643890D03*
X426720Y642620D03*
X401320Y642620D03*
D10*
X38100Y112400D03*
X63500Y112400D03*
D11*
X185740Y106680D03*
X160340Y106680D03*
D10*
X723900Y659130D03*
X749300Y659130D03*
D12*
X279400Y127000D03*
X304800Y127000D03*
X293370Y444500D03*
X318770Y444500D03*
X294640Y347980D03*
X320040Y347980D03*
X294640Y396240D03*
X320040Y396240D03*
X279400Y80010D03*
X304800Y80010D03*
X279400Y173990D03*
X304800Y173990D03*
D13*
X215900Y762000D03*
X215900Y736600D03*
X215900Y609600D03*
X292100Y609600D03*
X215900Y711200D03*
X215900Y685800D03*
X215900Y635000D03*
X215900Y660400D03*
X292100Y635000D03*
X292100Y660400D03*
X292100Y685800D03*
X292100Y711200D03*
X292100Y736600D03*
X292100Y762000D03*
X372320Y542510D03*
X372320Y517110D03*
X448520Y517110D03*
X448520Y542510D03*
X372320Y491710D03*
X372320Y466310D03*
X448520Y491710D03*
X448520Y466310D03*
X38100Y279400D03*
X38100Y254000D03*
X114300Y254000D03*
X114300Y279400D03*
X38100Y228600D03*
X38100Y203200D03*
X114300Y228600D03*
X114300Y203200D03*
X167640Y335280D03*
X218440Y335280D03*
X193040Y335280D03*
D10*
X393540Y325280D03*
X411320Y325280D03*
X429100Y325280D03*
D14*
X293210Y534670D03*
X308450Y534670D03*
X323690Y534670D03*
X293090Y491710D03*
X308330Y491710D03*
X323570Y491710D03*
D13*
X182880Y43180D03*
X233680Y43180D03*
X208280Y43180D03*
D10*
X104140Y55250D03*
X121920Y55250D03*
X139700Y55250D03*
D14*
X276860Y266700D03*
X292100Y266700D03*
X307340Y266700D03*
X276860Y215900D03*
X292100Y215900D03*
X307340Y215900D03*
D13*
X577240Y475310D03*
X577240Y526110D03*
X577240Y500710D03*
X325120Y746760D03*
X426720Y746760D03*
X22860Y457200D03*
X124460Y457200D03*
X341630Y182880D03*
X443230Y182880D03*
X341630Y152400D03*
X443230Y152400D03*
X341630Y60960D03*
X443230Y60960D03*
X341630Y213360D03*
X443230Y213360D03*
X341630Y121920D03*
X443230Y121920D03*
X341630Y274320D03*
X443230Y274320D03*
X341630Y91440D03*
X443230Y91440D03*
X341630Y243840D03*
X443230Y243840D03*
X585470Y744220D03*
X687070Y744220D03*
X325120Y688340D03*
X426720Y688340D03*
X585470Y774700D03*
X687070Y774700D03*
X585470Y683260D03*
X687070Y683260D03*
X585470Y713740D03*
X687070Y713740D03*
D15*
X467360Y629920D03*
X492760Y629920D03*
X518160Y629920D03*
X467360Y690880D03*
X492760Y690880D03*
X518160Y690880D03*
X172720Y455930D03*
X198120Y455930D03*
X223520Y455930D03*
X165100Y177800D03*
X190500Y177800D03*
X215900Y177800D03*
D13*
X22860Y487680D03*
X124460Y487680D03*
X22860Y396240D03*
X124460Y396240D03*
X22860Y335280D03*
X124460Y335280D03*
X22860Y518160D03*
X124460Y518160D03*
X22860Y548640D03*
X124460Y548640D03*
X22860Y426720D03*
X124460Y426720D03*
X22860Y365760D03*
X124460Y365760D03*
D16*
X175260Y779780D03*
X175260Y754380D03*
X175260Y728980D03*
X175260Y703580D03*
X175260Y678180D03*
X175260Y652780D03*
X99060Y627380D03*
X73660Y627380D03*
X48260Y627380D03*
X99060Y576580D03*
X73660Y576580D03*
X48260Y576580D03*
D17*
X968890Y645870D03*
X968890Y696670D03*
X969010Y63990D03*
X969010Y114790D03*
D13*
X528320Y749300D03*
X452120Y749300D03*
X402590Y716280D03*
X326390Y716280D03*
X727560Y428470D03*
X727560Y352270D03*
X234950Y543560D03*
X158750Y543560D03*
X233680Y505460D03*
X157480Y505460D03*
X233680Y278130D03*
X157480Y278130D03*
X233680Y240030D03*
X157480Y240030D03*
D10*
X723900Y491490D03*
X749300Y491490D03*
X723900Y603250D03*
X749300Y603250D03*
X839000Y701040D03*
X839000Y726440D03*
X723900Y547370D03*
X749300Y547370D03*
X774700Y547370D03*
D13*
X647240Y475160D03*
X647240Y525960D03*
X647240Y500560D03*
X585470Y561340D03*
X687070Y561340D03*
X585470Y622300D03*
X687070Y622300D03*
X585470Y652780D03*
X687070Y652780D03*
X585470Y591820D03*
X687070Y591820D03*
D17*
X969010Y539750D03*
X969010Y590550D03*
D13*
X778360Y429740D03*
X778360Y353540D03*
X807200Y504240D03*
X807200Y478840D03*
X807200Y351840D03*
X883400Y351840D03*
X807200Y453440D03*
X807200Y428040D03*
X807200Y377240D03*
X807200Y402640D03*
X883400Y377240D03*
X883400Y402640D03*
X883400Y428040D03*
X883400Y453440D03*
X883400Y478840D03*
X883400Y504240D03*
X805180Y275430D03*
X881380Y275430D03*
D18*
X562610Y243840D03*
X511810Y243840D03*
X681990Y243840D03*
X631190Y243840D03*
D13*
X805180Y220660D03*
X881380Y220660D03*
D19*
X723900Y114300D03*
X698500Y114300D03*
X673100Y114300D03*
D20*
X821690Y88900D03*
X575310Y88900D03*
D10*
X749300Y215900D03*
X749300Y241300D03*
X39500Y-47543D03*
X64900Y-47543D03*
X36500Y38080D03*
X61900Y38080D03*
D21*
X611220Y-59090D03*
X307560Y-47990D03*
X22220Y588450D03*
X144140Y579870D03*
X182400Y-22750D03*
X37620Y164250D03*
X234440Y362160D03*
X266060Y543650D03*
X943080Y274580D03*
X455130Y-36760D03*
X235740Y-22320D03*
X476940Y527660D03*
X465610Y364240D03*
X274440Y-3440D03*
X364440Y-4240D03*
X139060Y-16470D03*
X464440Y434160D03*
D17*
X923965Y-158680D03*
X974765Y-158680D03*
X819456Y-158434D03*
X870256Y-158434D03*
X714852Y-158625D03*
X765652Y-158625D03*
X507195Y-158646D03*
X557995Y-158646D03*
X610664Y-159015D03*
X661464Y-159015D03*
X402862Y-158642D03*
X453662Y-158642D03*
X298533Y-158716D03*
X349333Y-158716D03*
X194011Y-158672D03*
X244811Y-158672D03*
D21*
X660000Y450000D03*
X690000Y450000D03*
D22*
X570000Y345804D02*
X570000Y332596D01*
X570000Y434196D02*
X570000Y447404D01*
X620000Y345804D02*
X620000Y332596D01*
X620000Y434196D02*
X620000Y447404D01*
D23*
X402700Y-42380D02*
X402700Y-57620D01*
X377300Y-57620D02*
X377300Y-42380D01*
X532700Y-27620D02*
X532700Y-12380D01*
X507300Y-12380D02*
X507300Y-27620D01*
D17*
X969010Y434340D03*
X969010Y485140D03*
X969130Y329270D03*
X969130Y380070D03*
X969010Y170200D03*
X969010Y221000D03*
D13*
X100000Y-170800D03*
X100000Y-69200D03*
X140000Y-170800D03*
X140000Y-69200D03*
D24*
X611618Y-158355D02*
X639158Y-158355D01*
X655223Y-142290D01*
X702270Y-142290D02*
X749318Y-142290D01*
X702270Y-142290D02*
X655223Y-142290D01*
X749318Y-142290D02*
X765383Y-158355D01*
X611618Y-158355D02*
X610664Y-159015D01*
X765383Y-158355D02*
X765652Y-158625D01*
X484245Y-158355D02*
X454410Y-158355D01*
X484245Y-158355D02*
X500310Y-142290D01*
X564570Y-142290D01*
X579488Y-157208D01*
X605880Y-157208D01*
X454410Y-158355D02*
X453662Y-158642D01*
X605880Y-157208D02*
X610664Y-159015D01*
X807840Y429165D02*
X807840Y433755D01*
X827348Y453263D01*
X827348Y485393D01*
X807840Y504900D01*
X807840Y429165D02*
X807200Y428040D01*
X807200Y504240D02*
X807840Y504900D01*
X848003Y503753D02*
X882428Y503753D01*
X848003Y503753D02*
X831938Y487688D01*
X882428Y503753D02*
X883400Y504240D01*
X831938Y487688D02*
X827348Y485393D01*
X748170Y240975D02*
X702270Y240975D01*
X688500Y227205D01*
X648338Y227205D01*
X632273Y243270D01*
X748170Y240975D02*
X749300Y241300D01*
X632273Y243270D02*
X631190Y243840D01*
X882428Y221468D02*
X968490Y221468D01*
X882428Y221468D02*
X881380Y220660D01*
X968490Y221468D02*
X969010Y221000D01*
X678173Y113603D02*
X673583Y113603D01*
X678173Y113603D02*
X693090Y98685D01*
X702270Y98685D02*
X729810Y98685D01*
X702270Y98685D02*
X693090Y98685D01*
X729810Y98685D02*
X742433Y111308D01*
X742433Y112455D01*
X849150Y219173D01*
X876690Y219173D01*
X673583Y113603D02*
X673100Y114300D01*
X876690Y219173D02*
X881380Y220660D01*
X797513Y289170D02*
X752760Y244418D01*
X797513Y289170D02*
X811283Y289170D01*
X846855Y253598D01*
X846855Y223763D01*
X752760Y244418D02*
X749300Y241300D01*
X846855Y223763D02*
X849150Y219173D01*
X808988Y421133D02*
X808988Y423428D01*
X808988Y421133D02*
X821610Y408510D01*
X821610Y301793D01*
X813578Y293760D01*
X808988Y423428D02*
X807200Y428040D01*
X813578Y293760D02*
X811283Y289170D01*
X702270Y98685D02*
X702270Y-142290D01*
X107865Y59670D02*
X104423Y56228D01*
X107865Y59670D02*
X107865Y60818D01*
X137700Y90653D01*
X191633Y90653D01*
X201960Y100980D01*
X201960Y120488D01*
X150323Y172125D01*
X150323Y183600D01*
X159503Y192780D01*
X175568Y192780D01*
X190485Y177863D01*
X104423Y56228D02*
X104140Y55250D01*
X190500Y177800D02*
X190485Y177863D01*
X279990Y173273D02*
X279990Y162945D01*
X279990Y127373D01*
X279400Y127000D01*
X279990Y173273D02*
X279400Y173990D01*
X341955Y151470D02*
X355725Y137700D01*
X355725Y86063D01*
X346545Y76883D01*
X335070Y76883D01*
X284580Y127373D01*
X341955Y151470D02*
X341630Y152400D01*
X284580Y127373D02*
X279400Y127000D01*
X197370Y175568D02*
X195075Y175568D01*
X197370Y175568D02*
X209993Y162945D01*
X279990Y162945D01*
X195075Y175568D02*
X190500Y177800D01*
X139995Y-68850D02*
X100980Y-68850D01*
X100000Y-69200D01*
X139995Y-68850D02*
X140000Y-69200D01*
X199665Y-126225D02*
X267368Y-126225D01*
X199665Y-126225D02*
X144585Y-71145D01*
X140000Y-69200D01*
X445230Y-37868D02*
X454410Y-37868D01*
X445230Y-37868D02*
X409658Y-73440D01*
X327038Y-73440D02*
X322448Y-73440D01*
X327038Y-73440D02*
X409658Y-73440D01*
X322448Y-73440D02*
X271958Y-123930D01*
X454410Y-37868D02*
X455130Y-36760D01*
X271958Y-123930D02*
X267368Y-126225D01*
X107865Y49343D02*
X107865Y51638D01*
X107865Y49343D02*
X115898Y41310D01*
X157208Y41310D01*
X179010Y63113D01*
X234090Y63113D01*
X327038Y-29835D01*
X327038Y-73440D01*
X107865Y51638D02*
X104140Y55250D01*
X26393Y364905D02*
X22950Y364905D01*
X26393Y364905D02*
X111308Y279990D01*
X113603Y279990D01*
X22950Y364905D02*
X22860Y365760D01*
X113603Y279990D02*
X114300Y279400D01*
X364905Y325890D02*
X392445Y325890D01*
X364905Y325890D02*
X294908Y395888D01*
X392445Y325890D02*
X393540Y325280D01*
X294908Y395888D02*
X294640Y396240D01*
X48195Y577193D02*
X48195Y626535D01*
X48195Y577193D02*
X48260Y576580D01*
X48195Y626535D02*
X48260Y627380D01*
X231795Y444083D02*
X292613Y444083D01*
X231795Y444083D02*
X228353Y440640D01*
X213435Y440640D01*
X198518Y455558D01*
X292613Y444083D02*
X293370Y444500D01*
X198518Y455558D02*
X198120Y455930D01*
X265073Y604733D02*
X265073Y610470D01*
X265073Y604733D02*
X313268Y556538D01*
X433755Y556538D01*
X447525Y542768D01*
X448520Y542510D01*
X65408Y644895D02*
X51638Y631125D01*
X65408Y644895D02*
X158355Y644895D01*
X207698Y595553D01*
X253598Y595553D01*
X260483Y602438D01*
X51638Y631125D02*
X48260Y627380D01*
X260483Y602438D02*
X265073Y604733D01*
X98685Y-43605D02*
X98685Y-64260D01*
X98685Y-43605D02*
X21803Y33278D01*
X21803Y121635D01*
X56228Y156060D01*
X56228Y185895D01*
X39015Y203108D01*
X98685Y-64260D02*
X100000Y-69200D01*
X39015Y203108D02*
X38100Y203200D01*
D25*
X267368Y-126225D03*
X265073Y610470D03*
D26*
X98685Y626535D02*
X98685Y577193D01*
X99060Y576580D01*
X98685Y626535D02*
X99060Y627380D01*
X292613Y660960D02*
X292613Y671288D01*
X315563Y694238D01*
X315563Y726368D02*
X315563Y736695D01*
X315563Y726368D02*
X315563Y694238D01*
X315563Y736695D02*
X324743Y745875D01*
X292613Y660960D02*
X292100Y660400D01*
X324743Y745875D02*
X325120Y746760D01*
X438345Y749318D02*
X452115Y749318D01*
X438345Y749318D02*
X430313Y757350D01*
X336218Y757350D01*
X325890Y747023D01*
X452115Y749318D02*
X452120Y749300D01*
X325890Y747023D02*
X325120Y746760D01*
X337365Y719483D02*
X337365Y644895D01*
X337365Y719483D02*
X330480Y726368D01*
X315563Y726368D01*
X337365Y644895D02*
X336550Y643890D01*
X291465Y635715D02*
X216878Y710303D01*
X215900Y711200D01*
X291465Y635715D02*
X292100Y635000D01*
X340808Y138848D02*
X340808Y122783D01*
X340808Y138848D02*
X331628Y148028D01*
X331628Y173273D01*
X340808Y182453D01*
X340808Y122783D02*
X341630Y121920D01*
X340808Y182453D02*
X341630Y182880D01*
X266220Y240975D02*
X291465Y266220D01*
X266220Y240975D02*
X234090Y240975D01*
X291465Y266220D02*
X292100Y266700D01*
X234090Y240975D02*
X233680Y240030D01*
X257040Y406215D02*
X392445Y406215D01*
X257040Y406215D02*
X193928Y343103D01*
X193928Y336218D01*
X392445Y406215D02*
X393540Y406400D01*
X193928Y336218D02*
X193040Y335280D01*
X179010Y335070D02*
X168683Y335070D01*
X179010Y335070D02*
X189338Y324743D01*
X197370Y324743D01*
X207698Y335070D01*
X207698Y339660D01*
X229500Y361463D01*
X234090Y361463D01*
X168683Y335070D02*
X167640Y335280D01*
X234090Y361463D02*
X234440Y362160D01*
X22950Y380970D02*
X22950Y395888D01*
X22950Y380970D02*
X83768Y320153D01*
X151470Y320153D01*
X166388Y335070D01*
X22950Y395888D02*
X22860Y396240D01*
X166388Y335070D02*
X167640Y335280D01*
X372938Y512933D02*
X372938Y516375D01*
X372938Y512933D02*
X397035Y488835D01*
X397035Y476213D01*
X422280Y450968D01*
X469328Y450968D01*
X485393Y434903D01*
X485393Y355725D01*
X421133Y291465D01*
X353430Y291465D01*
X307530Y337365D01*
X259335Y337365D01*
X235238Y361463D01*
X372938Y516375D02*
X372320Y517110D01*
X235238Y361463D02*
X234440Y362160D01*
X448673Y492278D02*
X448673Y516375D01*
X448673Y492278D02*
X448520Y491710D01*
X448673Y516375D02*
X448520Y517110D01*
X83768Y361463D02*
X52785Y361463D01*
X83768Y361463D02*
X120488Y324743D01*
X128520Y324743D01*
X179010Y375233D01*
X179010Y394740D01*
X179070Y394970D01*
X310973Y429165D02*
X383265Y429165D01*
X310973Y429165D02*
X292613Y410805D01*
X195075Y410805D01*
X180158Y395888D01*
X179070Y394970D01*
D25*
X52785Y361463D03*
X383265Y429165D03*
D26*
X429165Y325890D02*
X448673Y325890D01*
X480803Y358020D01*
X480803Y417690D01*
X464738Y433755D01*
X429165Y325890D02*
X429100Y325280D01*
X464738Y433755D02*
X464440Y434160D01*
X150323Y549653D02*
X125078Y549653D01*
X150323Y549653D02*
X154913Y554243D01*
X209993Y554243D01*
X258188Y506048D01*
X343103Y506048D01*
X371790Y477360D01*
X378675Y477360D01*
X421133Y434903D01*
X463590Y434903D01*
X125078Y549653D02*
X124460Y548640D01*
X463590Y434903D02*
X464440Y434160D01*
X576045Y-135405D02*
X576045Y-137700D01*
X576045Y-135405D02*
X631125Y-80325D01*
X631125Y84915D01*
X452115Y263925D01*
X422280Y263925D01*
X402773Y283433D01*
X386708Y299498D02*
X352283Y299498D01*
X304088Y347693D01*
X294908Y347693D01*
X294640Y347980D01*
D25*
X576045Y-137700D03*
X402773Y283433D03*
X386708Y299498D03*
D26*
X410805Y325890D02*
X410805Y400478D01*
X403920Y407363D01*
X403920Y418838D01*
X374085Y448673D01*
X329333Y448673D01*
X300645Y477360D01*
X231795Y477360D01*
X218025Y491130D01*
X174420Y491130D01*
X125078Y441788D01*
X125078Y426870D01*
X410805Y325890D02*
X411320Y325280D01*
X125078Y426870D02*
X124460Y426720D01*
X324743Y533588D02*
X367200Y533588D01*
X372938Y527850D01*
X476213Y527850D01*
X324743Y533588D02*
X323690Y534670D01*
X476213Y527850D02*
X476940Y527660D01*
X81473Y519818D02*
X41310Y519818D01*
X81473Y519818D02*
X120488Y558833D01*
X298350Y558833D01*
X322448Y534735D01*
X323690Y534670D01*
D25*
X41310Y519818D03*
D26*
X176715Y483098D02*
X219173Y483098D01*
X246713Y455558D01*
X307530Y455558D01*
X317858Y445230D01*
X318770Y444500D01*
X714893Y-159503D02*
X748170Y-159503D01*
X759645Y-170978D01*
X771120Y-170978D01*
X778005Y-164093D01*
X778005Y81473D01*
X752760Y106718D01*
X717188Y142290D02*
X714893Y142290D01*
X489983Y367200D01*
X489983Y437198D01*
X471623Y455558D01*
X428018Y455558D01*
X405068Y478508D01*
X714852Y-158625D02*
X714893Y-159503D01*
D25*
X176715Y483098D03*
X752760Y106718D03*
X717188Y142290D03*
X405068Y478508D03*
D26*
X292613Y534735D02*
X274253Y534735D01*
X266220Y542768D01*
X292613Y534735D02*
X293210Y534670D01*
X266220Y542768D02*
X266060Y543650D01*
X363758Y492278D02*
X371790Y492278D01*
X363758Y492278D02*
X336218Y519818D01*
X307530Y519818D01*
X293760Y533588D01*
X371790Y492278D02*
X372320Y491710D01*
X293760Y533588D02*
X293210Y534670D01*
X265073Y543915D02*
X235238Y543915D01*
X234950Y543560D01*
X265073Y543915D02*
X266060Y543650D01*
X323595Y491130D02*
X332775Y491130D01*
X370643Y453263D01*
X386708Y453263D01*
X464738Y375233D01*
X464738Y364905D01*
X323595Y491130D02*
X323570Y491710D01*
X464738Y364905D02*
X465610Y364240D01*
X134258Y457853D02*
X125078Y457853D01*
X134258Y457853D02*
X172125Y495720D01*
X220320Y495720D01*
X234090Y481950D01*
X313268Y481950D01*
X322448Y491130D01*
X125078Y457853D02*
X124460Y457200D01*
X322448Y491130D02*
X323570Y491710D01*
X286875Y431460D02*
X149175Y431460D01*
X286875Y431460D02*
X294908Y423428D01*
X643748Y94095D02*
X643748Y-137700D01*
X643748Y94095D02*
X457853Y279990D01*
X457853Y316710D01*
X402773Y371790D02*
X344250Y371790D01*
X320153Y395888D01*
X320040Y396240D01*
D25*
X149175Y431460D03*
X294908Y423428D03*
X643748Y-137700D03*
X457853Y316710D03*
X402773Y371790D03*
D26*
X39015Y111308D02*
X39015Y50490D01*
X51638Y37868D01*
X51638Y33278D01*
X57375Y27540D01*
X192780Y27540D01*
X207698Y42458D01*
X39015Y111308D02*
X38100Y112400D01*
X207698Y42458D02*
X208280Y43180D01*
X193928Y43605D02*
X183600Y43605D01*
X193928Y43605D02*
X204255Y53933D01*
X212288Y53933D01*
X219173Y47048D01*
X219173Y14918D01*
X182453Y-21803D01*
X182880Y43180D02*
X183600Y43605D01*
X182453Y-21803D02*
X182400Y-22750D01*
X100980Y254745D02*
X39015Y254745D01*
X100980Y254745D02*
X114750Y268515D01*
X133110Y268515D01*
X158355Y293760D01*
X344250Y293760D01*
X432608Y205403D01*
X432608Y162945D01*
X442935Y152618D01*
X39015Y254745D02*
X38100Y254000D01*
X442935Y152618D02*
X443230Y152400D01*
X182453Y42458D02*
X170978Y42458D01*
X160650Y32130D01*
X112455Y32130D01*
X94095Y50490D01*
X94095Y121635D01*
X125078Y152618D01*
X125078Y206550D01*
X118193Y213435D01*
X33278Y213435D01*
X25245Y205403D01*
X182880Y43180D02*
X182453Y42458D01*
D25*
X25245Y205403D03*
D26*
X442935Y76883D02*
X442935Y61965D01*
X442935Y76883D02*
X393593Y126225D01*
X393593Y154913D01*
X345398Y203108D01*
X337365Y203108D01*
X331628Y208845D01*
X331628Y219173D01*
X352283Y239828D01*
X352283Y278843D01*
X341955Y289170D01*
X183600Y289170D01*
X149175Y254745D01*
X114750Y254745D01*
X442935Y61965D02*
X443230Y60960D01*
X114750Y254745D02*
X114300Y254000D01*
X159503Y150323D02*
X159503Y106718D01*
X159503Y150323D02*
X129668Y180158D01*
X129668Y213435D01*
X114750Y228353D01*
X159503Y106718D02*
X160340Y106680D01*
X114750Y228353D02*
X114300Y228600D01*
X341955Y212288D02*
X367200Y212288D01*
X457853Y121635D01*
X457853Y53933D01*
X445230Y41310D01*
X268515Y41310D01*
X237533Y72293D01*
X156060Y72293D01*
X139995Y56228D01*
X341955Y212288D02*
X341630Y213360D01*
X139995Y56228D02*
X139700Y55250D01*
X385560Y90653D02*
X385560Y152618D01*
X385560Y90653D02*
X345398Y50490D01*
X308678Y50490D01*
X279990Y79178D01*
X279400Y80010D01*
D25*
X385560Y152618D03*
D26*
X126225Y56228D02*
X122783Y56228D01*
X126225Y56228D02*
X146880Y76883D01*
X267368Y76883D01*
X298350Y45900D01*
X442935Y45900D01*
X453263Y56228D01*
X453263Y112455D01*
X444083Y121635D01*
X122783Y56228D02*
X121920Y55250D01*
X443230Y121920D02*
X444083Y121635D01*
X265073Y201960D02*
X265073Y206550D01*
X262778Y208845D01*
X262778Y222615D01*
X306383Y266220D01*
X307340Y266700D01*
D25*
X265073Y201960D03*
D26*
X276548Y267368D02*
X244418Y267368D01*
X234090Y277695D01*
X276548Y267368D02*
X276860Y266700D01*
X234090Y277695D02*
X233680Y278130D01*
X37868Y228353D02*
X17213Y207698D01*
X17213Y184748D01*
X36720Y165240D01*
X37868Y228353D02*
X38100Y228600D01*
X36720Y165240D02*
X37620Y164250D01*
X179010Y277695D02*
X232943Y277695D01*
X179010Y277695D02*
X139995Y238680D01*
X48195Y238680D01*
X39015Y229500D01*
X232943Y277695D02*
X233680Y278130D01*
X39015Y229500D02*
X38100Y228600D01*
X292613Y215730D02*
X292613Y200813D01*
X327038Y166388D01*
X327038Y105570D01*
X340808Y91800D01*
X292613Y215730D02*
X292100Y215900D01*
X340808Y91800D02*
X341630Y91440D01*
X216878Y239828D02*
X158355Y239828D01*
X216878Y239828D02*
X262778Y193928D01*
X284580Y193928D01*
X291465Y200813D01*
X158355Y239828D02*
X157480Y240030D01*
X291465Y200813D02*
X292613Y200813D01*
X307530Y216878D02*
X314415Y216878D01*
X340808Y243270D01*
X307530Y216878D02*
X307340Y215900D01*
X340808Y243270D02*
X341630Y243840D01*
X366053Y173273D02*
X366053Y81473D01*
X366053Y173273D02*
X340808Y198518D01*
X333923Y198518D01*
X315563Y216878D01*
X314415Y216878D01*
D25*
X366053Y81473D03*
D26*
X305235Y127373D02*
X305235Y136553D01*
X319005Y150323D01*
X305235Y127373D02*
X304800Y127000D01*
X349988Y-158355D02*
X385560Y-158355D01*
X446378Y-97538D01*
X607028Y-97538D01*
X626535Y-78030D01*
X626535Y82620D01*
X465885Y243270D01*
X444083Y243270D01*
X349988Y-158355D02*
X349333Y-158716D01*
X444083Y243270D02*
X443230Y243840D01*
D25*
X319005Y150323D03*
D26*
X701123Y659813D02*
X722925Y659813D01*
X701123Y659813D02*
X688500Y672435D01*
X596700Y672435D01*
X586373Y682763D01*
X722925Y659813D02*
X723900Y659130D01*
X586373Y682763D02*
X585470Y683260D01*
X577193Y511785D02*
X577193Y501458D01*
X577193Y511785D02*
X557685Y531293D01*
X557685Y655223D01*
X562275Y659813D01*
X577193Y501458D02*
X577240Y500710D01*
D25*
X562275Y659813D03*
D26*
X724073Y724073D02*
X724073Y745875D01*
X724073Y724073D02*
X724073Y716040D01*
X724073Y745875D02*
X748170Y769973D01*
X724073Y716040D02*
X723900Y715010D01*
X748170Y769973D02*
X749300Y770890D01*
X577193Y533588D02*
X577193Y526703D01*
X577193Y533588D02*
X562275Y548505D01*
X562275Y649485D01*
X570308Y657518D01*
X570308Y697680D01*
X585225Y712598D01*
X577193Y526703D02*
X577240Y526110D01*
X585225Y712598D02*
X585470Y713740D01*
X596700Y724073D02*
X724073Y724073D01*
X596700Y724073D02*
X586373Y713745D01*
X585470Y713740D01*
X690795Y771120D02*
X722925Y771120D01*
X690795Y771120D02*
X687353Y774563D01*
X722925Y771120D02*
X723900Y770890D01*
X687353Y774563D02*
X687070Y774700D01*
X577193Y486540D02*
X577193Y476213D01*
X577193Y486540D02*
X553095Y510638D01*
X553095Y696533D01*
X631125Y774563D01*
X686205Y774563D01*
X577193Y476213D02*
X577240Y475310D01*
X686205Y774563D02*
X687070Y774700D01*
X934065Y697680D02*
X968490Y697680D01*
X934065Y697680D02*
X850298Y781448D01*
X735548Y781448D01*
X725220Y771120D01*
X968490Y697680D02*
X968890Y696670D01*
X725220Y771120D02*
X723900Y770890D01*
X838823Y613913D02*
X838823Y589815D01*
X839000Y589600D01*
X838823Y613913D02*
X839000Y615000D01*
X620798Y363758D02*
X620798Y339660D01*
X620798Y363758D02*
X659813Y402773D01*
X659813Y429165D02*
X659813Y449820D01*
X659813Y429165D02*
X659813Y402773D01*
X620798Y339660D02*
X620000Y339200D01*
X659813Y449820D02*
X660000Y450000D01*
X659813Y429165D02*
X727515Y429165D01*
X727560Y428470D01*
X778005Y478508D02*
X791775Y478508D01*
X806693Y478508D01*
X778005Y478508D02*
X728663Y429165D01*
X806693Y478508D02*
X807200Y478840D01*
X728663Y429165D02*
X727560Y428470D01*
X838823Y578340D02*
X838823Y588668D01*
X838823Y578340D02*
X817020Y556538D01*
X817020Y535883D01*
X791775Y510638D01*
X791775Y478508D01*
X838823Y588668D02*
X839000Y589600D01*
X807840Y464738D02*
X807840Y454410D01*
X807840Y464738D02*
X818168Y475065D01*
X818168Y481950D01*
X806693Y493425D01*
X803250Y493425D01*
X796365Y500310D01*
X796365Y508343D01*
X803250Y515228D01*
X938655Y515228D01*
X968490Y485393D01*
X807840Y454410D02*
X807200Y453440D01*
X968490Y485393D02*
X969010Y485140D01*
D24*
X585225Y744728D02*
X585225Y774563D01*
X585225Y744728D02*
X585470Y744220D01*
X585225Y774563D02*
X585470Y774700D01*
X586373Y603585D02*
X586373Y592110D01*
X586373Y603585D02*
X600143Y617355D01*
X600143Y638010D01*
X586373Y651780D01*
X586373Y592110D02*
X585470Y591820D01*
X586373Y651780D02*
X585470Y652780D01*
X882428Y275400D02*
X942098Y275400D01*
X882428Y275400D02*
X881380Y275430D01*
X942098Y275400D02*
X943080Y274580D01*
X582930Y578340D02*
X582930Y587520D01*
X582930Y578340D02*
X571455Y566865D01*
X571455Y551948D01*
X633420Y489983D01*
X633420Y453263D01*
X635715Y450968D01*
X635715Y418838D01*
X646043Y408510D01*
X582930Y587520D02*
X585470Y591820D01*
D25*
X646043Y408510D03*
D26*
X426870Y732105D02*
X426870Y745875D01*
X426870Y732105D02*
X467033Y691943D01*
X426870Y745875D02*
X426720Y746760D01*
X467033Y691943D02*
X467360Y690880D01*
X125078Y352283D02*
X125078Y336218D01*
X125078Y352283D02*
X141143Y368348D01*
X141143Y433755D01*
X162945Y455558D01*
X172125Y455558D01*
X125078Y336218D02*
X124460Y335280D01*
X172125Y455558D02*
X172720Y455930D01*
X337365Y61965D02*
X340808Y61965D01*
X337365Y61965D02*
X282285Y117045D01*
X224910Y117045D01*
X165240Y176715D01*
X340808Y61965D02*
X341630Y60960D01*
X165240Y176715D02*
X165100Y177800D01*
X656370Y492278D02*
X722925Y492278D01*
X656370Y492278D02*
X648338Y500310D01*
X722925Y492278D02*
X723900Y491490D01*
X648338Y500310D02*
X647240Y500560D01*
X647190Y500310D02*
X590963Y556538D01*
X586373Y561128D01*
X585470Y561340D01*
X647240Y500560D02*
X647190Y500310D01*
X590963Y556538D02*
X686205Y651780D01*
X687070Y652780D01*
X748170Y602438D02*
X748170Y561128D01*
X734400Y547358D01*
X734400Y543915D01*
X717188Y526703D01*
X648338Y526703D01*
X748170Y602438D02*
X749300Y603250D01*
X648338Y526703D02*
X647240Y525960D01*
X778005Y701123D02*
X838823Y701123D01*
X778005Y701123D02*
X753908Y725220D01*
X744728Y725220D01*
X738990Y719483D01*
X738990Y648338D02*
X738990Y612765D01*
X738990Y648338D02*
X738990Y719483D01*
X738990Y612765D02*
X748170Y603585D01*
X838823Y701123D02*
X839000Y701040D01*
X749300Y603250D02*
X748170Y603585D01*
X585225Y623093D02*
X585225Y638010D01*
X574898Y648338D01*
X574898Y656370D01*
X581783Y663255D01*
X690795Y663255D01*
X705713Y648338D01*
X738990Y648338D01*
X585470Y622300D02*
X585225Y623093D01*
X724073Y602438D02*
X724073Y592110D01*
X724073Y548505D01*
X723900Y547370D01*
X724073Y602438D02*
X723900Y603250D01*
X724073Y592110D02*
X687353Y592110D01*
X687070Y591820D01*
X779153Y429165D02*
X806693Y401625D01*
X779153Y429165D02*
X778360Y429740D01*
X807200Y402640D02*
X806693Y401625D01*
X774563Y547358D02*
X749318Y547358D01*
X749300Y547370D01*
X774563Y547358D02*
X774700Y547370D01*
X589815Y339660D02*
X570308Y339660D01*
X589815Y339660D02*
X655223Y405068D01*
X655223Y433755D01*
X644895Y444083D01*
X644895Y455558D01*
X654075Y464738D01*
X675878Y464738D01*
X689648Y450968D01*
X570308Y339660D02*
X570000Y339200D01*
X690000Y450000D02*
X689648Y450968D01*
X749318Y506048D02*
X749318Y546210D01*
X749318Y506048D02*
X734400Y491130D01*
X734400Y487688D01*
X697680Y450968D01*
X690795Y450968D01*
X749318Y546210D02*
X749300Y547370D01*
X690795Y450968D02*
X690000Y450000D01*
X22950Y582930D02*
X22950Y587520D01*
X22950Y582930D02*
X42458Y563423D01*
X106718Y563423D01*
X138848Y595553D01*
X195075Y595553D01*
X223763Y566865D01*
X286875Y566865D01*
X302940Y582930D02*
X442935Y582930D01*
X559980Y465885D01*
X559980Y328185D01*
X565718Y322448D01*
X732105Y322448D01*
X786038Y376380D01*
X806693Y376380D01*
X22950Y587520D02*
X22220Y588450D01*
X806693Y376380D02*
X807200Y377240D01*
D25*
X286875Y566865D03*
X302940Y582930D03*
D26*
X805545Y275400D02*
X805545Y221468D01*
X805180Y220660D01*
X805545Y275400D02*
X805180Y275430D01*
X724073Y138848D02*
X724073Y134258D01*
X724073Y114750D01*
X724073Y138848D02*
X805545Y220320D01*
X724073Y114750D02*
X723900Y114300D01*
X805545Y220320D02*
X805180Y220660D01*
X545063Y243270D02*
X512933Y243270D01*
X545063Y243270D02*
X654075Y134258D01*
X724073Y134258D01*
X512933Y243270D02*
X511810Y243840D01*
X61965Y96390D02*
X61965Y39015D01*
X61965Y96390D02*
X113603Y148028D01*
X113603Y203108D01*
X61965Y39015D02*
X61900Y38080D01*
X113603Y203108D02*
X114300Y203200D01*
X267368Y211140D02*
X276548Y201960D01*
X267368Y211140D02*
X267368Y220320D01*
X304088Y257040D01*
X323595Y257040D01*
X340808Y274253D01*
X341630Y274320D01*
D25*
X276548Y201960D03*
D26*
X119340Y-149175D02*
X139995Y-169830D01*
X119340Y-149175D02*
X119340Y-144585D01*
X128520Y-135405D01*
X401625Y-135405D01*
X447525Y-89505D01*
X604733Y-89505D01*
X139995Y-169830D02*
X140000Y-170800D01*
X125078Y571455D02*
X121635Y571455D01*
X78030Y527850D01*
X39015Y527850D01*
X33278Y522113D01*
X33278Y452115D01*
X12623Y431460D01*
X12623Y19508D01*
X89505Y-57375D01*
X89505Y-95243D01*
X128520Y-134258D01*
X128520Y-135405D01*
D25*
X604733Y-89505D03*
X125078Y571455D03*
D26*
X64260Y426870D02*
X22950Y426870D01*
X64260Y426870D02*
X123930Y486540D01*
X22950Y426870D02*
X22860Y426720D01*
X123930Y486540D02*
X124460Y487680D01*
X383265Y483098D02*
X423428Y442935D01*
X383265Y483098D02*
X383265Y495720D01*
X372938Y506048D01*
X356873Y506048D01*
X338513Y524408D01*
X317858Y524408D01*
X308678Y533588D01*
X308450Y534670D01*
X377528Y-33278D02*
X377528Y-49343D01*
X377528Y-33278D02*
X462443Y51638D01*
X462443Y209993D01*
X389003Y283433D01*
X377528Y-49343D02*
X377300Y-50000D01*
D25*
X423428Y442935D03*
X389003Y283433D03*
D24*
X749318Y492278D02*
X807840Y550800D01*
X807840Y603585D01*
X833085Y628830D01*
X857183Y628830D02*
X880133Y628830D01*
X857183Y628830D02*
X833085Y628830D01*
X880133Y628830D02*
X968490Y540473D01*
X749318Y492278D02*
X749300Y491490D01*
X968490Y540473D02*
X969010Y539750D01*
X857183Y628830D02*
X857183Y649485D01*
D25*
X857183Y649485D03*
D24*
X749318Y659813D02*
X749318Y714893D01*
X749318Y659813D02*
X749300Y659130D01*
X749318Y714893D02*
X749300Y715010D01*
X878985Y646043D02*
X968490Y646043D01*
X878985Y646043D02*
X862920Y662108D01*
X753908Y662108D01*
X968490Y646043D02*
X968890Y645870D01*
X753908Y662108D02*
X749300Y659130D01*
D26*
X307530Y492278D02*
X298350Y501458D01*
X244418Y501458D01*
X237533Y494573D01*
X228353Y494573D01*
X218025Y504900D01*
X158355Y504900D01*
X307530Y492278D02*
X308330Y491710D01*
X158355Y504900D02*
X157480Y505460D01*
X123930Y382118D02*
X123930Y366053D01*
X123930Y382118D02*
X113603Y392445D01*
X113603Y461295D01*
X157208Y504900D01*
X123930Y366053D02*
X124460Y365760D01*
X157208Y504900D02*
X157480Y505460D01*
X159503Y506048D02*
X159503Y542768D01*
X158750Y543560D01*
X159503Y506048D02*
X157480Y505460D01*
X215730Y736695D02*
X215730Y761940D01*
X215730Y736695D02*
X215900Y736600D01*
X215730Y761940D02*
X215900Y762000D01*
X205403Y685058D02*
X181305Y685058D01*
X205403Y685058D02*
X215730Y685058D01*
X181305Y685058D02*
X175568Y679320D01*
X215730Y685058D02*
X215900Y685800D01*
X175568Y679320D02*
X175260Y678180D01*
X215730Y725220D02*
X215730Y735548D01*
X215730Y725220D02*
X205403Y714893D01*
X205403Y685058D01*
X215730Y735548D02*
X215900Y736600D01*
X216878Y659813D02*
X252450Y659813D01*
X288023Y624240D01*
X296055Y624240D01*
X317284Y645469D02*
X324743Y652928D01*
X317284Y645469D02*
X296055Y624240D01*
X324743Y652928D02*
X324743Y687353D01*
X216878Y659813D02*
X215900Y660400D01*
X324743Y687353D02*
X325120Y688340D01*
X325890Y688500D02*
X325890Y716040D01*
X326390Y716280D01*
X325890Y688500D02*
X325120Y688340D01*
X377528Y642600D02*
X400478Y642600D01*
X377528Y642600D02*
X367200Y632273D01*
X330480Y632273D01*
X317284Y645469D01*
X400478Y642600D02*
X401320Y642620D01*
X426870Y670140D02*
X426870Y687353D01*
X426870Y670140D02*
X467033Y629978D01*
X426870Y687353D02*
X426720Y688340D01*
X467033Y629978D02*
X467360Y629920D01*
X530145Y-20655D02*
X532440Y-20655D01*
X530145Y-20655D02*
X465885Y-84915D01*
X339660Y-84915D01*
X532440Y-20655D02*
X532700Y-20000D01*
X270810Y634568D02*
X216878Y634568D01*
X270810Y634568D02*
X285728Y619650D01*
X394740Y619650D01*
X413100Y638010D01*
X413100Y670140D01*
X392445Y690795D01*
X392445Y720630D01*
X398183Y726368D01*
X416543Y726368D01*
X462443Y680468D01*
X481950Y680468D01*
X492278Y690795D01*
X216878Y634568D02*
X215900Y635000D01*
X492278Y690795D02*
X492760Y690880D01*
X527850Y726368D02*
X527850Y748170D01*
X527850Y726368D02*
X493425Y691943D01*
X527850Y748170D02*
X528320Y749300D01*
X493425Y691943D02*
X492760Y690880D01*
X545063Y618503D02*
X545063Y498015D01*
X545063Y618503D02*
X483098Y680468D01*
X481950Y680468D01*
D25*
X339660Y-84915D03*
X545063Y498015D03*
D26*
X421133Y-49343D02*
X402773Y-49343D01*
X421133Y-49343D02*
X469328Y-1148D01*
X553095Y-1148D01*
X610470Y-58523D01*
X402773Y-49343D02*
X402700Y-50000D01*
X610470Y-58523D02*
X611220Y-59090D01*
X473918Y610470D02*
X438345Y610470D01*
X292613Y610470D01*
X473918Y610470D02*
X492278Y628830D01*
X292613Y610470D02*
X292100Y609600D01*
X492278Y628830D02*
X492760Y629920D01*
X402773Y687353D02*
X402773Y716040D01*
X402773Y687353D02*
X438345Y651780D01*
X438345Y610470D01*
X402773Y716040D02*
X402590Y716280D01*
X469328Y229500D02*
X469328Y-1148D01*
D25*
X469328Y229500D03*
D26*
X969638Y380970D02*
X969638Y391298D01*
X986850Y408510D01*
X986850Y696533D01*
X955868Y727515D01*
X911115Y727515D01*
X852593Y786038D01*
X224910Y786038D01*
X189338Y750465D01*
X189338Y718335D01*
X175568Y704565D01*
X969130Y380070D02*
X969638Y380970D01*
X175260Y703580D02*
X175568Y704565D01*
X615060Y417690D02*
X624240Y417690D01*
X615060Y417690D02*
X433755Y598995D01*
X288023Y598995D01*
X273105Y613913D01*
X273105Y615060D01*
X263925Y624240D01*
X203108Y624240D01*
X175568Y651780D01*
X175260Y652780D01*
D25*
X624240Y417690D03*
D26*
X164093Y-146880D02*
X127373Y-146880D01*
X164093Y-146880D02*
X192780Y-175568D01*
X907673Y-175568D02*
X958163Y-175568D01*
X907673Y-175568D02*
X192780Y-175568D01*
X958163Y-175568D02*
X974228Y-159503D01*
X974765Y-158680D01*
X187043Y755055D02*
X175568Y755055D01*
X187043Y755055D02*
X222615Y790628D01*
X858330Y790628D01*
X858330Y763088D02*
X861773Y763088D01*
X966195Y658665D01*
X974228Y658665D01*
X982260Y650633D01*
X982260Y410805D01*
X955868Y384413D01*
X955868Y283433D01*
X982260Y257040D01*
X982260Y95243D01*
X907673Y20655D01*
X907673Y-175568D01*
X175260Y754380D02*
X175568Y755055D01*
D25*
X127373Y-146880D03*
X858330Y790628D03*
X858330Y763088D03*
M02*
