M48
;GenerationSoftware,Autodesk,EAGLE,9.1.2*%
;CreationDate,2019-04-25T09:22:05Z*%
FMAT,2
ICI,OFF
METRIC,TZ,000.000
T12C0.350
T11C0.700
T10C0.800
T9C0.813
T8C0.900
T7C1.000
T6C1.016
T5C1.194
T4C1.200
T3C1.300
T2C1.500
T1C4.064
%
G90
M71
T1
X4080Y77200
X94992Y-3101
X94992Y77051
X4017Y-12985
T2
X46561Y36424
X69000Y45000
X66000Y45000
X23574Y-2232
X45513Y-3676
X94308Y27458
X26606Y54365
X23444Y36216
X3762Y16425
X18240Y-2275
X14414Y57987
X2222Y58845
X30756Y-4799
X61122Y-5909
X46444Y43416
X13906Y-1647
X36444Y-424
X27444Y-344
X47694Y52766
T3
X57531Y8890
X82169Y8890
T4
X56261Y24384
X51181Y24384
X68199Y24384
X63119Y24384
T5
X24481Y-15867
X19401Y-15867
X34933Y-15872
X45366Y-15864
X40286Y-15864
X66146Y-15902
X61066Y-15902
X55799Y-15865
X50719Y-15865
X76565Y-15862
X71485Y-15862
X87026Y-15843
X81946Y-15843
X97476Y-15868
X92396Y-15868
X29853Y-15872
X96901Y43434
X96901Y59055
X96901Y53975
X96901Y11479
X96901Y6399
X96889Y69667
X96889Y64587
X96901Y22100
X96901Y48514
X96913Y32927
X96913Y38007
X96901Y17020
T6
X40270Y-5000
X37730Y-5000
X53270Y-2000
X50730Y-2000
X67310Y11430
X69850Y11430
X72390Y11430
T7
X4826Y57658
X7366Y57658
X9906Y57658
X4826Y62738
X9906Y62738
X17526Y65278
X17526Y67818
X17526Y70358
X17526Y72898
X17526Y75438
X17526Y77978
X7366Y62738
T8
X22352Y45593
X19812Y45593
X17272Y45593
X51816Y69088
X49276Y69088
X21590Y17780
X19050Y17780
X46736Y69088
X51816Y62992
X46736Y62992
X16510Y17780
X49276Y62992
T9
X29464Y34798
X32004Y34798
X29464Y39624
X32004Y39624
X27940Y8001
X30480Y8001
X27940Y17399
X30480Y17399
X21590Y76200
X21590Y73660
X21590Y60960
X29210Y60960
X21590Y71120
X21590Y68580
X21590Y66040
X29210Y63500
X29210Y66040
X29210Y68580
X29210Y71120
X29210Y73660
X29210Y76200
X37232Y54251
X37232Y51711
X44852Y51711
X44852Y54251
X37232Y49171
X37232Y46631
X44852Y49171
X44852Y46631
X3810Y27940
X3810Y25400
X11430Y25400
X11430Y27940
X3810Y22860
X3810Y20320
X11430Y22860
X11430Y20320
X16764Y33528
X21844Y33528
X19304Y33528
X18288Y4318
X23368Y4318
X20828Y4318
X57724Y47531
X57724Y52611
X57724Y50071
X32512Y74676
X42672Y74676
X2286Y45720
X12446Y45720
X34163Y18288
X44323Y18288
X34163Y15240
X44323Y15240
X34163Y6096
X44323Y6096
X34163Y21336
X44323Y21336
X34163Y12192
X44323Y12192
X34163Y27432
X44323Y27432
X34163Y9144
X44323Y9144
X34163Y24384
X44323Y24384
X58547Y74422
X68707Y74422
X32512Y68834
X42672Y68834
X58547Y77470
X68707Y77470
X58547Y68326
X68707Y68326
X58547Y71374
X68707Y71374
X52832Y74930
X2286Y48768
X12446Y48768
X2286Y39624
X12446Y39624
X2286Y33528
X12446Y33528
X2286Y51816
X12446Y51816
X2286Y54864
X12446Y54864
X2286Y42672
X12446Y42672
X2286Y36576
X12446Y36576
X45212Y74930
X40259Y71628
X32639Y71628
X72756Y42847
X72756Y35227
X23495Y54356
X15875Y54356
X23368Y50546
X15748Y50546
X23368Y27813
X15748Y27813
X23368Y24003
X15748Y24003
X64724Y47516
X64724Y52596
X64724Y50056
X58547Y56134
X68707Y56134
X58547Y62230
X68707Y62230
X58547Y65278
X68707Y65278
X58547Y59182
X68707Y59182
X77836Y42974
X77836Y35354
X80720Y50424
X80720Y47884
X80720Y35184
X80720Y45344
X80720Y42804
X80720Y37724
X80720Y40264
X88340Y37724
X88340Y40264
X88340Y42804
X88340Y45344
X88340Y47884
X88340Y50424
X80518Y27543
X88138Y27543
X80518Y22066
X88138Y22066
X88340Y35184
X57000Y33920
X57000Y44080
X62000Y33920
X62000Y44080
X21590Y63500
X27940Y12700
X30480Y12700
X29337Y44450
X31877Y44450
X10000Y-17080
X10000Y-6920
X14000Y-17080
X14000Y-6920
T10
X18574Y10668
X6350Y11240
X3810Y11240
X33655Y64389
X36195Y64389
X40132Y64262
X42672Y64262
X13970Y5525
X83900Y70104
X83900Y72644
X17907Y39497
X12192Y5525
X10414Y5525
X72390Y54737
X74930Y54737
X77470Y54737
X42910Y32528
X41132Y32528
X39354Y32528
X74930Y65913
X72390Y65913
X74930Y49149
X72390Y49149
X20447Y39497
X74930Y71501
X72390Y71501
X74930Y77089
X41894Y40640
X72390Y60325
X72390Y77089
X83900Y61500
X83900Y58960
X83900Y56420
X74930Y21590
X74930Y24130
X3950Y-4754
X6490Y-4754
X3650Y3808
X6190Y3808
X39354Y40640
X74930Y60325
X16034Y10668
T11
X29210Y26670
X27686Y26670
X32357Y49171
X30833Y49171
X30734Y21590
X29210Y21590
X27686Y21590
X30734Y26670
X29309Y49171
X32369Y53467
X29321Y53467
X30845Y53467
T12
X27655Y20196
X30294Y58293
X28687Y56686
X64604Y40851
X56227Y65981
X31900Y15032
X36605Y8147
X26507Y20196
X38556Y15262
X2525Y20540
X40277Y37179
X45785Y31671
X64375Y-13770
X29491Y42343
X14917Y43146
X40507Y47851
X85833Y79063
X75276Y10672
X17672Y48310
X4131Y51982
X38671Y29950
X12737Y-14688
X62424Y41769
X46933Y22950
X54506Y49801
X40277Y28343
X57604Y-13770
X71719Y14229
X5279Y36146
X26507Y61047
X33966Y-8492
X85718Y64948
X38900Y28343
X42343Y44293
X85833Y76309
X26737Y-12622
X12508Y57145
X60473Y-8951
X38327Y42917
M30