G04 EAGLE Gerber X2 export*
%TF.Part,Single*%
%TF.FileFunction,Legend,Bot,1*%
%TF.FilePolarity,Positive*%
%TF.GenerationSoftware,Autodesk,EAGLE,9.1.2*%
%TF.CreationDate,2019-04-25T09:22:07Z*%
G75*
%MOMM*%
%FSLAX34Y34*%
%LPD*%
%AMOC8*
5,1,8,0,0,1.08239X$1,22.5*%
G01*
%ADD10C,0.203200*%


D10*
X858984Y17216D02*
X858984Y40584D01*
X846002Y40584D02*
X858984Y26304D01*
X853791Y31496D02*
X846002Y17216D01*
X838283Y17216D02*
X838283Y32795D01*
X830493Y32795D01*
X830493Y30198D01*
X823731Y32795D02*
X823731Y21111D01*
X823732Y21111D02*
X823730Y20989D01*
X823724Y20866D01*
X823715Y20744D01*
X823701Y20623D01*
X823684Y20502D01*
X823663Y20381D01*
X823638Y20261D01*
X823610Y20142D01*
X823577Y20024D01*
X823541Y19907D01*
X823502Y19792D01*
X823458Y19677D01*
X823412Y19564D01*
X823361Y19453D01*
X823307Y19343D01*
X823250Y19235D01*
X823190Y19128D01*
X823126Y19024D01*
X823058Y18922D01*
X822988Y18822D01*
X822915Y18724D01*
X822838Y18628D01*
X822759Y18535D01*
X822676Y18445D01*
X822591Y18357D01*
X822503Y18272D01*
X822413Y18189D01*
X822320Y18110D01*
X822224Y18033D01*
X822126Y17960D01*
X822026Y17890D01*
X821924Y17822D01*
X821820Y17758D01*
X821713Y17698D01*
X821605Y17641D01*
X821495Y17587D01*
X821384Y17536D01*
X821271Y17490D01*
X821156Y17446D01*
X821041Y17407D01*
X820924Y17371D01*
X820806Y17338D01*
X820687Y17310D01*
X820567Y17285D01*
X820446Y17264D01*
X820325Y17247D01*
X820204Y17233D01*
X820082Y17224D01*
X819959Y17218D01*
X819837Y17216D01*
X813346Y17216D01*
X813346Y32795D01*
X804619Y32795D02*
X804619Y17216D01*
X805269Y39286D02*
X805269Y40584D01*
X803970Y40584D01*
X803970Y39286D01*
X805269Y39286D01*
X794642Y26304D02*
X788151Y23707D01*
X794642Y26304D02*
X794748Y26348D01*
X794853Y26397D01*
X794956Y26449D01*
X795057Y26504D01*
X795157Y26563D01*
X795254Y26625D01*
X795349Y26690D01*
X795441Y26759D01*
X795532Y26831D01*
X795619Y26905D01*
X795705Y26983D01*
X795787Y27064D01*
X795867Y27147D01*
X795943Y27233D01*
X796017Y27322D01*
X796088Y27413D01*
X796155Y27507D01*
X796219Y27603D01*
X796280Y27701D01*
X796338Y27800D01*
X796392Y27902D01*
X796442Y28006D01*
X796489Y28111D01*
X796533Y28218D01*
X796572Y28327D01*
X796608Y28436D01*
X796640Y28547D01*
X796669Y28659D01*
X796693Y28771D01*
X796714Y28885D01*
X796730Y28999D01*
X796743Y29114D01*
X796752Y29229D01*
X796757Y29344D01*
X796758Y29459D01*
X796755Y29574D01*
X796748Y29690D01*
X796737Y29804D01*
X796722Y29919D01*
X796703Y30032D01*
X796681Y30146D01*
X796654Y30258D01*
X796624Y30369D01*
X796590Y30479D01*
X796552Y30588D01*
X796511Y30696D01*
X796465Y30802D01*
X796416Y30906D01*
X796364Y31009D01*
X796308Y31110D01*
X796249Y31209D01*
X796186Y31306D01*
X796120Y31400D01*
X796051Y31493D01*
X795979Y31583D01*
X795904Y31670D01*
X795825Y31755D01*
X795744Y31837D01*
X795660Y31916D01*
X795574Y31992D01*
X795485Y32065D01*
X795393Y32135D01*
X795299Y32202D01*
X795203Y32266D01*
X795105Y32326D01*
X795005Y32383D01*
X794903Y32437D01*
X794799Y32487D01*
X794693Y32533D01*
X794586Y32576D01*
X794477Y32615D01*
X794368Y32650D01*
X794257Y32682D01*
X794145Y32710D01*
X794032Y32734D01*
X793918Y32754D01*
X793804Y32770D01*
X793690Y32782D01*
X793575Y32790D01*
X793459Y32794D01*
X793344Y32795D01*
X793344Y32794D02*
X792989Y32785D01*
X792635Y32767D01*
X792282Y32741D01*
X791929Y32706D01*
X791577Y32663D01*
X791226Y32611D01*
X790877Y32551D01*
X790529Y32482D01*
X790183Y32405D01*
X789839Y32320D01*
X789497Y32227D01*
X789158Y32125D01*
X788821Y32015D01*
X788486Y31898D01*
X788155Y31772D01*
X787827Y31638D01*
X787502Y31496D01*
X788151Y23707D02*
X788045Y23663D01*
X787940Y23614D01*
X787837Y23562D01*
X787736Y23507D01*
X787636Y23448D01*
X787539Y23386D01*
X787444Y23321D01*
X787352Y23252D01*
X787261Y23180D01*
X787174Y23106D01*
X787088Y23028D01*
X787006Y22947D01*
X786926Y22864D01*
X786850Y22778D01*
X786776Y22689D01*
X786705Y22598D01*
X786638Y22504D01*
X786574Y22408D01*
X786513Y22310D01*
X786455Y22211D01*
X786401Y22109D01*
X786351Y22005D01*
X786304Y21900D01*
X786260Y21793D01*
X786221Y21684D01*
X786185Y21575D01*
X786153Y21464D01*
X786124Y21352D01*
X786100Y21240D01*
X786079Y21126D01*
X786063Y21012D01*
X786050Y20897D01*
X786041Y20782D01*
X786036Y20667D01*
X786035Y20552D01*
X786038Y20437D01*
X786045Y20321D01*
X786056Y20207D01*
X786071Y20092D01*
X786090Y19979D01*
X786112Y19865D01*
X786139Y19753D01*
X786169Y19642D01*
X786203Y19532D01*
X786241Y19423D01*
X786282Y19315D01*
X786328Y19209D01*
X786377Y19105D01*
X786429Y19002D01*
X786485Y18901D01*
X786544Y18802D01*
X786607Y18705D01*
X786673Y18611D01*
X786742Y18518D01*
X786814Y18428D01*
X786889Y18341D01*
X786968Y18256D01*
X787049Y18174D01*
X787133Y18095D01*
X787219Y18019D01*
X787308Y17946D01*
X787400Y17876D01*
X787494Y17809D01*
X787590Y17745D01*
X787688Y17685D01*
X787788Y17628D01*
X787890Y17574D01*
X787994Y17524D01*
X788100Y17478D01*
X788207Y17435D01*
X788316Y17396D01*
X788425Y17361D01*
X788536Y17329D01*
X788648Y17301D01*
X788761Y17277D01*
X788875Y17257D01*
X788989Y17241D01*
X789103Y17229D01*
X789218Y17221D01*
X789334Y17217D01*
X789449Y17216D01*
X789970Y17230D01*
X790490Y17256D01*
X791009Y17294D01*
X791528Y17344D01*
X792045Y17407D01*
X792560Y17482D01*
X793073Y17569D01*
X793585Y17668D01*
X794093Y17780D01*
X794599Y17903D01*
X795102Y18038D01*
X795602Y18185D01*
X796098Y18344D01*
X796590Y18514D01*
X777747Y9427D02*
X777747Y32795D01*
X771256Y32795D01*
X771134Y32793D01*
X771011Y32787D01*
X770889Y32778D01*
X770768Y32764D01*
X770647Y32747D01*
X770526Y32726D01*
X770406Y32701D01*
X770287Y32673D01*
X770169Y32640D01*
X770052Y32604D01*
X769937Y32565D01*
X769822Y32521D01*
X769709Y32475D01*
X769598Y32424D01*
X769488Y32370D01*
X769380Y32313D01*
X769273Y32253D01*
X769169Y32189D01*
X769067Y32121D01*
X768967Y32051D01*
X768869Y31978D01*
X768773Y31901D01*
X768680Y31822D01*
X768590Y31739D01*
X768502Y31654D01*
X768417Y31566D01*
X768334Y31476D01*
X768255Y31383D01*
X768178Y31287D01*
X768105Y31189D01*
X768035Y31089D01*
X767967Y30987D01*
X767903Y30883D01*
X767843Y30776D01*
X767786Y30668D01*
X767732Y30558D01*
X767681Y30447D01*
X767635Y30334D01*
X767591Y30219D01*
X767552Y30104D01*
X767516Y29987D01*
X767483Y29869D01*
X767455Y29750D01*
X767430Y29630D01*
X767409Y29509D01*
X767392Y29388D01*
X767378Y29267D01*
X767369Y29145D01*
X767363Y29022D01*
X767361Y28900D01*
X767362Y28900D02*
X767362Y21111D01*
X767361Y21111D02*
X767363Y20989D01*
X767369Y20866D01*
X767378Y20744D01*
X767392Y20623D01*
X767409Y20502D01*
X767430Y20381D01*
X767455Y20261D01*
X767483Y20142D01*
X767516Y20024D01*
X767552Y19907D01*
X767591Y19792D01*
X767635Y19677D01*
X767681Y19564D01*
X767732Y19453D01*
X767786Y19343D01*
X767843Y19235D01*
X767903Y19128D01*
X767967Y19024D01*
X768035Y18922D01*
X768105Y18822D01*
X768178Y18724D01*
X768255Y18628D01*
X768334Y18535D01*
X768417Y18445D01*
X768502Y18357D01*
X768590Y18272D01*
X768680Y18189D01*
X768773Y18110D01*
X768869Y18033D01*
X768967Y17960D01*
X769067Y17890D01*
X769169Y17822D01*
X769273Y17758D01*
X769380Y17698D01*
X769488Y17641D01*
X769598Y17587D01*
X769709Y17536D01*
X769822Y17490D01*
X769937Y17446D01*
X770052Y17407D01*
X770169Y17371D01*
X770287Y17338D01*
X770406Y17310D01*
X770526Y17285D01*
X770647Y17264D01*
X770768Y17247D01*
X770889Y17233D01*
X771011Y17224D01*
X771134Y17218D01*
X771256Y17216D01*
X777747Y17216D01*
X759007Y21111D02*
X759007Y32795D01*
X759008Y21111D02*
X759006Y20989D01*
X759000Y20866D01*
X758991Y20744D01*
X758977Y20623D01*
X758960Y20502D01*
X758939Y20381D01*
X758914Y20261D01*
X758886Y20142D01*
X758853Y20024D01*
X758817Y19907D01*
X758778Y19792D01*
X758734Y19677D01*
X758688Y19564D01*
X758637Y19453D01*
X758583Y19343D01*
X758526Y19235D01*
X758466Y19128D01*
X758402Y19024D01*
X758334Y18922D01*
X758264Y18822D01*
X758191Y18724D01*
X758114Y18628D01*
X758035Y18535D01*
X757952Y18445D01*
X757867Y18357D01*
X757779Y18272D01*
X757689Y18189D01*
X757596Y18110D01*
X757500Y18033D01*
X757402Y17960D01*
X757302Y17890D01*
X757200Y17822D01*
X757096Y17758D01*
X756989Y17698D01*
X756881Y17641D01*
X756771Y17587D01*
X756660Y17536D01*
X756547Y17490D01*
X756432Y17446D01*
X756317Y17407D01*
X756200Y17371D01*
X756082Y17338D01*
X755963Y17310D01*
X755843Y17285D01*
X755722Y17264D01*
X755601Y17247D01*
X755480Y17233D01*
X755358Y17224D01*
X755235Y17218D01*
X755113Y17216D01*
X748622Y17216D01*
X748622Y32795D01*
X739521Y32795D02*
X739521Y17216D01*
X739521Y32795D02*
X733029Y32795D01*
X732907Y32793D01*
X732784Y32787D01*
X732662Y32778D01*
X732541Y32764D01*
X732420Y32747D01*
X732299Y32726D01*
X732179Y32701D01*
X732060Y32673D01*
X731942Y32640D01*
X731825Y32604D01*
X731710Y32565D01*
X731595Y32521D01*
X731482Y32475D01*
X731371Y32424D01*
X731261Y32370D01*
X731153Y32313D01*
X731046Y32253D01*
X730942Y32189D01*
X730840Y32121D01*
X730740Y32051D01*
X730642Y31978D01*
X730546Y31901D01*
X730453Y31822D01*
X730363Y31739D01*
X730275Y31654D01*
X730190Y31566D01*
X730107Y31476D01*
X730028Y31383D01*
X729951Y31287D01*
X729878Y31189D01*
X729808Y31089D01*
X729740Y30987D01*
X729676Y30883D01*
X729616Y30776D01*
X729559Y30668D01*
X729505Y30558D01*
X729454Y30447D01*
X729408Y30334D01*
X729364Y30219D01*
X729325Y30104D01*
X729289Y29987D01*
X729256Y29869D01*
X729228Y29750D01*
X729203Y29630D01*
X729182Y29509D01*
X729165Y29388D01*
X729151Y29267D01*
X729142Y29145D01*
X729136Y29022D01*
X729134Y28900D01*
X729135Y28900D02*
X729135Y17216D01*
X722299Y32795D02*
X714510Y32795D01*
X719703Y40584D02*
X719703Y21111D01*
X719701Y20989D01*
X719695Y20866D01*
X719686Y20744D01*
X719672Y20623D01*
X719655Y20502D01*
X719634Y20381D01*
X719609Y20261D01*
X719581Y20142D01*
X719548Y20024D01*
X719512Y19907D01*
X719473Y19792D01*
X719429Y19677D01*
X719383Y19564D01*
X719332Y19453D01*
X719278Y19343D01*
X719221Y19235D01*
X719161Y19128D01*
X719097Y19024D01*
X719029Y18922D01*
X718959Y18822D01*
X718886Y18724D01*
X718809Y18628D01*
X718730Y18535D01*
X718647Y18445D01*
X718562Y18357D01*
X718474Y18272D01*
X718384Y18189D01*
X718291Y18110D01*
X718195Y18033D01*
X718097Y17960D01*
X717997Y17890D01*
X717895Y17822D01*
X717791Y17758D01*
X717684Y17698D01*
X717576Y17641D01*
X717466Y17587D01*
X717355Y17536D01*
X717242Y17490D01*
X717127Y17446D01*
X717012Y17407D01*
X716895Y17371D01*
X716777Y17338D01*
X716658Y17310D01*
X716538Y17285D01*
X716417Y17264D01*
X716296Y17247D01*
X716175Y17233D01*
X716053Y17224D01*
X715930Y17218D01*
X715808Y17216D01*
X714510Y17216D01*
X689786Y17216D02*
X697576Y40584D01*
X681997Y40584D02*
X689786Y17216D01*
X675399Y17216D02*
X668908Y17216D01*
X668749Y17218D01*
X668590Y17224D01*
X668430Y17234D01*
X668272Y17247D01*
X668113Y17265D01*
X667956Y17286D01*
X667798Y17312D01*
X667642Y17341D01*
X667486Y17374D01*
X667331Y17411D01*
X667177Y17451D01*
X667024Y17496D01*
X666872Y17544D01*
X666721Y17595D01*
X666572Y17651D01*
X666424Y17710D01*
X666278Y17773D01*
X666133Y17839D01*
X665990Y17909D01*
X665848Y17982D01*
X665709Y18059D01*
X665571Y18139D01*
X665435Y18223D01*
X665302Y18310D01*
X665170Y18400D01*
X665041Y18493D01*
X664915Y18590D01*
X664790Y18689D01*
X664668Y18792D01*
X664549Y18897D01*
X664432Y19006D01*
X664318Y19117D01*
X664207Y19231D01*
X664098Y19348D01*
X663993Y19467D01*
X663890Y19589D01*
X663791Y19714D01*
X663694Y19840D01*
X663601Y19969D01*
X663511Y20101D01*
X663424Y20234D01*
X663340Y20370D01*
X663260Y20508D01*
X663183Y20647D01*
X663110Y20789D01*
X663040Y20932D01*
X662974Y21077D01*
X662911Y21223D01*
X662852Y21371D01*
X662796Y21520D01*
X662745Y21671D01*
X662697Y21823D01*
X662652Y21976D01*
X662612Y22130D01*
X662575Y22285D01*
X662542Y22441D01*
X662513Y22597D01*
X662487Y22755D01*
X662466Y22912D01*
X662448Y23071D01*
X662435Y23229D01*
X662425Y23389D01*
X662419Y23548D01*
X662417Y23707D01*
X662419Y23866D01*
X662425Y24025D01*
X662435Y24185D01*
X662448Y24343D01*
X662466Y24502D01*
X662487Y24659D01*
X662513Y24817D01*
X662542Y24973D01*
X662575Y25129D01*
X662612Y25284D01*
X662652Y25438D01*
X662697Y25591D01*
X662745Y25743D01*
X662796Y25894D01*
X662852Y26043D01*
X662911Y26191D01*
X662974Y26337D01*
X663040Y26482D01*
X663110Y26625D01*
X663183Y26767D01*
X663260Y26906D01*
X663340Y27044D01*
X663424Y27180D01*
X663511Y27313D01*
X663601Y27445D01*
X663694Y27574D01*
X663791Y27700D01*
X663890Y27825D01*
X663993Y27947D01*
X664098Y28066D01*
X664207Y28183D01*
X664318Y28297D01*
X664432Y28408D01*
X664549Y28517D01*
X664668Y28622D01*
X664790Y28725D01*
X664915Y28824D01*
X665041Y28921D01*
X665170Y29014D01*
X665302Y29104D01*
X665435Y29191D01*
X665571Y29275D01*
X665709Y29355D01*
X665848Y29432D01*
X665990Y29505D01*
X666133Y29575D01*
X666278Y29641D01*
X666424Y29704D01*
X666572Y29763D01*
X666721Y29819D01*
X666872Y29870D01*
X667024Y29918D01*
X667177Y29963D01*
X667331Y30003D01*
X667486Y30040D01*
X667642Y30073D01*
X667798Y30102D01*
X667956Y30128D01*
X668113Y30149D01*
X668272Y30167D01*
X668430Y30180D01*
X668590Y30190D01*
X668749Y30196D01*
X668908Y30198D01*
X667609Y40584D02*
X675399Y40584D01*
X667609Y40584D02*
X667466Y40582D01*
X667323Y40576D01*
X667180Y40566D01*
X667038Y40552D01*
X666896Y40535D01*
X666754Y40513D01*
X666613Y40488D01*
X666473Y40458D01*
X666334Y40425D01*
X666196Y40388D01*
X666059Y40347D01*
X665923Y40303D01*
X665788Y40254D01*
X665655Y40202D01*
X665523Y40147D01*
X665393Y40087D01*
X665264Y40024D01*
X665137Y39958D01*
X665013Y39888D01*
X664890Y39815D01*
X664769Y39738D01*
X664650Y39658D01*
X664534Y39575D01*
X664419Y39489D01*
X664308Y39400D01*
X664198Y39307D01*
X664092Y39212D01*
X663988Y39113D01*
X663887Y39012D01*
X663788Y38908D01*
X663693Y38802D01*
X663600Y38692D01*
X663511Y38581D01*
X663425Y38466D01*
X663342Y38350D01*
X663262Y38231D01*
X663185Y38110D01*
X663112Y37988D01*
X663042Y37863D01*
X662976Y37736D01*
X662913Y37607D01*
X662853Y37477D01*
X662798Y37345D01*
X662746Y37212D01*
X662697Y37077D01*
X662653Y36941D01*
X662612Y36804D01*
X662575Y36666D01*
X662542Y36527D01*
X662512Y36387D01*
X662487Y36246D01*
X662465Y36104D01*
X662448Y35962D01*
X662434Y35820D01*
X662424Y35677D01*
X662418Y35534D01*
X662416Y35391D01*
X662418Y35248D01*
X662424Y35105D01*
X662434Y34962D01*
X662448Y34820D01*
X662465Y34678D01*
X662487Y34536D01*
X662512Y34395D01*
X662542Y34255D01*
X662575Y34116D01*
X662612Y33978D01*
X662653Y33841D01*
X662697Y33705D01*
X662746Y33570D01*
X662798Y33437D01*
X662853Y33305D01*
X662913Y33175D01*
X662976Y33046D01*
X663042Y32919D01*
X663112Y32795D01*
X663185Y32672D01*
X663262Y32551D01*
X663342Y32432D01*
X663425Y32316D01*
X663511Y32201D01*
X663600Y32090D01*
X663693Y31980D01*
X663788Y31874D01*
X663887Y31770D01*
X663988Y31669D01*
X664092Y31570D01*
X664198Y31475D01*
X664308Y31382D01*
X664419Y31293D01*
X664534Y31207D01*
X664650Y31124D01*
X664769Y31044D01*
X664890Y30967D01*
X665012Y30894D01*
X665137Y30824D01*
X665264Y30758D01*
X665393Y30695D01*
X665523Y30635D01*
X665655Y30580D01*
X665788Y30528D01*
X665923Y30479D01*
X666059Y30435D01*
X666196Y30394D01*
X666334Y30357D01*
X666473Y30324D01*
X666613Y30294D01*
X666754Y30269D01*
X666896Y30247D01*
X667038Y30230D01*
X667180Y30216D01*
X667323Y30206D01*
X667466Y30200D01*
X667609Y30198D01*
X672802Y30198D01*
X858984Y2484D02*
X858984Y-20884D01*
X858984Y2484D02*
X852493Y2484D01*
X852334Y2482D01*
X852175Y2476D01*
X852015Y2466D01*
X851857Y2453D01*
X851698Y2435D01*
X851541Y2414D01*
X851383Y2388D01*
X851227Y2359D01*
X851071Y2326D01*
X850916Y2289D01*
X850762Y2249D01*
X850609Y2204D01*
X850457Y2156D01*
X850306Y2105D01*
X850157Y2049D01*
X850009Y1990D01*
X849863Y1927D01*
X849718Y1861D01*
X849575Y1791D01*
X849433Y1718D01*
X849294Y1641D01*
X849156Y1561D01*
X849020Y1477D01*
X848887Y1390D01*
X848755Y1300D01*
X848626Y1207D01*
X848500Y1110D01*
X848375Y1011D01*
X848253Y908D01*
X848134Y803D01*
X848017Y694D01*
X847903Y583D01*
X847792Y469D01*
X847683Y352D01*
X847578Y233D01*
X847475Y111D01*
X847376Y-14D01*
X847279Y-140D01*
X847186Y-269D01*
X847096Y-401D01*
X847009Y-534D01*
X846925Y-670D01*
X846845Y-808D01*
X846768Y-947D01*
X846695Y-1089D01*
X846625Y-1232D01*
X846559Y-1377D01*
X846496Y-1523D01*
X846437Y-1671D01*
X846381Y-1820D01*
X846330Y-1971D01*
X846282Y-2123D01*
X846237Y-2276D01*
X846197Y-2430D01*
X846160Y-2585D01*
X846127Y-2741D01*
X846098Y-2897D01*
X846072Y-3055D01*
X846051Y-3212D01*
X846033Y-3371D01*
X846020Y-3529D01*
X846010Y-3689D01*
X846004Y-3848D01*
X846002Y-4007D01*
X846004Y-4166D01*
X846010Y-4325D01*
X846020Y-4485D01*
X846033Y-4643D01*
X846051Y-4802D01*
X846072Y-4959D01*
X846098Y-5117D01*
X846127Y-5273D01*
X846160Y-5429D01*
X846197Y-5584D01*
X846237Y-5738D01*
X846282Y-5891D01*
X846330Y-6043D01*
X846381Y-6194D01*
X846437Y-6343D01*
X846496Y-6491D01*
X846559Y-6637D01*
X846625Y-6782D01*
X846695Y-6925D01*
X846768Y-7067D01*
X846845Y-7206D01*
X846925Y-7344D01*
X847009Y-7480D01*
X847096Y-7613D01*
X847186Y-7745D01*
X847279Y-7874D01*
X847376Y-8000D01*
X847475Y-8125D01*
X847578Y-8247D01*
X847683Y-8366D01*
X847792Y-8483D01*
X847903Y-8597D01*
X848017Y-8708D01*
X848134Y-8817D01*
X848253Y-8922D01*
X848375Y-9025D01*
X848500Y-9124D01*
X848626Y-9221D01*
X848755Y-9314D01*
X848887Y-9404D01*
X849020Y-9491D01*
X849156Y-9575D01*
X849294Y-9655D01*
X849433Y-9732D01*
X849575Y-9805D01*
X849718Y-9875D01*
X849863Y-9941D01*
X850009Y-10004D01*
X850157Y-10063D01*
X850306Y-10119D01*
X850457Y-10170D01*
X850609Y-10218D01*
X850762Y-10263D01*
X850916Y-10303D01*
X851071Y-10340D01*
X851227Y-10373D01*
X851383Y-10402D01*
X851541Y-10428D01*
X851698Y-10449D01*
X851857Y-10467D01*
X852015Y-10480D01*
X852175Y-10490D01*
X852334Y-10496D01*
X852493Y-10498D01*
X858984Y-10498D01*
X851195Y-10498D02*
X846002Y-20884D01*
X838263Y-15691D02*
X838263Y-10498D01*
X838261Y-10355D01*
X838255Y-10212D01*
X838245Y-10069D01*
X838231Y-9927D01*
X838214Y-9785D01*
X838192Y-9643D01*
X838167Y-9502D01*
X838137Y-9362D01*
X838104Y-9223D01*
X838067Y-9085D01*
X838026Y-8948D01*
X837982Y-8812D01*
X837933Y-8677D01*
X837881Y-8544D01*
X837826Y-8412D01*
X837766Y-8282D01*
X837703Y-8153D01*
X837637Y-8026D01*
X837567Y-7902D01*
X837494Y-7779D01*
X837417Y-7658D01*
X837337Y-7539D01*
X837254Y-7423D01*
X837168Y-7308D01*
X837079Y-7197D01*
X836986Y-7087D01*
X836891Y-6981D01*
X836792Y-6877D01*
X836691Y-6776D01*
X836587Y-6677D01*
X836481Y-6582D01*
X836371Y-6489D01*
X836260Y-6400D01*
X836145Y-6314D01*
X836029Y-6231D01*
X835910Y-6151D01*
X835789Y-6074D01*
X835667Y-6001D01*
X835542Y-5931D01*
X835415Y-5865D01*
X835286Y-5802D01*
X835156Y-5742D01*
X835024Y-5687D01*
X834891Y-5635D01*
X834756Y-5586D01*
X834620Y-5542D01*
X834483Y-5501D01*
X834345Y-5464D01*
X834206Y-5431D01*
X834066Y-5401D01*
X833925Y-5376D01*
X833783Y-5354D01*
X833641Y-5337D01*
X833499Y-5323D01*
X833356Y-5313D01*
X833213Y-5307D01*
X833070Y-5305D01*
X832927Y-5307D01*
X832784Y-5313D01*
X832641Y-5323D01*
X832499Y-5337D01*
X832357Y-5354D01*
X832215Y-5376D01*
X832074Y-5401D01*
X831934Y-5431D01*
X831795Y-5464D01*
X831657Y-5501D01*
X831520Y-5542D01*
X831384Y-5586D01*
X831249Y-5635D01*
X831116Y-5687D01*
X830984Y-5742D01*
X830854Y-5802D01*
X830725Y-5865D01*
X830598Y-5931D01*
X830474Y-6001D01*
X830351Y-6074D01*
X830230Y-6151D01*
X830111Y-6231D01*
X829995Y-6314D01*
X829880Y-6400D01*
X829769Y-6489D01*
X829659Y-6582D01*
X829553Y-6677D01*
X829449Y-6776D01*
X829348Y-6877D01*
X829249Y-6981D01*
X829154Y-7087D01*
X829061Y-7197D01*
X828972Y-7308D01*
X828886Y-7423D01*
X828803Y-7539D01*
X828723Y-7658D01*
X828646Y-7779D01*
X828573Y-7901D01*
X828503Y-8026D01*
X828437Y-8153D01*
X828374Y-8282D01*
X828314Y-8412D01*
X828259Y-8544D01*
X828207Y-8677D01*
X828158Y-8812D01*
X828114Y-8948D01*
X828073Y-9085D01*
X828036Y-9223D01*
X828003Y-9362D01*
X827973Y-9502D01*
X827948Y-9643D01*
X827926Y-9785D01*
X827909Y-9927D01*
X827895Y-10069D01*
X827885Y-10212D01*
X827879Y-10355D01*
X827877Y-10498D01*
X827877Y-15691D01*
X827879Y-15834D01*
X827885Y-15977D01*
X827895Y-16120D01*
X827909Y-16262D01*
X827926Y-16404D01*
X827948Y-16546D01*
X827973Y-16687D01*
X828003Y-16827D01*
X828036Y-16966D01*
X828073Y-17104D01*
X828114Y-17241D01*
X828158Y-17377D01*
X828207Y-17512D01*
X828259Y-17645D01*
X828314Y-17777D01*
X828374Y-17907D01*
X828437Y-18036D01*
X828503Y-18163D01*
X828573Y-18287D01*
X828646Y-18410D01*
X828723Y-18531D01*
X828803Y-18650D01*
X828886Y-18766D01*
X828972Y-18881D01*
X829061Y-18992D01*
X829154Y-19102D01*
X829249Y-19208D01*
X829348Y-19312D01*
X829449Y-19413D01*
X829553Y-19512D01*
X829659Y-19607D01*
X829769Y-19700D01*
X829880Y-19789D01*
X829995Y-19875D01*
X830111Y-19958D01*
X830230Y-20038D01*
X830351Y-20115D01*
X830474Y-20188D01*
X830598Y-20258D01*
X830725Y-20324D01*
X830854Y-20387D01*
X830984Y-20447D01*
X831116Y-20502D01*
X831249Y-20554D01*
X831384Y-20603D01*
X831520Y-20647D01*
X831657Y-20688D01*
X831795Y-20725D01*
X831934Y-20758D01*
X832074Y-20788D01*
X832215Y-20813D01*
X832357Y-20835D01*
X832499Y-20852D01*
X832641Y-20866D01*
X832784Y-20876D01*
X832927Y-20882D01*
X833070Y-20884D01*
X833213Y-20882D01*
X833356Y-20876D01*
X833499Y-20866D01*
X833641Y-20852D01*
X833783Y-20835D01*
X833925Y-20813D01*
X834066Y-20788D01*
X834206Y-20758D01*
X834345Y-20725D01*
X834483Y-20688D01*
X834620Y-20647D01*
X834756Y-20603D01*
X834891Y-20554D01*
X835024Y-20502D01*
X835156Y-20447D01*
X835286Y-20387D01*
X835415Y-20324D01*
X835542Y-20258D01*
X835666Y-20188D01*
X835789Y-20115D01*
X835910Y-20038D01*
X836029Y-19958D01*
X836145Y-19875D01*
X836260Y-19789D01*
X836371Y-19700D01*
X836481Y-19607D01*
X836587Y-19512D01*
X836691Y-19413D01*
X836792Y-19312D01*
X836891Y-19208D01*
X836986Y-19102D01*
X837079Y-18992D01*
X837168Y-18881D01*
X837254Y-18766D01*
X837337Y-18650D01*
X837417Y-18531D01*
X837494Y-18410D01*
X837567Y-18288D01*
X837637Y-18163D01*
X837703Y-18036D01*
X837766Y-17907D01*
X837826Y-17777D01*
X837881Y-17645D01*
X837933Y-17512D01*
X837982Y-17377D01*
X838026Y-17241D01*
X838067Y-17104D01*
X838104Y-16966D01*
X838137Y-16827D01*
X838167Y-16687D01*
X838192Y-16546D01*
X838214Y-16404D01*
X838231Y-16262D01*
X838245Y-16120D01*
X838255Y-15977D01*
X838261Y-15834D01*
X838263Y-15691D01*
X819421Y-20884D02*
X819421Y2484D01*
X819421Y-20884D02*
X812930Y-20884D01*
X812808Y-20882D01*
X812685Y-20876D01*
X812563Y-20867D01*
X812442Y-20853D01*
X812321Y-20836D01*
X812200Y-20815D01*
X812080Y-20790D01*
X811961Y-20762D01*
X811843Y-20729D01*
X811726Y-20693D01*
X811611Y-20654D01*
X811496Y-20610D01*
X811383Y-20564D01*
X811272Y-20513D01*
X811162Y-20459D01*
X811054Y-20402D01*
X810947Y-20342D01*
X810843Y-20278D01*
X810741Y-20210D01*
X810641Y-20140D01*
X810543Y-20067D01*
X810447Y-19990D01*
X810354Y-19911D01*
X810264Y-19828D01*
X810176Y-19743D01*
X810091Y-19655D01*
X810008Y-19565D01*
X809929Y-19472D01*
X809852Y-19376D01*
X809779Y-19278D01*
X809709Y-19178D01*
X809641Y-19076D01*
X809577Y-18972D01*
X809517Y-18865D01*
X809460Y-18757D01*
X809406Y-18647D01*
X809355Y-18536D01*
X809309Y-18423D01*
X809265Y-18308D01*
X809226Y-18193D01*
X809190Y-18076D01*
X809157Y-17958D01*
X809129Y-17839D01*
X809104Y-17719D01*
X809083Y-17598D01*
X809066Y-17477D01*
X809052Y-17356D01*
X809043Y-17234D01*
X809037Y-17111D01*
X809035Y-16989D01*
X809035Y-9200D01*
X809037Y-9078D01*
X809043Y-8955D01*
X809052Y-8833D01*
X809066Y-8712D01*
X809083Y-8591D01*
X809104Y-8470D01*
X809129Y-8350D01*
X809157Y-8231D01*
X809190Y-8113D01*
X809226Y-7996D01*
X809265Y-7881D01*
X809309Y-7766D01*
X809355Y-7653D01*
X809406Y-7542D01*
X809460Y-7432D01*
X809517Y-7324D01*
X809577Y-7217D01*
X809641Y-7113D01*
X809709Y-7011D01*
X809779Y-6911D01*
X809852Y-6813D01*
X809929Y-6717D01*
X810008Y-6624D01*
X810091Y-6534D01*
X810176Y-6446D01*
X810264Y-6361D01*
X810354Y-6278D01*
X810447Y-6199D01*
X810543Y-6122D01*
X810641Y-6049D01*
X810741Y-5979D01*
X810843Y-5911D01*
X810947Y-5847D01*
X811054Y-5787D01*
X811162Y-5730D01*
X811272Y-5676D01*
X811383Y-5625D01*
X811496Y-5579D01*
X811611Y-5535D01*
X811726Y-5496D01*
X811843Y-5460D01*
X811961Y-5427D01*
X812080Y-5399D01*
X812200Y-5374D01*
X812321Y-5353D01*
X812442Y-5336D01*
X812563Y-5322D01*
X812685Y-5313D01*
X812808Y-5307D01*
X812930Y-5305D01*
X819421Y-5305D01*
X800630Y2484D02*
X800630Y-20884D01*
X794139Y-20884D01*
X794017Y-20882D01*
X793894Y-20876D01*
X793772Y-20867D01*
X793651Y-20853D01*
X793530Y-20836D01*
X793409Y-20815D01*
X793289Y-20790D01*
X793170Y-20762D01*
X793052Y-20729D01*
X792935Y-20693D01*
X792820Y-20654D01*
X792705Y-20610D01*
X792592Y-20564D01*
X792481Y-20513D01*
X792371Y-20459D01*
X792263Y-20402D01*
X792156Y-20342D01*
X792052Y-20278D01*
X791950Y-20210D01*
X791850Y-20140D01*
X791752Y-20067D01*
X791656Y-19990D01*
X791563Y-19911D01*
X791473Y-19828D01*
X791385Y-19743D01*
X791300Y-19655D01*
X791217Y-19565D01*
X791138Y-19472D01*
X791061Y-19376D01*
X790988Y-19278D01*
X790918Y-19178D01*
X790850Y-19076D01*
X790786Y-18972D01*
X790726Y-18865D01*
X790669Y-18757D01*
X790615Y-18647D01*
X790564Y-18536D01*
X790518Y-18423D01*
X790474Y-18308D01*
X790435Y-18193D01*
X790399Y-18076D01*
X790366Y-17958D01*
X790338Y-17839D01*
X790313Y-17719D01*
X790292Y-17598D01*
X790275Y-17477D01*
X790261Y-17356D01*
X790252Y-17234D01*
X790246Y-17111D01*
X790244Y-16989D01*
X790244Y-9200D01*
X790246Y-9078D01*
X790252Y-8955D01*
X790261Y-8833D01*
X790275Y-8712D01*
X790292Y-8591D01*
X790313Y-8470D01*
X790338Y-8350D01*
X790366Y-8231D01*
X790399Y-8113D01*
X790435Y-7996D01*
X790474Y-7881D01*
X790518Y-7766D01*
X790564Y-7653D01*
X790615Y-7542D01*
X790669Y-7432D01*
X790726Y-7324D01*
X790786Y-7217D01*
X790850Y-7113D01*
X790918Y-7011D01*
X790988Y-6911D01*
X791061Y-6813D01*
X791138Y-6717D01*
X791217Y-6624D01*
X791300Y-6534D01*
X791385Y-6446D01*
X791473Y-6361D01*
X791563Y-6278D01*
X791656Y-6199D01*
X791752Y-6122D01*
X791850Y-6049D01*
X791950Y-5979D01*
X792052Y-5911D01*
X792156Y-5847D01*
X792263Y-5787D01*
X792371Y-5730D01*
X792481Y-5676D01*
X792592Y-5625D01*
X792705Y-5579D01*
X792820Y-5535D01*
X792935Y-5496D01*
X793052Y-5460D01*
X793170Y-5427D01*
X793289Y-5399D01*
X793409Y-5374D01*
X793530Y-5353D01*
X793651Y-5336D01*
X793772Y-5322D01*
X793894Y-5313D01*
X794017Y-5307D01*
X794139Y-5305D01*
X800630Y-5305D01*
X778691Y-20884D02*
X772200Y-20884D01*
X778691Y-20884D02*
X778813Y-20882D01*
X778936Y-20876D01*
X779058Y-20867D01*
X779179Y-20853D01*
X779300Y-20836D01*
X779421Y-20815D01*
X779541Y-20790D01*
X779660Y-20762D01*
X779778Y-20729D01*
X779895Y-20693D01*
X780010Y-20654D01*
X780125Y-20610D01*
X780238Y-20564D01*
X780349Y-20513D01*
X780459Y-20459D01*
X780567Y-20402D01*
X780674Y-20342D01*
X780778Y-20278D01*
X780880Y-20210D01*
X780980Y-20140D01*
X781078Y-20067D01*
X781174Y-19990D01*
X781267Y-19911D01*
X781357Y-19828D01*
X781445Y-19743D01*
X781530Y-19655D01*
X781613Y-19565D01*
X781692Y-19472D01*
X781769Y-19376D01*
X781842Y-19278D01*
X781912Y-19178D01*
X781980Y-19076D01*
X782044Y-18972D01*
X782104Y-18865D01*
X782161Y-18757D01*
X782215Y-18647D01*
X782266Y-18536D01*
X782312Y-18423D01*
X782356Y-18308D01*
X782395Y-18193D01*
X782431Y-18076D01*
X782464Y-17958D01*
X782492Y-17839D01*
X782517Y-17719D01*
X782538Y-17598D01*
X782555Y-17477D01*
X782569Y-17356D01*
X782578Y-17234D01*
X782584Y-17111D01*
X782586Y-16989D01*
X782586Y-10498D01*
X782584Y-10355D01*
X782578Y-10212D01*
X782568Y-10069D01*
X782554Y-9927D01*
X782537Y-9785D01*
X782515Y-9643D01*
X782490Y-9502D01*
X782460Y-9362D01*
X782427Y-9223D01*
X782390Y-9085D01*
X782349Y-8948D01*
X782305Y-8812D01*
X782256Y-8677D01*
X782204Y-8544D01*
X782149Y-8412D01*
X782089Y-8282D01*
X782026Y-8153D01*
X781960Y-8026D01*
X781890Y-7902D01*
X781817Y-7779D01*
X781740Y-7658D01*
X781660Y-7539D01*
X781577Y-7423D01*
X781491Y-7308D01*
X781402Y-7197D01*
X781309Y-7087D01*
X781214Y-6981D01*
X781115Y-6877D01*
X781014Y-6776D01*
X780910Y-6677D01*
X780804Y-6582D01*
X780694Y-6489D01*
X780583Y-6400D01*
X780468Y-6314D01*
X780352Y-6231D01*
X780233Y-6151D01*
X780112Y-6074D01*
X779990Y-6001D01*
X779865Y-5931D01*
X779738Y-5865D01*
X779609Y-5802D01*
X779479Y-5742D01*
X779347Y-5687D01*
X779214Y-5635D01*
X779079Y-5586D01*
X778943Y-5542D01*
X778806Y-5501D01*
X778668Y-5464D01*
X778529Y-5431D01*
X778389Y-5401D01*
X778248Y-5376D01*
X778106Y-5354D01*
X777964Y-5337D01*
X777822Y-5323D01*
X777679Y-5313D01*
X777536Y-5307D01*
X777393Y-5305D01*
X777250Y-5307D01*
X777107Y-5313D01*
X776964Y-5323D01*
X776822Y-5337D01*
X776680Y-5354D01*
X776538Y-5376D01*
X776397Y-5401D01*
X776257Y-5431D01*
X776118Y-5464D01*
X775980Y-5501D01*
X775843Y-5542D01*
X775707Y-5586D01*
X775572Y-5635D01*
X775439Y-5687D01*
X775307Y-5742D01*
X775177Y-5802D01*
X775048Y-5865D01*
X774921Y-5931D01*
X774797Y-6001D01*
X774674Y-6074D01*
X774553Y-6151D01*
X774434Y-6231D01*
X774318Y-6314D01*
X774203Y-6400D01*
X774092Y-6489D01*
X773982Y-6582D01*
X773876Y-6677D01*
X773772Y-6776D01*
X773671Y-6877D01*
X773572Y-6981D01*
X773477Y-7087D01*
X773384Y-7197D01*
X773295Y-7308D01*
X773209Y-7423D01*
X773126Y-7539D01*
X773046Y-7658D01*
X772969Y-7779D01*
X772896Y-7901D01*
X772826Y-8026D01*
X772760Y-8153D01*
X772697Y-8282D01*
X772637Y-8412D01*
X772582Y-8544D01*
X772530Y-8677D01*
X772481Y-8812D01*
X772437Y-8948D01*
X772396Y-9085D01*
X772359Y-9223D01*
X772326Y-9362D01*
X772296Y-9502D01*
X772271Y-9643D01*
X772249Y-9785D01*
X772232Y-9927D01*
X772218Y-10069D01*
X772208Y-10212D01*
X772202Y-10355D01*
X772200Y-10498D01*
X772200Y-13095D01*
X782586Y-13095D01*
X752566Y-20884D02*
X752566Y2484D01*
X746075Y2484D01*
X745916Y2482D01*
X745757Y2476D01*
X745597Y2466D01*
X745439Y2453D01*
X745280Y2435D01*
X745123Y2414D01*
X744965Y2388D01*
X744809Y2359D01*
X744653Y2326D01*
X744498Y2289D01*
X744344Y2249D01*
X744191Y2204D01*
X744039Y2156D01*
X743888Y2105D01*
X743739Y2049D01*
X743591Y1990D01*
X743445Y1927D01*
X743300Y1861D01*
X743157Y1791D01*
X743015Y1718D01*
X742876Y1641D01*
X742738Y1561D01*
X742602Y1477D01*
X742469Y1390D01*
X742337Y1300D01*
X742208Y1207D01*
X742082Y1110D01*
X741957Y1011D01*
X741835Y908D01*
X741716Y803D01*
X741599Y694D01*
X741485Y583D01*
X741374Y469D01*
X741265Y352D01*
X741160Y233D01*
X741057Y111D01*
X740958Y-14D01*
X740861Y-140D01*
X740768Y-269D01*
X740678Y-401D01*
X740591Y-534D01*
X740507Y-670D01*
X740427Y-808D01*
X740350Y-947D01*
X740277Y-1089D01*
X740207Y-1232D01*
X740141Y-1377D01*
X740078Y-1523D01*
X740019Y-1671D01*
X739963Y-1820D01*
X739912Y-1971D01*
X739864Y-2123D01*
X739819Y-2276D01*
X739779Y-2430D01*
X739742Y-2585D01*
X739709Y-2741D01*
X739680Y-2897D01*
X739654Y-3055D01*
X739633Y-3212D01*
X739615Y-3371D01*
X739602Y-3529D01*
X739592Y-3689D01*
X739586Y-3848D01*
X739584Y-4007D01*
X739584Y-14393D01*
X739586Y-14552D01*
X739592Y-14711D01*
X739602Y-14871D01*
X739615Y-15029D01*
X739633Y-15188D01*
X739654Y-15345D01*
X739680Y-15503D01*
X739709Y-15659D01*
X739742Y-15815D01*
X739779Y-15970D01*
X739819Y-16124D01*
X739864Y-16277D01*
X739912Y-16429D01*
X739963Y-16580D01*
X740019Y-16729D01*
X740078Y-16877D01*
X740141Y-17023D01*
X740207Y-17168D01*
X740277Y-17311D01*
X740350Y-17453D01*
X740427Y-17592D01*
X740507Y-17730D01*
X740591Y-17866D01*
X740678Y-17999D01*
X740768Y-18131D01*
X740861Y-18260D01*
X740958Y-18386D01*
X741057Y-18511D01*
X741160Y-18633D01*
X741265Y-18752D01*
X741374Y-18869D01*
X741485Y-18983D01*
X741599Y-19094D01*
X741716Y-19203D01*
X741835Y-19308D01*
X741957Y-19411D01*
X742082Y-19510D01*
X742208Y-19607D01*
X742337Y-19700D01*
X742469Y-19790D01*
X742602Y-19877D01*
X742738Y-19961D01*
X742876Y-20041D01*
X743015Y-20118D01*
X743157Y-20191D01*
X743300Y-20261D01*
X743445Y-20327D01*
X743591Y-20390D01*
X743739Y-20449D01*
X743888Y-20505D01*
X744039Y-20556D01*
X744191Y-20605D01*
X744344Y-20649D01*
X744498Y-20689D01*
X744653Y-20726D01*
X744809Y-20759D01*
X744965Y-20788D01*
X745123Y-20814D01*
X745280Y-20835D01*
X745439Y-20853D01*
X745598Y-20866D01*
X745757Y-20876D01*
X745916Y-20882D01*
X746075Y-20884D01*
X752566Y-20884D01*
X730764Y-20884D02*
X730764Y-5305D01*
X731413Y1186D02*
X731413Y2484D01*
X730115Y2484D01*
X730115Y1186D01*
X731413Y1186D01*
X718839Y-20884D02*
X712348Y-20884D01*
X718839Y-20884D02*
X718961Y-20882D01*
X719084Y-20876D01*
X719206Y-20867D01*
X719327Y-20853D01*
X719448Y-20836D01*
X719569Y-20815D01*
X719689Y-20790D01*
X719808Y-20762D01*
X719926Y-20729D01*
X720043Y-20693D01*
X720158Y-20654D01*
X720273Y-20610D01*
X720386Y-20564D01*
X720497Y-20513D01*
X720607Y-20459D01*
X720715Y-20402D01*
X720822Y-20342D01*
X720926Y-20278D01*
X721028Y-20210D01*
X721128Y-20140D01*
X721226Y-20067D01*
X721322Y-19990D01*
X721415Y-19911D01*
X721505Y-19828D01*
X721593Y-19743D01*
X721678Y-19655D01*
X721761Y-19565D01*
X721840Y-19472D01*
X721917Y-19376D01*
X721990Y-19278D01*
X722060Y-19178D01*
X722128Y-19076D01*
X722192Y-18972D01*
X722252Y-18865D01*
X722309Y-18757D01*
X722363Y-18647D01*
X722414Y-18536D01*
X722460Y-18423D01*
X722504Y-18308D01*
X722543Y-18193D01*
X722579Y-18076D01*
X722612Y-17958D01*
X722640Y-17839D01*
X722665Y-17719D01*
X722686Y-17598D01*
X722703Y-17477D01*
X722717Y-17356D01*
X722726Y-17234D01*
X722732Y-17111D01*
X722734Y-16989D01*
X722734Y-10498D01*
X722732Y-10355D01*
X722726Y-10212D01*
X722716Y-10069D01*
X722702Y-9927D01*
X722685Y-9785D01*
X722663Y-9643D01*
X722638Y-9502D01*
X722608Y-9362D01*
X722575Y-9223D01*
X722538Y-9085D01*
X722497Y-8948D01*
X722453Y-8812D01*
X722404Y-8677D01*
X722352Y-8544D01*
X722297Y-8412D01*
X722237Y-8282D01*
X722174Y-8153D01*
X722108Y-8026D01*
X722038Y-7902D01*
X721965Y-7779D01*
X721888Y-7658D01*
X721808Y-7539D01*
X721725Y-7423D01*
X721639Y-7308D01*
X721550Y-7197D01*
X721457Y-7087D01*
X721362Y-6981D01*
X721263Y-6877D01*
X721162Y-6776D01*
X721058Y-6677D01*
X720952Y-6582D01*
X720842Y-6489D01*
X720731Y-6400D01*
X720616Y-6314D01*
X720500Y-6231D01*
X720381Y-6151D01*
X720260Y-6074D01*
X720138Y-6001D01*
X720013Y-5931D01*
X719886Y-5865D01*
X719757Y-5802D01*
X719627Y-5742D01*
X719495Y-5687D01*
X719362Y-5635D01*
X719227Y-5586D01*
X719091Y-5542D01*
X718954Y-5501D01*
X718816Y-5464D01*
X718677Y-5431D01*
X718537Y-5401D01*
X718396Y-5376D01*
X718254Y-5354D01*
X718112Y-5337D01*
X717970Y-5323D01*
X717827Y-5313D01*
X717684Y-5307D01*
X717541Y-5305D01*
X717398Y-5307D01*
X717255Y-5313D01*
X717112Y-5323D01*
X716970Y-5337D01*
X716828Y-5354D01*
X716686Y-5376D01*
X716545Y-5401D01*
X716405Y-5431D01*
X716266Y-5464D01*
X716128Y-5501D01*
X715991Y-5542D01*
X715855Y-5586D01*
X715720Y-5635D01*
X715587Y-5687D01*
X715455Y-5742D01*
X715325Y-5802D01*
X715196Y-5865D01*
X715069Y-5931D01*
X714945Y-6001D01*
X714822Y-6074D01*
X714701Y-6151D01*
X714582Y-6231D01*
X714466Y-6314D01*
X714351Y-6400D01*
X714240Y-6489D01*
X714130Y-6582D01*
X714024Y-6677D01*
X713920Y-6776D01*
X713819Y-6877D01*
X713720Y-6981D01*
X713625Y-7087D01*
X713532Y-7197D01*
X713443Y-7308D01*
X713357Y-7423D01*
X713274Y-7539D01*
X713194Y-7658D01*
X713117Y-7779D01*
X713044Y-7901D01*
X712974Y-8026D01*
X712908Y-8153D01*
X712845Y-8282D01*
X712785Y-8412D01*
X712730Y-8544D01*
X712678Y-8677D01*
X712629Y-8812D01*
X712585Y-8948D01*
X712544Y-9085D01*
X712507Y-9223D01*
X712474Y-9362D01*
X712444Y-9502D01*
X712419Y-9643D01*
X712397Y-9785D01*
X712380Y-9927D01*
X712366Y-10069D01*
X712356Y-10212D01*
X712350Y-10355D01*
X712348Y-10498D01*
X712348Y-13095D01*
X722734Y-13095D01*
X703879Y-20884D02*
X703879Y-5305D01*
X696090Y-5305D01*
X696090Y-7902D01*
X689702Y-5305D02*
X689702Y-20884D01*
X690352Y1186D02*
X690352Y2484D01*
X689053Y2484D01*
X689053Y1186D01*
X690352Y1186D01*
X677763Y-20884D02*
X672570Y-20884D01*
X677763Y-20884D02*
X677885Y-20882D01*
X678008Y-20876D01*
X678130Y-20867D01*
X678251Y-20853D01*
X678372Y-20836D01*
X678493Y-20815D01*
X678613Y-20790D01*
X678732Y-20762D01*
X678850Y-20729D01*
X678967Y-20693D01*
X679082Y-20654D01*
X679197Y-20610D01*
X679310Y-20564D01*
X679421Y-20513D01*
X679531Y-20459D01*
X679639Y-20402D01*
X679746Y-20342D01*
X679850Y-20278D01*
X679952Y-20210D01*
X680052Y-20140D01*
X680150Y-20067D01*
X680246Y-19990D01*
X680339Y-19911D01*
X680429Y-19828D01*
X680517Y-19743D01*
X680602Y-19655D01*
X680685Y-19565D01*
X680764Y-19472D01*
X680841Y-19376D01*
X680914Y-19278D01*
X680984Y-19178D01*
X681052Y-19076D01*
X681116Y-18972D01*
X681176Y-18865D01*
X681233Y-18757D01*
X681287Y-18647D01*
X681338Y-18536D01*
X681384Y-18423D01*
X681428Y-18308D01*
X681467Y-18193D01*
X681503Y-18076D01*
X681536Y-17958D01*
X681564Y-17839D01*
X681589Y-17719D01*
X681610Y-17598D01*
X681627Y-17477D01*
X681641Y-17356D01*
X681650Y-17234D01*
X681656Y-17111D01*
X681658Y-16989D01*
X681658Y-9200D01*
X681656Y-9078D01*
X681650Y-8955D01*
X681641Y-8833D01*
X681627Y-8712D01*
X681610Y-8591D01*
X681589Y-8470D01*
X681564Y-8350D01*
X681536Y-8231D01*
X681503Y-8113D01*
X681467Y-7996D01*
X681428Y-7881D01*
X681384Y-7766D01*
X681338Y-7653D01*
X681287Y-7542D01*
X681233Y-7432D01*
X681176Y-7324D01*
X681116Y-7217D01*
X681052Y-7113D01*
X680984Y-7011D01*
X680914Y-6911D01*
X680841Y-6813D01*
X680764Y-6717D01*
X680685Y-6624D01*
X680602Y-6534D01*
X680517Y-6446D01*
X680429Y-6361D01*
X680339Y-6278D01*
X680246Y-6199D01*
X680150Y-6122D01*
X680052Y-6049D01*
X679952Y-5979D01*
X679850Y-5911D01*
X679746Y-5847D01*
X679639Y-5787D01*
X679531Y-5730D01*
X679421Y-5676D01*
X679310Y-5625D01*
X679197Y-5579D01*
X679082Y-5535D01*
X678967Y-5496D01*
X678850Y-5460D01*
X678732Y-5427D01*
X678613Y-5399D01*
X678493Y-5374D01*
X678372Y-5353D01*
X678251Y-5336D01*
X678130Y-5322D01*
X678008Y-5313D01*
X677885Y-5307D01*
X677763Y-5305D01*
X672570Y-5305D01*
X664851Y2484D02*
X664851Y-20884D01*
X664851Y-13095D02*
X654465Y-5305D01*
X660307Y-9849D02*
X654465Y-20884D01*
X648266Y-20884D02*
X637880Y-5305D01*
X648266Y-5305D02*
X637880Y-20884D01*
X846002Y-41458D02*
X846004Y-41308D01*
X846010Y-41157D01*
X846019Y-41007D01*
X846033Y-40857D01*
X846050Y-40708D01*
X846072Y-40559D01*
X846097Y-40411D01*
X846126Y-40263D01*
X846158Y-40116D01*
X846195Y-39970D01*
X846235Y-39825D01*
X846279Y-39681D01*
X846326Y-39539D01*
X846378Y-39397D01*
X846432Y-39257D01*
X846491Y-39119D01*
X846553Y-38981D01*
X846618Y-38846D01*
X846687Y-38712D01*
X846760Y-38581D01*
X846836Y-38451D01*
X846915Y-38323D01*
X846997Y-38197D01*
X847083Y-38073D01*
X847171Y-37952D01*
X847263Y-37832D01*
X847358Y-37716D01*
X847456Y-37601D01*
X847557Y-37490D01*
X847660Y-37381D01*
X847767Y-37274D01*
X847876Y-37171D01*
X847987Y-37070D01*
X848102Y-36972D01*
X848218Y-36877D01*
X848338Y-36785D01*
X848459Y-36697D01*
X848583Y-36611D01*
X848709Y-36529D01*
X848837Y-36450D01*
X848967Y-36374D01*
X849098Y-36301D01*
X849232Y-36232D01*
X849367Y-36167D01*
X849505Y-36105D01*
X849643Y-36046D01*
X849783Y-35992D01*
X849925Y-35940D01*
X850067Y-35893D01*
X850211Y-35849D01*
X850356Y-35809D01*
X850502Y-35772D01*
X850649Y-35740D01*
X850797Y-35711D01*
X850945Y-35686D01*
X851094Y-35664D01*
X851243Y-35647D01*
X851393Y-35633D01*
X851543Y-35624D01*
X851694Y-35618D01*
X851844Y-35616D01*
X852025Y-35618D01*
X852207Y-35625D01*
X852388Y-35636D01*
X852569Y-35651D01*
X852749Y-35671D01*
X852929Y-35695D01*
X853108Y-35723D01*
X853287Y-35756D01*
X853465Y-35793D01*
X853641Y-35834D01*
X853817Y-35880D01*
X853992Y-35930D01*
X854165Y-35984D01*
X854337Y-36042D01*
X854507Y-36104D01*
X854676Y-36171D01*
X854843Y-36241D01*
X855009Y-36316D01*
X855173Y-36394D01*
X855334Y-36477D01*
X855494Y-36563D01*
X855651Y-36653D01*
X855807Y-36747D01*
X855960Y-36845D01*
X856110Y-36946D01*
X856258Y-37051D01*
X856404Y-37160D01*
X856547Y-37272D01*
X856687Y-37387D01*
X856824Y-37506D01*
X856958Y-37628D01*
X857090Y-37754D01*
X857218Y-37882D01*
X857343Y-38013D01*
X857465Y-38148D01*
X857583Y-38285D01*
X857699Y-38425D01*
X857811Y-38568D01*
X857919Y-38714D01*
X858024Y-38862D01*
X858125Y-39013D01*
X858222Y-39166D01*
X858316Y-39321D01*
X858406Y-39479D01*
X858492Y-39639D01*
X858575Y-39801D01*
X858653Y-39964D01*
X858727Y-40130D01*
X858798Y-40297D01*
X858864Y-40466D01*
X858926Y-40637D01*
X858984Y-40809D01*
X847948Y-46002D02*
X847838Y-45894D01*
X847731Y-45784D01*
X847626Y-45671D01*
X847524Y-45556D01*
X847425Y-45438D01*
X847329Y-45318D01*
X847235Y-45195D01*
X847145Y-45071D01*
X847058Y-44944D01*
X846974Y-44815D01*
X846893Y-44683D01*
X846816Y-44550D01*
X846742Y-44416D01*
X846671Y-44279D01*
X846603Y-44140D01*
X846539Y-44000D01*
X846478Y-43859D01*
X846421Y-43716D01*
X846368Y-43572D01*
X846318Y-43426D01*
X846271Y-43279D01*
X846228Y-43131D01*
X846189Y-42982D01*
X846153Y-42833D01*
X846122Y-42682D01*
X846093Y-42531D01*
X846069Y-42379D01*
X846048Y-42226D01*
X846031Y-42073D01*
X846018Y-41920D01*
X846009Y-41766D01*
X846003Y-41612D01*
X846001Y-41458D01*
X847949Y-46002D02*
X858984Y-58984D01*
X846002Y-58984D01*
X838105Y-58984D02*
X831614Y-58984D01*
X831455Y-58982D01*
X831296Y-58976D01*
X831136Y-58966D01*
X830978Y-58953D01*
X830819Y-58935D01*
X830662Y-58914D01*
X830504Y-58888D01*
X830348Y-58859D01*
X830192Y-58826D01*
X830037Y-58789D01*
X829883Y-58749D01*
X829730Y-58704D01*
X829578Y-58656D01*
X829427Y-58605D01*
X829278Y-58549D01*
X829130Y-58490D01*
X828984Y-58427D01*
X828839Y-58361D01*
X828696Y-58291D01*
X828554Y-58218D01*
X828415Y-58141D01*
X828277Y-58061D01*
X828141Y-57977D01*
X828008Y-57890D01*
X827876Y-57800D01*
X827747Y-57707D01*
X827621Y-57610D01*
X827496Y-57511D01*
X827374Y-57408D01*
X827255Y-57303D01*
X827138Y-57194D01*
X827024Y-57083D01*
X826913Y-56969D01*
X826804Y-56852D01*
X826699Y-56733D01*
X826596Y-56611D01*
X826497Y-56486D01*
X826400Y-56360D01*
X826307Y-56231D01*
X826217Y-56099D01*
X826130Y-55966D01*
X826046Y-55830D01*
X825966Y-55692D01*
X825889Y-55553D01*
X825816Y-55411D01*
X825746Y-55268D01*
X825680Y-55123D01*
X825617Y-54977D01*
X825558Y-54829D01*
X825502Y-54680D01*
X825451Y-54529D01*
X825403Y-54377D01*
X825358Y-54224D01*
X825318Y-54070D01*
X825281Y-53915D01*
X825248Y-53759D01*
X825219Y-53603D01*
X825193Y-53445D01*
X825172Y-53288D01*
X825154Y-53129D01*
X825141Y-52971D01*
X825131Y-52811D01*
X825125Y-52652D01*
X825123Y-52493D01*
X825125Y-52334D01*
X825131Y-52175D01*
X825141Y-52015D01*
X825154Y-51857D01*
X825172Y-51698D01*
X825193Y-51541D01*
X825219Y-51383D01*
X825248Y-51227D01*
X825281Y-51071D01*
X825318Y-50916D01*
X825358Y-50762D01*
X825403Y-50609D01*
X825451Y-50457D01*
X825502Y-50306D01*
X825558Y-50157D01*
X825617Y-50009D01*
X825680Y-49863D01*
X825746Y-49718D01*
X825816Y-49575D01*
X825889Y-49433D01*
X825966Y-49294D01*
X826046Y-49156D01*
X826130Y-49020D01*
X826217Y-48887D01*
X826307Y-48755D01*
X826400Y-48626D01*
X826497Y-48500D01*
X826596Y-48375D01*
X826699Y-48253D01*
X826804Y-48134D01*
X826913Y-48017D01*
X827024Y-47903D01*
X827138Y-47792D01*
X827255Y-47683D01*
X827374Y-47578D01*
X827496Y-47475D01*
X827621Y-47376D01*
X827747Y-47279D01*
X827876Y-47186D01*
X828008Y-47096D01*
X828141Y-47009D01*
X828277Y-46925D01*
X828415Y-46845D01*
X828554Y-46768D01*
X828696Y-46695D01*
X828839Y-46625D01*
X828984Y-46559D01*
X829130Y-46496D01*
X829278Y-46437D01*
X829427Y-46381D01*
X829578Y-46330D01*
X829730Y-46282D01*
X829883Y-46237D01*
X830037Y-46197D01*
X830192Y-46160D01*
X830348Y-46127D01*
X830504Y-46098D01*
X830662Y-46072D01*
X830819Y-46051D01*
X830978Y-46033D01*
X831136Y-46020D01*
X831296Y-46010D01*
X831455Y-46004D01*
X831614Y-46002D01*
X830316Y-35616D02*
X838105Y-35616D01*
X830316Y-35616D02*
X830173Y-35618D01*
X830030Y-35624D01*
X829887Y-35634D01*
X829745Y-35648D01*
X829603Y-35665D01*
X829461Y-35687D01*
X829320Y-35712D01*
X829180Y-35742D01*
X829041Y-35775D01*
X828903Y-35812D01*
X828766Y-35853D01*
X828630Y-35897D01*
X828495Y-35946D01*
X828362Y-35998D01*
X828230Y-36053D01*
X828100Y-36113D01*
X827971Y-36176D01*
X827844Y-36242D01*
X827720Y-36312D01*
X827597Y-36385D01*
X827476Y-36462D01*
X827357Y-36542D01*
X827241Y-36625D01*
X827126Y-36711D01*
X827015Y-36800D01*
X826905Y-36893D01*
X826799Y-36988D01*
X826695Y-37087D01*
X826594Y-37188D01*
X826495Y-37292D01*
X826400Y-37398D01*
X826307Y-37508D01*
X826218Y-37619D01*
X826132Y-37734D01*
X826049Y-37850D01*
X825969Y-37969D01*
X825892Y-38090D01*
X825819Y-38212D01*
X825749Y-38337D01*
X825683Y-38464D01*
X825620Y-38593D01*
X825560Y-38723D01*
X825505Y-38855D01*
X825453Y-38988D01*
X825404Y-39123D01*
X825360Y-39259D01*
X825319Y-39396D01*
X825282Y-39534D01*
X825249Y-39673D01*
X825219Y-39813D01*
X825194Y-39954D01*
X825172Y-40096D01*
X825155Y-40238D01*
X825141Y-40380D01*
X825131Y-40523D01*
X825125Y-40666D01*
X825123Y-40809D01*
X825125Y-40952D01*
X825131Y-41095D01*
X825141Y-41238D01*
X825155Y-41380D01*
X825172Y-41522D01*
X825194Y-41664D01*
X825219Y-41805D01*
X825249Y-41945D01*
X825282Y-42084D01*
X825319Y-42222D01*
X825360Y-42359D01*
X825404Y-42495D01*
X825453Y-42630D01*
X825505Y-42763D01*
X825560Y-42895D01*
X825620Y-43025D01*
X825683Y-43154D01*
X825749Y-43281D01*
X825819Y-43405D01*
X825892Y-43528D01*
X825969Y-43649D01*
X826049Y-43768D01*
X826132Y-43884D01*
X826218Y-43999D01*
X826307Y-44110D01*
X826400Y-44220D01*
X826495Y-44326D01*
X826594Y-44430D01*
X826695Y-44531D01*
X826799Y-44630D01*
X826905Y-44725D01*
X827015Y-44818D01*
X827126Y-44907D01*
X827241Y-44993D01*
X827357Y-45076D01*
X827476Y-45156D01*
X827597Y-45233D01*
X827719Y-45306D01*
X827844Y-45376D01*
X827971Y-45442D01*
X828100Y-45505D01*
X828230Y-45565D01*
X828362Y-45620D01*
X828495Y-45672D01*
X828630Y-45721D01*
X828766Y-45765D01*
X828903Y-45806D01*
X829041Y-45843D01*
X829180Y-45876D01*
X829320Y-45906D01*
X829461Y-45931D01*
X829603Y-45953D01*
X829745Y-45970D01*
X829887Y-45984D01*
X830030Y-45994D01*
X830173Y-46000D01*
X830316Y-46002D01*
X835509Y-46002D01*
X818016Y-61580D02*
X807630Y-33020D01*
X798576Y-38862D02*
X798772Y-39277D01*
X798959Y-39697D01*
X799135Y-40122D01*
X799301Y-40551D01*
X799457Y-40983D01*
X799603Y-41419D01*
X799738Y-41858D01*
X799863Y-42301D01*
X799977Y-42746D01*
X800080Y-43194D01*
X800173Y-43644D01*
X800255Y-44097D01*
X800326Y-44551D01*
X800386Y-45007D01*
X800435Y-45464D01*
X800474Y-45922D01*
X800501Y-46381D01*
X800518Y-46840D01*
X800523Y-47300D01*
X798575Y-38861D02*
X798530Y-38734D01*
X798480Y-38608D01*
X798428Y-38483D01*
X798371Y-38360D01*
X798311Y-38238D01*
X798248Y-38119D01*
X798182Y-38001D01*
X798112Y-37885D01*
X798039Y-37771D01*
X797963Y-37659D01*
X797883Y-37549D01*
X797801Y-37442D01*
X797715Y-37337D01*
X797627Y-37234D01*
X797536Y-37134D01*
X797442Y-37036D01*
X797345Y-36942D01*
X797246Y-36850D01*
X797144Y-36760D01*
X797040Y-36674D01*
X796933Y-36591D01*
X796824Y-36511D01*
X796712Y-36434D01*
X796599Y-36360D01*
X796484Y-36289D01*
X796366Y-36221D01*
X796247Y-36157D01*
X796126Y-36096D01*
X796003Y-36039D01*
X795879Y-35985D01*
X795753Y-35935D01*
X795626Y-35888D01*
X795498Y-35845D01*
X795368Y-35806D01*
X795238Y-35770D01*
X795106Y-35738D01*
X794974Y-35709D01*
X794841Y-35685D01*
X794707Y-35664D01*
X794573Y-35647D01*
X794438Y-35633D01*
X794303Y-35624D01*
X794167Y-35618D01*
X794032Y-35616D01*
X793897Y-35618D01*
X793761Y-35624D01*
X793626Y-35633D01*
X793492Y-35647D01*
X793357Y-35664D01*
X793223Y-35685D01*
X793090Y-35709D01*
X792958Y-35738D01*
X792826Y-35770D01*
X792696Y-35806D01*
X792566Y-35845D01*
X792438Y-35888D01*
X792311Y-35935D01*
X792185Y-35985D01*
X792061Y-36039D01*
X791938Y-36096D01*
X791817Y-36157D01*
X791698Y-36221D01*
X791580Y-36289D01*
X791465Y-36360D01*
X791352Y-36433D01*
X791240Y-36511D01*
X791131Y-36591D01*
X791024Y-36674D01*
X790920Y-36760D01*
X790818Y-36850D01*
X790719Y-36942D01*
X790622Y-37036D01*
X790528Y-37134D01*
X790437Y-37234D01*
X790349Y-37337D01*
X790263Y-37442D01*
X790181Y-37549D01*
X790101Y-37659D01*
X790025Y-37771D01*
X789952Y-37885D01*
X789882Y-38001D01*
X789816Y-38119D01*
X789753Y-38238D01*
X789693Y-38360D01*
X789636Y-38483D01*
X789584Y-38608D01*
X789534Y-38734D01*
X789489Y-38861D01*
X789488Y-38861D02*
X789292Y-39277D01*
X789105Y-39697D01*
X788929Y-40122D01*
X788763Y-40550D01*
X788607Y-40983D01*
X788461Y-41419D01*
X788326Y-41858D01*
X788201Y-42301D01*
X788087Y-42746D01*
X787984Y-43194D01*
X787891Y-43644D01*
X787809Y-44097D01*
X787738Y-44551D01*
X787678Y-45007D01*
X787629Y-45464D01*
X787590Y-45922D01*
X787563Y-46381D01*
X787546Y-46840D01*
X787541Y-47300D01*
X800523Y-47300D02*
X800518Y-47760D01*
X800501Y-48219D01*
X800474Y-48678D01*
X800435Y-49136D01*
X800386Y-49593D01*
X800326Y-50049D01*
X800255Y-50503D01*
X800173Y-50956D01*
X800080Y-51406D01*
X799977Y-51854D01*
X799863Y-52299D01*
X799738Y-52742D01*
X799603Y-53181D01*
X799457Y-53617D01*
X799301Y-54049D01*
X799135Y-54478D01*
X798959Y-54903D01*
X798772Y-55323D01*
X798576Y-55738D01*
X798575Y-55739D02*
X798530Y-55866D01*
X798480Y-55992D01*
X798428Y-56117D01*
X798371Y-56240D01*
X798311Y-56362D01*
X798248Y-56481D01*
X798182Y-56599D01*
X798112Y-56715D01*
X798039Y-56829D01*
X797963Y-56941D01*
X797883Y-57051D01*
X797801Y-57158D01*
X797715Y-57263D01*
X797627Y-57366D01*
X797536Y-57466D01*
X797442Y-57564D01*
X797345Y-57658D01*
X797246Y-57750D01*
X797144Y-57840D01*
X797039Y-57926D01*
X796933Y-58009D01*
X796824Y-58089D01*
X796712Y-58167D01*
X796599Y-58240D01*
X796484Y-58311D01*
X796366Y-58379D01*
X796247Y-58443D01*
X796126Y-58504D01*
X796003Y-58561D01*
X795879Y-58615D01*
X795753Y-58665D01*
X795626Y-58712D01*
X795498Y-58755D01*
X795368Y-58794D01*
X795238Y-58830D01*
X795106Y-58862D01*
X794974Y-58891D01*
X794841Y-58915D01*
X794707Y-58936D01*
X794572Y-58953D01*
X794438Y-58967D01*
X794303Y-58976D01*
X794167Y-58982D01*
X794032Y-58984D01*
X789488Y-55739D02*
X789292Y-55323D01*
X789105Y-54903D01*
X788929Y-54478D01*
X788763Y-54050D01*
X788607Y-53617D01*
X788461Y-53181D01*
X788326Y-52742D01*
X788201Y-52299D01*
X788087Y-51854D01*
X787984Y-51406D01*
X787891Y-50956D01*
X787809Y-50503D01*
X787738Y-50049D01*
X787678Y-49593D01*
X787629Y-49136D01*
X787590Y-48678D01*
X787563Y-48219D01*
X787546Y-47760D01*
X787541Y-47300D01*
X789489Y-55739D02*
X789534Y-55866D01*
X789584Y-55992D01*
X789636Y-56117D01*
X789693Y-56240D01*
X789753Y-56362D01*
X789816Y-56481D01*
X789882Y-56599D01*
X789952Y-56715D01*
X790025Y-56829D01*
X790101Y-56941D01*
X790181Y-57051D01*
X790263Y-57158D01*
X790349Y-57263D01*
X790437Y-57366D01*
X790528Y-57466D01*
X790622Y-57564D01*
X790719Y-57658D01*
X790818Y-57750D01*
X790920Y-57840D01*
X791025Y-57926D01*
X791131Y-58009D01*
X791240Y-58089D01*
X791352Y-58167D01*
X791465Y-58240D01*
X791580Y-58311D01*
X791698Y-58379D01*
X791817Y-58443D01*
X791938Y-58504D01*
X792061Y-58561D01*
X792185Y-58615D01*
X792311Y-58665D01*
X792438Y-58712D01*
X792566Y-58755D01*
X792696Y-58794D01*
X792826Y-58830D01*
X792958Y-58862D01*
X793090Y-58891D01*
X793223Y-58915D01*
X793357Y-58936D01*
X793492Y-58953D01*
X793626Y-58967D01*
X793761Y-58976D01*
X793897Y-58982D01*
X794032Y-58984D01*
X799225Y-53791D02*
X788839Y-40809D01*
X774452Y-35616D02*
X779645Y-53791D01*
X766662Y-53791D01*
X770557Y-48598D02*
X770557Y-58984D01*
X759556Y-61580D02*
X749170Y-33020D01*
X734923Y-35616D02*
X734773Y-35618D01*
X734622Y-35624D01*
X734472Y-35633D01*
X734322Y-35647D01*
X734173Y-35664D01*
X734024Y-35686D01*
X733876Y-35711D01*
X733728Y-35740D01*
X733581Y-35772D01*
X733435Y-35809D01*
X733290Y-35849D01*
X733146Y-35893D01*
X733004Y-35940D01*
X732862Y-35992D01*
X732722Y-36046D01*
X732584Y-36105D01*
X732446Y-36167D01*
X732311Y-36232D01*
X732177Y-36301D01*
X732046Y-36374D01*
X731916Y-36450D01*
X731788Y-36529D01*
X731662Y-36611D01*
X731538Y-36697D01*
X731417Y-36785D01*
X731297Y-36877D01*
X731181Y-36972D01*
X731066Y-37070D01*
X730955Y-37171D01*
X730846Y-37274D01*
X730739Y-37381D01*
X730636Y-37490D01*
X730535Y-37601D01*
X730437Y-37716D01*
X730342Y-37832D01*
X730250Y-37952D01*
X730162Y-38073D01*
X730076Y-38197D01*
X729994Y-38323D01*
X729915Y-38451D01*
X729839Y-38581D01*
X729766Y-38712D01*
X729697Y-38846D01*
X729632Y-38981D01*
X729570Y-39119D01*
X729511Y-39257D01*
X729457Y-39397D01*
X729405Y-39539D01*
X729358Y-39681D01*
X729314Y-39825D01*
X729274Y-39970D01*
X729237Y-40116D01*
X729205Y-40263D01*
X729176Y-40411D01*
X729151Y-40559D01*
X729129Y-40708D01*
X729112Y-40857D01*
X729098Y-41007D01*
X729089Y-41157D01*
X729083Y-41308D01*
X729081Y-41458D01*
X734923Y-35616D02*
X735104Y-35618D01*
X735286Y-35625D01*
X735467Y-35636D01*
X735648Y-35651D01*
X735828Y-35671D01*
X736008Y-35695D01*
X736187Y-35723D01*
X736366Y-35756D01*
X736544Y-35793D01*
X736720Y-35834D01*
X736896Y-35880D01*
X737071Y-35930D01*
X737244Y-35984D01*
X737416Y-36042D01*
X737586Y-36104D01*
X737755Y-36171D01*
X737922Y-36241D01*
X738088Y-36316D01*
X738252Y-36394D01*
X738413Y-36477D01*
X738573Y-36563D01*
X738730Y-36653D01*
X738886Y-36747D01*
X739039Y-36845D01*
X739189Y-36946D01*
X739337Y-37051D01*
X739483Y-37160D01*
X739626Y-37272D01*
X739766Y-37387D01*
X739903Y-37506D01*
X740037Y-37628D01*
X740169Y-37754D01*
X740297Y-37882D01*
X740422Y-38013D01*
X740544Y-38148D01*
X740662Y-38285D01*
X740778Y-38425D01*
X740890Y-38568D01*
X740998Y-38714D01*
X741103Y-38862D01*
X741204Y-39013D01*
X741301Y-39166D01*
X741395Y-39321D01*
X741485Y-39479D01*
X741571Y-39639D01*
X741654Y-39801D01*
X741732Y-39964D01*
X741806Y-40130D01*
X741877Y-40297D01*
X741943Y-40466D01*
X742005Y-40637D01*
X742063Y-40809D01*
X731027Y-46002D02*
X730917Y-45894D01*
X730810Y-45784D01*
X730705Y-45671D01*
X730603Y-45556D01*
X730504Y-45438D01*
X730408Y-45318D01*
X730314Y-45195D01*
X730224Y-45071D01*
X730137Y-44944D01*
X730053Y-44815D01*
X729972Y-44683D01*
X729895Y-44550D01*
X729821Y-44416D01*
X729750Y-44279D01*
X729682Y-44140D01*
X729618Y-44000D01*
X729557Y-43859D01*
X729500Y-43716D01*
X729447Y-43572D01*
X729397Y-43426D01*
X729350Y-43279D01*
X729307Y-43131D01*
X729268Y-42982D01*
X729232Y-42833D01*
X729201Y-42682D01*
X729172Y-42531D01*
X729148Y-42379D01*
X729127Y-42226D01*
X729110Y-42073D01*
X729097Y-41920D01*
X729088Y-41766D01*
X729082Y-41612D01*
X729080Y-41458D01*
X731028Y-46002D02*
X742063Y-58984D01*
X729081Y-58984D01*
X721184Y-47300D02*
X721179Y-46840D01*
X721162Y-46381D01*
X721135Y-45922D01*
X721096Y-45464D01*
X721047Y-45007D01*
X720987Y-44551D01*
X720916Y-44097D01*
X720834Y-43644D01*
X720741Y-43194D01*
X720638Y-42746D01*
X720524Y-42301D01*
X720399Y-41858D01*
X720264Y-41419D01*
X720118Y-40983D01*
X719962Y-40551D01*
X719796Y-40122D01*
X719620Y-39697D01*
X719433Y-39277D01*
X719237Y-38862D01*
X719236Y-38861D02*
X719191Y-38734D01*
X719141Y-38608D01*
X719089Y-38483D01*
X719032Y-38360D01*
X718972Y-38238D01*
X718909Y-38119D01*
X718843Y-38001D01*
X718773Y-37885D01*
X718700Y-37771D01*
X718624Y-37659D01*
X718544Y-37549D01*
X718462Y-37442D01*
X718376Y-37337D01*
X718288Y-37234D01*
X718197Y-37134D01*
X718103Y-37036D01*
X718006Y-36942D01*
X717907Y-36850D01*
X717805Y-36760D01*
X717701Y-36674D01*
X717594Y-36591D01*
X717485Y-36511D01*
X717373Y-36434D01*
X717260Y-36360D01*
X717145Y-36289D01*
X717027Y-36221D01*
X716908Y-36157D01*
X716787Y-36096D01*
X716664Y-36039D01*
X716540Y-35985D01*
X716414Y-35935D01*
X716287Y-35888D01*
X716159Y-35845D01*
X716029Y-35806D01*
X715899Y-35770D01*
X715767Y-35738D01*
X715635Y-35709D01*
X715502Y-35685D01*
X715368Y-35664D01*
X715234Y-35647D01*
X715099Y-35633D01*
X714964Y-35624D01*
X714828Y-35618D01*
X714693Y-35616D01*
X714558Y-35618D01*
X714422Y-35624D01*
X714287Y-35633D01*
X714153Y-35647D01*
X714018Y-35664D01*
X713884Y-35685D01*
X713751Y-35709D01*
X713619Y-35738D01*
X713487Y-35770D01*
X713357Y-35806D01*
X713227Y-35845D01*
X713099Y-35888D01*
X712972Y-35935D01*
X712846Y-35985D01*
X712722Y-36039D01*
X712599Y-36096D01*
X712478Y-36157D01*
X712359Y-36221D01*
X712241Y-36289D01*
X712126Y-36360D01*
X712013Y-36433D01*
X711901Y-36511D01*
X711792Y-36591D01*
X711685Y-36674D01*
X711581Y-36760D01*
X711479Y-36850D01*
X711380Y-36942D01*
X711283Y-37036D01*
X711189Y-37134D01*
X711098Y-37234D01*
X711010Y-37337D01*
X710924Y-37442D01*
X710842Y-37549D01*
X710762Y-37659D01*
X710686Y-37771D01*
X710613Y-37885D01*
X710543Y-38001D01*
X710477Y-38119D01*
X710414Y-38238D01*
X710354Y-38360D01*
X710297Y-38483D01*
X710245Y-38608D01*
X710195Y-38734D01*
X710150Y-38861D01*
X710149Y-38861D02*
X709953Y-39277D01*
X709766Y-39697D01*
X709590Y-40122D01*
X709424Y-40550D01*
X709268Y-40983D01*
X709122Y-41419D01*
X708987Y-41858D01*
X708862Y-42301D01*
X708748Y-42746D01*
X708645Y-43194D01*
X708552Y-43644D01*
X708470Y-44097D01*
X708399Y-44551D01*
X708339Y-45007D01*
X708290Y-45464D01*
X708251Y-45922D01*
X708224Y-46381D01*
X708207Y-46840D01*
X708202Y-47300D01*
X721184Y-47300D02*
X721179Y-47760D01*
X721162Y-48219D01*
X721135Y-48678D01*
X721096Y-49136D01*
X721047Y-49593D01*
X720987Y-50049D01*
X720916Y-50503D01*
X720834Y-50956D01*
X720741Y-51406D01*
X720638Y-51854D01*
X720524Y-52299D01*
X720399Y-52742D01*
X720264Y-53181D01*
X720118Y-53617D01*
X719962Y-54049D01*
X719796Y-54478D01*
X719620Y-54903D01*
X719433Y-55323D01*
X719237Y-55738D01*
X719236Y-55739D02*
X719191Y-55866D01*
X719141Y-55992D01*
X719089Y-56117D01*
X719032Y-56240D01*
X718972Y-56362D01*
X718909Y-56481D01*
X718843Y-56599D01*
X718773Y-56715D01*
X718700Y-56829D01*
X718624Y-56941D01*
X718544Y-57051D01*
X718462Y-57158D01*
X718376Y-57263D01*
X718288Y-57366D01*
X718197Y-57466D01*
X718103Y-57564D01*
X718006Y-57658D01*
X717907Y-57750D01*
X717805Y-57840D01*
X717700Y-57926D01*
X717594Y-58009D01*
X717485Y-58089D01*
X717373Y-58167D01*
X717260Y-58240D01*
X717145Y-58311D01*
X717027Y-58379D01*
X716908Y-58443D01*
X716787Y-58504D01*
X716664Y-58561D01*
X716540Y-58615D01*
X716414Y-58665D01*
X716287Y-58712D01*
X716159Y-58755D01*
X716029Y-58794D01*
X715899Y-58830D01*
X715767Y-58862D01*
X715635Y-58891D01*
X715502Y-58915D01*
X715368Y-58936D01*
X715233Y-58953D01*
X715099Y-58967D01*
X714964Y-58976D01*
X714828Y-58982D01*
X714693Y-58984D01*
X710149Y-55739D02*
X709953Y-55323D01*
X709766Y-54903D01*
X709590Y-54478D01*
X709424Y-54050D01*
X709268Y-53617D01*
X709122Y-53181D01*
X708987Y-52742D01*
X708862Y-52299D01*
X708748Y-51854D01*
X708645Y-51406D01*
X708552Y-50956D01*
X708470Y-50503D01*
X708399Y-50049D01*
X708339Y-49593D01*
X708290Y-49136D01*
X708251Y-48678D01*
X708224Y-48219D01*
X708207Y-47760D01*
X708202Y-47300D01*
X710150Y-55739D02*
X710195Y-55866D01*
X710245Y-55992D01*
X710297Y-56117D01*
X710354Y-56240D01*
X710414Y-56362D01*
X710477Y-56481D01*
X710543Y-56599D01*
X710613Y-56715D01*
X710686Y-56829D01*
X710762Y-56941D01*
X710842Y-57051D01*
X710924Y-57158D01*
X711010Y-57263D01*
X711098Y-57366D01*
X711189Y-57466D01*
X711283Y-57564D01*
X711380Y-57658D01*
X711479Y-57750D01*
X711581Y-57840D01*
X711686Y-57926D01*
X711792Y-58009D01*
X711901Y-58089D01*
X712013Y-58167D01*
X712126Y-58240D01*
X712241Y-58311D01*
X712359Y-58379D01*
X712478Y-58443D01*
X712599Y-58504D01*
X712722Y-58561D01*
X712846Y-58615D01*
X712972Y-58665D01*
X713099Y-58712D01*
X713227Y-58755D01*
X713357Y-58794D01*
X713487Y-58830D01*
X713619Y-58862D01*
X713751Y-58891D01*
X713884Y-58915D01*
X714018Y-58936D01*
X714153Y-58953D01*
X714287Y-58967D01*
X714422Y-58976D01*
X714558Y-58982D01*
X714693Y-58984D01*
X719886Y-53791D02*
X709500Y-40809D01*
X700305Y-40809D02*
X693814Y-35616D01*
X693814Y-58984D01*
X700305Y-58984D02*
X687323Y-58984D01*
X674234Y-48598D02*
X666444Y-48598D01*
X674234Y-48598D02*
X674377Y-48596D01*
X674520Y-48590D01*
X674663Y-48580D01*
X674805Y-48566D01*
X674947Y-48549D01*
X675089Y-48527D01*
X675230Y-48502D01*
X675370Y-48472D01*
X675509Y-48439D01*
X675647Y-48402D01*
X675784Y-48361D01*
X675920Y-48317D01*
X676055Y-48268D01*
X676188Y-48216D01*
X676320Y-48161D01*
X676450Y-48101D01*
X676579Y-48038D01*
X676706Y-47972D01*
X676831Y-47902D01*
X676953Y-47829D01*
X677074Y-47752D01*
X677193Y-47672D01*
X677309Y-47589D01*
X677424Y-47503D01*
X677535Y-47414D01*
X677645Y-47321D01*
X677751Y-47226D01*
X677855Y-47127D01*
X677956Y-47026D01*
X678055Y-46922D01*
X678150Y-46816D01*
X678243Y-46706D01*
X678332Y-46595D01*
X678418Y-46480D01*
X678501Y-46364D01*
X678581Y-46245D01*
X678658Y-46124D01*
X678731Y-46002D01*
X678801Y-45877D01*
X678867Y-45750D01*
X678930Y-45621D01*
X678990Y-45491D01*
X679045Y-45359D01*
X679097Y-45226D01*
X679146Y-45091D01*
X679190Y-44955D01*
X679231Y-44818D01*
X679268Y-44680D01*
X679301Y-44541D01*
X679331Y-44401D01*
X679356Y-44260D01*
X679378Y-44118D01*
X679395Y-43976D01*
X679409Y-43834D01*
X679419Y-43691D01*
X679425Y-43548D01*
X679427Y-43405D01*
X679427Y-42107D01*
X679426Y-42107D02*
X679424Y-41948D01*
X679418Y-41789D01*
X679408Y-41629D01*
X679395Y-41471D01*
X679377Y-41312D01*
X679356Y-41155D01*
X679330Y-40997D01*
X679301Y-40841D01*
X679268Y-40685D01*
X679231Y-40530D01*
X679191Y-40376D01*
X679146Y-40223D01*
X679098Y-40071D01*
X679047Y-39920D01*
X678991Y-39771D01*
X678932Y-39623D01*
X678869Y-39477D01*
X678803Y-39332D01*
X678733Y-39189D01*
X678660Y-39047D01*
X678583Y-38908D01*
X678503Y-38770D01*
X678419Y-38634D01*
X678332Y-38501D01*
X678242Y-38369D01*
X678149Y-38240D01*
X678052Y-38114D01*
X677953Y-37989D01*
X677850Y-37867D01*
X677745Y-37748D01*
X677636Y-37631D01*
X677525Y-37517D01*
X677411Y-37406D01*
X677294Y-37297D01*
X677175Y-37192D01*
X677053Y-37089D01*
X676928Y-36990D01*
X676802Y-36893D01*
X676673Y-36800D01*
X676541Y-36710D01*
X676408Y-36623D01*
X676272Y-36539D01*
X676134Y-36459D01*
X675995Y-36382D01*
X675853Y-36309D01*
X675710Y-36239D01*
X675565Y-36173D01*
X675419Y-36110D01*
X675271Y-36051D01*
X675122Y-35995D01*
X674971Y-35944D01*
X674819Y-35896D01*
X674666Y-35851D01*
X674512Y-35811D01*
X674357Y-35774D01*
X674201Y-35741D01*
X674045Y-35712D01*
X673887Y-35686D01*
X673730Y-35665D01*
X673571Y-35647D01*
X673413Y-35634D01*
X673253Y-35624D01*
X673094Y-35618D01*
X672935Y-35616D01*
X672776Y-35618D01*
X672617Y-35624D01*
X672457Y-35634D01*
X672299Y-35647D01*
X672140Y-35665D01*
X671983Y-35686D01*
X671825Y-35712D01*
X671669Y-35741D01*
X671513Y-35774D01*
X671358Y-35811D01*
X671204Y-35851D01*
X671051Y-35896D01*
X670899Y-35944D01*
X670748Y-35995D01*
X670599Y-36051D01*
X670451Y-36110D01*
X670305Y-36173D01*
X670160Y-36239D01*
X670017Y-36309D01*
X669875Y-36382D01*
X669736Y-36459D01*
X669598Y-36539D01*
X669462Y-36623D01*
X669329Y-36710D01*
X669197Y-36800D01*
X669068Y-36893D01*
X668942Y-36990D01*
X668817Y-37089D01*
X668695Y-37192D01*
X668576Y-37297D01*
X668459Y-37406D01*
X668345Y-37517D01*
X668234Y-37631D01*
X668125Y-37748D01*
X668020Y-37867D01*
X667917Y-37989D01*
X667818Y-38114D01*
X667721Y-38240D01*
X667628Y-38369D01*
X667538Y-38501D01*
X667451Y-38634D01*
X667367Y-38770D01*
X667287Y-38908D01*
X667210Y-39047D01*
X667137Y-39189D01*
X667067Y-39332D01*
X667001Y-39477D01*
X666938Y-39623D01*
X666879Y-39771D01*
X666823Y-39920D01*
X666772Y-40071D01*
X666724Y-40223D01*
X666679Y-40376D01*
X666639Y-40530D01*
X666602Y-40685D01*
X666569Y-40841D01*
X666540Y-40997D01*
X666514Y-41155D01*
X666493Y-41312D01*
X666475Y-41471D01*
X666462Y-41629D01*
X666452Y-41789D01*
X666446Y-41948D01*
X666444Y-42107D01*
X666444Y-48598D01*
X666447Y-48849D01*
X666456Y-49100D01*
X666471Y-49350D01*
X666492Y-49600D01*
X666520Y-49850D01*
X666553Y-50099D01*
X666592Y-50347D01*
X666637Y-50593D01*
X666689Y-50839D01*
X666746Y-51084D01*
X666809Y-51326D01*
X666878Y-51568D01*
X666952Y-51807D01*
X667033Y-52045D01*
X667119Y-52281D01*
X667211Y-52515D01*
X667308Y-52746D01*
X667411Y-52975D01*
X667520Y-53201D01*
X667634Y-53425D01*
X667753Y-53645D01*
X667878Y-53863D01*
X668007Y-54078D01*
X668142Y-54290D01*
X668282Y-54498D01*
X668428Y-54703D01*
X668578Y-54904D01*
X668732Y-55102D01*
X668892Y-55295D01*
X669056Y-55485D01*
X669225Y-55671D01*
X669398Y-55853D01*
X669575Y-56030D01*
X669757Y-56203D01*
X669943Y-56372D01*
X670133Y-56536D01*
X670326Y-56696D01*
X670524Y-56850D01*
X670725Y-57000D01*
X670930Y-57146D01*
X671138Y-57286D01*
X671350Y-57421D01*
X671565Y-57550D01*
X671783Y-57675D01*
X672003Y-57794D01*
X672227Y-57908D01*
X672453Y-58017D01*
X672682Y-58120D01*
X672914Y-58217D01*
X673147Y-58309D01*
X673383Y-58395D01*
X673621Y-58476D01*
X673860Y-58550D01*
X674102Y-58619D01*
X674344Y-58682D01*
X674589Y-58739D01*
X674835Y-58791D01*
X675081Y-58836D01*
X675329Y-58875D01*
X675578Y-58908D01*
X675828Y-58936D01*
X676078Y-58957D01*
X676328Y-58972D01*
X676579Y-58981D01*
X676830Y-58984D01*
M02*
