G04 EAGLE Gerber X2 export*
%TF.Part,Single*%
%TF.FileFunction,Other,Silk bottom*%
%TF.FilePolarity,Positive*%
%TF.GenerationSoftware,Autodesk,EAGLE,9.1.2*%
%TF.CreationDate,2019-01-18T12:57:07Z*%
G75*
%MOMM*%
%FSLAX34Y34*%
%LPD*%
%AMOC8*
5,1,8,0,0,1.08239X$1,22.5*%
G01*
%ADD10C,0.000000*%
%ADD11C,0.203200*%


D10*
X0Y-187960D02*
X1000000Y-187960D01*
X1000000Y812700D01*
X0Y812700D01*
X0Y-187960D01*
D11*
X858984Y17216D02*
X858984Y40584D01*
X846002Y40584D02*
X858984Y26304D01*
X853791Y31496D02*
X846002Y17216D01*
X838283Y17216D02*
X838283Y32795D01*
X830493Y32795D01*
X830493Y30198D01*
X823731Y32795D02*
X823731Y21111D01*
X823732Y21111D02*
X823730Y20989D01*
X823724Y20866D01*
X823715Y20744D01*
X823701Y20623D01*
X823684Y20502D01*
X823663Y20381D01*
X823638Y20261D01*
X823610Y20142D01*
X823577Y20024D01*
X823541Y19907D01*
X823502Y19792D01*
X823458Y19677D01*
X823412Y19564D01*
X823361Y19453D01*
X823307Y19343D01*
X823250Y19235D01*
X823190Y19128D01*
X823126Y19024D01*
X823058Y18922D01*
X822988Y18822D01*
X822915Y18724D01*
X822838Y18628D01*
X822759Y18535D01*
X822676Y18445D01*
X822591Y18357D01*
X822503Y18272D01*
X822413Y18189D01*
X822320Y18110D01*
X822224Y18033D01*
X822126Y17960D01*
X822026Y17890D01*
X821924Y17822D01*
X821820Y17758D01*
X821713Y17698D01*
X821605Y17641D01*
X821495Y17587D01*
X821384Y17536D01*
X821271Y17490D01*
X821156Y17446D01*
X821041Y17407D01*
X820924Y17371D01*
X820806Y17338D01*
X820687Y17310D01*
X820567Y17285D01*
X820446Y17264D01*
X820325Y17247D01*
X820204Y17233D01*
X820082Y17224D01*
X819959Y17218D01*
X819837Y17216D01*
X813346Y17216D01*
X813346Y32795D01*
X804619Y32795D02*
X804619Y17216D01*
X805269Y39286D02*
X805269Y40584D01*
X803970Y40584D01*
X803970Y39286D01*
X805269Y39286D01*
X794642Y26304D02*
X788151Y23707D01*
X794642Y26304D02*
X794748Y26348D01*
X794853Y26397D01*
X794956Y26449D01*
X795057Y26504D01*
X795157Y26563D01*
X795254Y26625D01*
X795349Y26690D01*
X795441Y26759D01*
X795532Y26831D01*
X795619Y26905D01*
X795705Y26983D01*
X795787Y27064D01*
X795867Y27147D01*
X795943Y27233D01*
X796017Y27322D01*
X796088Y27413D01*
X796155Y27507D01*
X796219Y27603D01*
X796280Y27701D01*
X796338Y27800D01*
X796392Y27902D01*
X796442Y28006D01*
X796489Y28111D01*
X796533Y28218D01*
X796572Y28327D01*
X796608Y28436D01*
X796640Y28547D01*
X796669Y28659D01*
X796693Y28771D01*
X796714Y28885D01*
X796730Y28999D01*
X796743Y29114D01*
X796752Y29229D01*
X796757Y29344D01*
X796758Y29459D01*
X796755Y29574D01*
X796748Y29690D01*
X796737Y29804D01*
X796722Y29919D01*
X796703Y30032D01*
X796681Y30146D01*
X796654Y30258D01*
X796624Y30369D01*
X796590Y30479D01*
X796552Y30588D01*
X796511Y30696D01*
X796465Y30802D01*
X796416Y30906D01*
X796364Y31009D01*
X796308Y31110D01*
X796249Y31209D01*
X796186Y31306D01*
X796120Y31400D01*
X796051Y31493D01*
X795979Y31583D01*
X795904Y31670D01*
X795825Y31755D01*
X795744Y31837D01*
X795660Y31916D01*
X795574Y31992D01*
X795485Y32065D01*
X795393Y32135D01*
X795299Y32202D01*
X795203Y32266D01*
X795105Y32326D01*
X795005Y32383D01*
X794903Y32437D01*
X794799Y32487D01*
X794693Y32533D01*
X794586Y32576D01*
X794477Y32615D01*
X794368Y32650D01*
X794257Y32682D01*
X794145Y32710D01*
X794032Y32734D01*
X793918Y32754D01*
X793804Y32770D01*
X793690Y32782D01*
X793575Y32790D01*
X793459Y32794D01*
X793344Y32795D01*
X793344Y32794D02*
X792989Y32785D01*
X792635Y32767D01*
X792282Y32741D01*
X791929Y32706D01*
X791577Y32663D01*
X791226Y32611D01*
X790877Y32551D01*
X790529Y32482D01*
X790183Y32405D01*
X789839Y32320D01*
X789497Y32227D01*
X789158Y32125D01*
X788821Y32015D01*
X788486Y31898D01*
X788155Y31772D01*
X787827Y31638D01*
X787502Y31496D01*
X788151Y23707D02*
X788045Y23663D01*
X787940Y23614D01*
X787837Y23562D01*
X787736Y23507D01*
X787636Y23448D01*
X787539Y23386D01*
X787444Y23321D01*
X787352Y23252D01*
X787261Y23180D01*
X787174Y23106D01*
X787088Y23028D01*
X787006Y22947D01*
X786926Y22864D01*
X786850Y22778D01*
X786776Y22689D01*
X786705Y22598D01*
X786638Y22504D01*
X786574Y22408D01*
X786513Y22310D01*
X786455Y22211D01*
X786401Y22109D01*
X786351Y22005D01*
X786304Y21900D01*
X786260Y21793D01*
X786221Y21684D01*
X786185Y21575D01*
X786153Y21464D01*
X786124Y21352D01*
X786100Y21240D01*
X786079Y21126D01*
X786063Y21012D01*
X786050Y20897D01*
X786041Y20782D01*
X786036Y20667D01*
X786035Y20552D01*
X786038Y20437D01*
X786045Y20321D01*
X786056Y20207D01*
X786071Y20092D01*
X786090Y19979D01*
X786112Y19865D01*
X786139Y19753D01*
X786169Y19642D01*
X786203Y19532D01*
X786241Y19423D01*
X786282Y19315D01*
X786328Y19209D01*
X786377Y19105D01*
X786429Y19002D01*
X786485Y18901D01*
X786544Y18802D01*
X786607Y18705D01*
X786673Y18611D01*
X786742Y18518D01*
X786814Y18428D01*
X786889Y18341D01*
X786968Y18256D01*
X787049Y18174D01*
X787133Y18095D01*
X787219Y18019D01*
X787308Y17946D01*
X787400Y17876D01*
X787494Y17809D01*
X787590Y17745D01*
X787688Y17685D01*
X787788Y17628D01*
X787890Y17574D01*
X787994Y17524D01*
X788100Y17478D01*
X788207Y17435D01*
X788316Y17396D01*
X788425Y17361D01*
X788536Y17329D01*
X788648Y17301D01*
X788761Y17277D01*
X788875Y17257D01*
X788989Y17241D01*
X789103Y17229D01*
X789218Y17221D01*
X789334Y17217D01*
X789449Y17216D01*
X789970Y17230D01*
X790490Y17256D01*
X791009Y17294D01*
X791528Y17344D01*
X792045Y17407D01*
X792560Y17482D01*
X793073Y17569D01*
X793585Y17668D01*
X794093Y17780D01*
X794599Y17903D01*
X795102Y18038D01*
X795602Y18185D01*
X796098Y18344D01*
X796590Y18514D01*
X777747Y9427D02*
X777747Y32795D01*
X771256Y32795D01*
X771134Y32793D01*
X771011Y32787D01*
X770889Y32778D01*
X770768Y32764D01*
X770647Y32747D01*
X770526Y32726D01*
X770406Y32701D01*
X770287Y32673D01*
X770169Y32640D01*
X770052Y32604D01*
X769937Y32565D01*
X769822Y32521D01*
X769709Y32475D01*
X769598Y32424D01*
X769488Y32370D01*
X769380Y32313D01*
X769273Y32253D01*
X769169Y32189D01*
X769067Y32121D01*
X768967Y32051D01*
X768869Y31978D01*
X768773Y31901D01*
X768680Y31822D01*
X768590Y31739D01*
X768502Y31654D01*
X768417Y31566D01*
X768334Y31476D01*
X768255Y31383D01*
X768178Y31287D01*
X768105Y31189D01*
X768035Y31089D01*
X767967Y30987D01*
X767903Y30883D01*
X767843Y30776D01*
X767786Y30668D01*
X767732Y30558D01*
X767681Y30447D01*
X767635Y30334D01*
X767591Y30219D01*
X767552Y30104D01*
X767516Y29987D01*
X767483Y29869D01*
X767455Y29750D01*
X767430Y29630D01*
X767409Y29509D01*
X767392Y29388D01*
X767378Y29267D01*
X767369Y29145D01*
X767363Y29022D01*
X767361Y28900D01*
X767362Y28900D02*
X767362Y21111D01*
X767361Y21111D02*
X767363Y20989D01*
X767369Y20866D01*
X767378Y20744D01*
X767392Y20623D01*
X767409Y20502D01*
X767430Y20381D01*
X767455Y20261D01*
X767483Y20142D01*
X767516Y20024D01*
X767552Y19907D01*
X767591Y19792D01*
X767635Y19677D01*
X767681Y19564D01*
X767732Y19453D01*
X767786Y19343D01*
X767843Y19235D01*
X767903Y19128D01*
X767967Y19024D01*
X768035Y18922D01*
X768105Y18822D01*
X768178Y18724D01*
X768255Y18628D01*
X768334Y18535D01*
X768417Y18445D01*
X768502Y18357D01*
X768590Y18272D01*
X768680Y18189D01*
X768773Y18110D01*
X768869Y18033D01*
X768967Y17960D01*
X769067Y17890D01*
X769169Y17822D01*
X769273Y17758D01*
X769380Y17698D01*
X769488Y17641D01*
X769598Y17587D01*
X769709Y17536D01*
X769822Y17490D01*
X769937Y17446D01*
X770052Y17407D01*
X770169Y17371D01*
X770287Y17338D01*
X770406Y17310D01*
X770526Y17285D01*
X770647Y17264D01*
X770768Y17247D01*
X770889Y17233D01*
X771011Y17224D01*
X771134Y17218D01*
X771256Y17216D01*
X777747Y17216D01*
X759007Y21111D02*
X759007Y32795D01*
X759008Y21111D02*
X759006Y20989D01*
X759000Y20866D01*
X758991Y20744D01*
X758977Y20623D01*
X758960Y20502D01*
X758939Y20381D01*
X758914Y20261D01*
X758886Y20142D01*
X758853Y20024D01*
X758817Y19907D01*
X758778Y19792D01*
X758734Y19677D01*
X758688Y19564D01*
X758637Y19453D01*
X758583Y19343D01*
X758526Y19235D01*
X758466Y19128D01*
X758402Y19024D01*
X758334Y18922D01*
X758264Y18822D01*
X758191Y18724D01*
X758114Y18628D01*
X758035Y18535D01*
X757952Y18445D01*
X757867Y18357D01*
X757779Y18272D01*
X757689Y18189D01*
X757596Y18110D01*
X757500Y18033D01*
X757402Y17960D01*
X757302Y17890D01*
X757200Y17822D01*
X757096Y17758D01*
X756989Y17698D01*
X756881Y17641D01*
X756771Y17587D01*
X756660Y17536D01*
X756547Y17490D01*
X756432Y17446D01*
X756317Y17407D01*
X756200Y17371D01*
X756082Y17338D01*
X755963Y17310D01*
X755843Y17285D01*
X755722Y17264D01*
X755601Y17247D01*
X755480Y17233D01*
X755358Y17224D01*
X755235Y17218D01*
X755113Y17216D01*
X748622Y17216D01*
X748622Y32795D01*
X739521Y32795D02*
X739521Y17216D01*
X739521Y32795D02*
X733029Y32795D01*
X732907Y32793D01*
X732784Y32787D01*
X732662Y32778D01*
X732541Y32764D01*
X732420Y32747D01*
X732299Y32726D01*
X732179Y32701D01*
X732060Y32673D01*
X731942Y32640D01*
X731825Y32604D01*
X731710Y32565D01*
X731595Y32521D01*
X731482Y32475D01*
X731371Y32424D01*
X731261Y32370D01*
X731153Y32313D01*
X731046Y32253D01*
X730942Y32189D01*
X730840Y32121D01*
X730740Y32051D01*
X730642Y31978D01*
X730546Y31901D01*
X730453Y31822D01*
X730363Y31739D01*
X730275Y31654D01*
X730190Y31566D01*
X730107Y31476D01*
X730028Y31383D01*
X729951Y31287D01*
X729878Y31189D01*
X729808Y31089D01*
X729740Y30987D01*
X729676Y30883D01*
X729616Y30776D01*
X729559Y30668D01*
X729505Y30558D01*
X729454Y30447D01*
X729408Y30334D01*
X729364Y30219D01*
X729325Y30104D01*
X729289Y29987D01*
X729256Y29869D01*
X729228Y29750D01*
X729203Y29630D01*
X729182Y29509D01*
X729165Y29388D01*
X729151Y29267D01*
X729142Y29145D01*
X729136Y29022D01*
X729134Y28900D01*
X729135Y28900D02*
X729135Y17216D01*
X722299Y32795D02*
X714510Y32795D01*
X719703Y40584D02*
X719703Y21111D01*
X719701Y20989D01*
X719695Y20866D01*
X719686Y20744D01*
X719672Y20623D01*
X719655Y20502D01*
X719634Y20381D01*
X719609Y20261D01*
X719581Y20142D01*
X719548Y20024D01*
X719512Y19907D01*
X719473Y19792D01*
X719429Y19677D01*
X719383Y19564D01*
X719332Y19453D01*
X719278Y19343D01*
X719221Y19235D01*
X719161Y19128D01*
X719097Y19024D01*
X719029Y18922D01*
X718959Y18822D01*
X718886Y18724D01*
X718809Y18628D01*
X718730Y18535D01*
X718647Y18445D01*
X718562Y18357D01*
X718474Y18272D01*
X718384Y18189D01*
X718291Y18110D01*
X718195Y18033D01*
X718097Y17960D01*
X717997Y17890D01*
X717895Y17822D01*
X717791Y17758D01*
X717684Y17698D01*
X717576Y17641D01*
X717466Y17587D01*
X717355Y17536D01*
X717242Y17490D01*
X717127Y17446D01*
X717012Y17407D01*
X716895Y17371D01*
X716777Y17338D01*
X716658Y17310D01*
X716538Y17285D01*
X716417Y17264D01*
X716296Y17247D01*
X716175Y17233D01*
X716053Y17224D01*
X715930Y17218D01*
X715808Y17216D01*
X714510Y17216D01*
X689786Y17216D02*
X697576Y40584D01*
X681997Y40584D02*
X689786Y17216D01*
X675399Y35391D02*
X668908Y40584D01*
X668908Y17216D01*
X675399Y17216D02*
X662417Y17216D01*
X858984Y2484D02*
X858984Y-20884D01*
X858984Y2484D02*
X852493Y2484D01*
X852334Y2482D01*
X852175Y2476D01*
X852015Y2466D01*
X851857Y2453D01*
X851698Y2435D01*
X851541Y2414D01*
X851383Y2388D01*
X851227Y2359D01*
X851071Y2326D01*
X850916Y2289D01*
X850762Y2249D01*
X850609Y2204D01*
X850457Y2156D01*
X850306Y2105D01*
X850157Y2049D01*
X850009Y1990D01*
X849863Y1927D01*
X849718Y1861D01*
X849575Y1791D01*
X849433Y1718D01*
X849294Y1641D01*
X849156Y1561D01*
X849020Y1477D01*
X848887Y1390D01*
X848755Y1300D01*
X848626Y1207D01*
X848500Y1110D01*
X848375Y1011D01*
X848253Y908D01*
X848134Y803D01*
X848017Y694D01*
X847903Y583D01*
X847792Y469D01*
X847683Y352D01*
X847578Y233D01*
X847475Y111D01*
X847376Y-14D01*
X847279Y-140D01*
X847186Y-269D01*
X847096Y-401D01*
X847009Y-534D01*
X846925Y-670D01*
X846845Y-808D01*
X846768Y-947D01*
X846695Y-1089D01*
X846625Y-1232D01*
X846559Y-1377D01*
X846496Y-1523D01*
X846437Y-1671D01*
X846381Y-1820D01*
X846330Y-1971D01*
X846282Y-2123D01*
X846237Y-2276D01*
X846197Y-2430D01*
X846160Y-2585D01*
X846127Y-2741D01*
X846098Y-2897D01*
X846072Y-3055D01*
X846051Y-3212D01*
X846033Y-3371D01*
X846020Y-3529D01*
X846010Y-3689D01*
X846004Y-3848D01*
X846002Y-4007D01*
X846004Y-4166D01*
X846010Y-4325D01*
X846020Y-4485D01*
X846033Y-4643D01*
X846051Y-4802D01*
X846072Y-4959D01*
X846098Y-5117D01*
X846127Y-5273D01*
X846160Y-5429D01*
X846197Y-5584D01*
X846237Y-5738D01*
X846282Y-5891D01*
X846330Y-6043D01*
X846381Y-6194D01*
X846437Y-6343D01*
X846496Y-6491D01*
X846559Y-6637D01*
X846625Y-6782D01*
X846695Y-6925D01*
X846768Y-7067D01*
X846845Y-7206D01*
X846925Y-7344D01*
X847009Y-7480D01*
X847096Y-7613D01*
X847186Y-7745D01*
X847279Y-7874D01*
X847376Y-8000D01*
X847475Y-8125D01*
X847578Y-8247D01*
X847683Y-8366D01*
X847792Y-8483D01*
X847903Y-8597D01*
X848017Y-8708D01*
X848134Y-8817D01*
X848253Y-8922D01*
X848375Y-9025D01*
X848500Y-9124D01*
X848626Y-9221D01*
X848755Y-9314D01*
X848887Y-9404D01*
X849020Y-9491D01*
X849156Y-9575D01*
X849294Y-9655D01*
X849433Y-9732D01*
X849575Y-9805D01*
X849718Y-9875D01*
X849863Y-9941D01*
X850009Y-10004D01*
X850157Y-10063D01*
X850306Y-10119D01*
X850457Y-10170D01*
X850609Y-10218D01*
X850762Y-10263D01*
X850916Y-10303D01*
X851071Y-10340D01*
X851227Y-10373D01*
X851383Y-10402D01*
X851541Y-10428D01*
X851698Y-10449D01*
X851857Y-10467D01*
X852015Y-10480D01*
X852175Y-10490D01*
X852334Y-10496D01*
X852493Y-10498D01*
X858984Y-10498D01*
X851195Y-10498D02*
X846002Y-20884D01*
X838263Y-15691D02*
X838263Y-10498D01*
X838261Y-10355D01*
X838255Y-10212D01*
X838245Y-10069D01*
X838231Y-9927D01*
X838214Y-9785D01*
X838192Y-9643D01*
X838167Y-9502D01*
X838137Y-9362D01*
X838104Y-9223D01*
X838067Y-9085D01*
X838026Y-8948D01*
X837982Y-8812D01*
X837933Y-8677D01*
X837881Y-8544D01*
X837826Y-8412D01*
X837766Y-8282D01*
X837703Y-8153D01*
X837637Y-8026D01*
X837567Y-7902D01*
X837494Y-7779D01*
X837417Y-7658D01*
X837337Y-7539D01*
X837254Y-7423D01*
X837168Y-7308D01*
X837079Y-7197D01*
X836986Y-7087D01*
X836891Y-6981D01*
X836792Y-6877D01*
X836691Y-6776D01*
X836587Y-6677D01*
X836481Y-6582D01*
X836371Y-6489D01*
X836260Y-6400D01*
X836145Y-6314D01*
X836029Y-6231D01*
X835910Y-6151D01*
X835789Y-6074D01*
X835667Y-6001D01*
X835542Y-5931D01*
X835415Y-5865D01*
X835286Y-5802D01*
X835156Y-5742D01*
X835024Y-5687D01*
X834891Y-5635D01*
X834756Y-5586D01*
X834620Y-5542D01*
X834483Y-5501D01*
X834345Y-5464D01*
X834206Y-5431D01*
X834066Y-5401D01*
X833925Y-5376D01*
X833783Y-5354D01*
X833641Y-5337D01*
X833499Y-5323D01*
X833356Y-5313D01*
X833213Y-5307D01*
X833070Y-5305D01*
X832927Y-5307D01*
X832784Y-5313D01*
X832641Y-5323D01*
X832499Y-5337D01*
X832357Y-5354D01*
X832215Y-5376D01*
X832074Y-5401D01*
X831934Y-5431D01*
X831795Y-5464D01*
X831657Y-5501D01*
X831520Y-5542D01*
X831384Y-5586D01*
X831249Y-5635D01*
X831116Y-5687D01*
X830984Y-5742D01*
X830854Y-5802D01*
X830725Y-5865D01*
X830598Y-5931D01*
X830474Y-6001D01*
X830351Y-6074D01*
X830230Y-6151D01*
X830111Y-6231D01*
X829995Y-6314D01*
X829880Y-6400D01*
X829769Y-6489D01*
X829659Y-6582D01*
X829553Y-6677D01*
X829449Y-6776D01*
X829348Y-6877D01*
X829249Y-6981D01*
X829154Y-7087D01*
X829061Y-7197D01*
X828972Y-7308D01*
X828886Y-7423D01*
X828803Y-7539D01*
X828723Y-7658D01*
X828646Y-7779D01*
X828573Y-7901D01*
X828503Y-8026D01*
X828437Y-8153D01*
X828374Y-8282D01*
X828314Y-8412D01*
X828259Y-8544D01*
X828207Y-8677D01*
X828158Y-8812D01*
X828114Y-8948D01*
X828073Y-9085D01*
X828036Y-9223D01*
X828003Y-9362D01*
X827973Y-9502D01*
X827948Y-9643D01*
X827926Y-9785D01*
X827909Y-9927D01*
X827895Y-10069D01*
X827885Y-10212D01*
X827879Y-10355D01*
X827877Y-10498D01*
X827877Y-15691D01*
X827879Y-15834D01*
X827885Y-15977D01*
X827895Y-16120D01*
X827909Y-16262D01*
X827926Y-16404D01*
X827948Y-16546D01*
X827973Y-16687D01*
X828003Y-16827D01*
X828036Y-16966D01*
X828073Y-17104D01*
X828114Y-17241D01*
X828158Y-17377D01*
X828207Y-17512D01*
X828259Y-17645D01*
X828314Y-17777D01*
X828374Y-17907D01*
X828437Y-18036D01*
X828503Y-18163D01*
X828573Y-18287D01*
X828646Y-18410D01*
X828723Y-18531D01*
X828803Y-18650D01*
X828886Y-18766D01*
X828972Y-18881D01*
X829061Y-18992D01*
X829154Y-19102D01*
X829249Y-19208D01*
X829348Y-19312D01*
X829449Y-19413D01*
X829553Y-19512D01*
X829659Y-19607D01*
X829769Y-19700D01*
X829880Y-19789D01*
X829995Y-19875D01*
X830111Y-19958D01*
X830230Y-20038D01*
X830351Y-20115D01*
X830474Y-20188D01*
X830598Y-20258D01*
X830725Y-20324D01*
X830854Y-20387D01*
X830984Y-20447D01*
X831116Y-20502D01*
X831249Y-20554D01*
X831384Y-20603D01*
X831520Y-20647D01*
X831657Y-20688D01*
X831795Y-20725D01*
X831934Y-20758D01*
X832074Y-20788D01*
X832215Y-20813D01*
X832357Y-20835D01*
X832499Y-20852D01*
X832641Y-20866D01*
X832784Y-20876D01*
X832927Y-20882D01*
X833070Y-20884D01*
X833213Y-20882D01*
X833356Y-20876D01*
X833499Y-20866D01*
X833641Y-20852D01*
X833783Y-20835D01*
X833925Y-20813D01*
X834066Y-20788D01*
X834206Y-20758D01*
X834345Y-20725D01*
X834483Y-20688D01*
X834620Y-20647D01*
X834756Y-20603D01*
X834891Y-20554D01*
X835024Y-20502D01*
X835156Y-20447D01*
X835286Y-20387D01*
X835415Y-20324D01*
X835542Y-20258D01*
X835666Y-20188D01*
X835789Y-20115D01*
X835910Y-20038D01*
X836029Y-19958D01*
X836145Y-19875D01*
X836260Y-19789D01*
X836371Y-19700D01*
X836481Y-19607D01*
X836587Y-19512D01*
X836691Y-19413D01*
X836792Y-19312D01*
X836891Y-19208D01*
X836986Y-19102D01*
X837079Y-18992D01*
X837168Y-18881D01*
X837254Y-18766D01*
X837337Y-18650D01*
X837417Y-18531D01*
X837494Y-18410D01*
X837567Y-18288D01*
X837637Y-18163D01*
X837703Y-18036D01*
X837766Y-17907D01*
X837826Y-17777D01*
X837881Y-17645D01*
X837933Y-17512D01*
X837982Y-17377D01*
X838026Y-17241D01*
X838067Y-17104D01*
X838104Y-16966D01*
X838137Y-16827D01*
X838167Y-16687D01*
X838192Y-16546D01*
X838214Y-16404D01*
X838231Y-16262D01*
X838245Y-16120D01*
X838255Y-15977D01*
X838261Y-15834D01*
X838263Y-15691D01*
X819421Y-20884D02*
X819421Y2484D01*
X819421Y-20884D02*
X812930Y-20884D01*
X812808Y-20882D01*
X812685Y-20876D01*
X812563Y-20867D01*
X812442Y-20853D01*
X812321Y-20836D01*
X812200Y-20815D01*
X812080Y-20790D01*
X811961Y-20762D01*
X811843Y-20729D01*
X811726Y-20693D01*
X811611Y-20654D01*
X811496Y-20610D01*
X811383Y-20564D01*
X811272Y-20513D01*
X811162Y-20459D01*
X811054Y-20402D01*
X810947Y-20342D01*
X810843Y-20278D01*
X810741Y-20210D01*
X810641Y-20140D01*
X810543Y-20067D01*
X810447Y-19990D01*
X810354Y-19911D01*
X810264Y-19828D01*
X810176Y-19743D01*
X810091Y-19655D01*
X810008Y-19565D01*
X809929Y-19472D01*
X809852Y-19376D01*
X809779Y-19278D01*
X809709Y-19178D01*
X809641Y-19076D01*
X809577Y-18972D01*
X809517Y-18865D01*
X809460Y-18757D01*
X809406Y-18647D01*
X809355Y-18536D01*
X809309Y-18423D01*
X809265Y-18308D01*
X809226Y-18193D01*
X809190Y-18076D01*
X809157Y-17958D01*
X809129Y-17839D01*
X809104Y-17719D01*
X809083Y-17598D01*
X809066Y-17477D01*
X809052Y-17356D01*
X809043Y-17234D01*
X809037Y-17111D01*
X809035Y-16989D01*
X809035Y-9200D01*
X809037Y-9078D01*
X809043Y-8955D01*
X809052Y-8833D01*
X809066Y-8712D01*
X809083Y-8591D01*
X809104Y-8470D01*
X809129Y-8350D01*
X809157Y-8231D01*
X809190Y-8113D01*
X809226Y-7996D01*
X809265Y-7881D01*
X809309Y-7766D01*
X809355Y-7653D01*
X809406Y-7542D01*
X809460Y-7432D01*
X809517Y-7324D01*
X809577Y-7217D01*
X809641Y-7113D01*
X809709Y-7011D01*
X809779Y-6911D01*
X809852Y-6813D01*
X809929Y-6717D01*
X810008Y-6624D01*
X810091Y-6534D01*
X810176Y-6446D01*
X810264Y-6361D01*
X810354Y-6278D01*
X810447Y-6199D01*
X810543Y-6122D01*
X810641Y-6049D01*
X810741Y-5979D01*
X810843Y-5911D01*
X810947Y-5847D01*
X811054Y-5787D01*
X811162Y-5730D01*
X811272Y-5676D01*
X811383Y-5625D01*
X811496Y-5579D01*
X811611Y-5535D01*
X811726Y-5496D01*
X811843Y-5460D01*
X811961Y-5427D01*
X812080Y-5399D01*
X812200Y-5374D01*
X812321Y-5353D01*
X812442Y-5336D01*
X812563Y-5322D01*
X812685Y-5313D01*
X812808Y-5307D01*
X812930Y-5305D01*
X819421Y-5305D01*
X800630Y2484D02*
X800630Y-20884D01*
X794139Y-20884D01*
X794017Y-20882D01*
X793894Y-20876D01*
X793772Y-20867D01*
X793651Y-20853D01*
X793530Y-20836D01*
X793409Y-20815D01*
X793289Y-20790D01*
X793170Y-20762D01*
X793052Y-20729D01*
X792935Y-20693D01*
X792820Y-20654D01*
X792705Y-20610D01*
X792592Y-20564D01*
X792481Y-20513D01*
X792371Y-20459D01*
X792263Y-20402D01*
X792156Y-20342D01*
X792052Y-20278D01*
X791950Y-20210D01*
X791850Y-20140D01*
X791752Y-20067D01*
X791656Y-19990D01*
X791563Y-19911D01*
X791473Y-19828D01*
X791385Y-19743D01*
X791300Y-19655D01*
X791217Y-19565D01*
X791138Y-19472D01*
X791061Y-19376D01*
X790988Y-19278D01*
X790918Y-19178D01*
X790850Y-19076D01*
X790786Y-18972D01*
X790726Y-18865D01*
X790669Y-18757D01*
X790615Y-18647D01*
X790564Y-18536D01*
X790518Y-18423D01*
X790474Y-18308D01*
X790435Y-18193D01*
X790399Y-18076D01*
X790366Y-17958D01*
X790338Y-17839D01*
X790313Y-17719D01*
X790292Y-17598D01*
X790275Y-17477D01*
X790261Y-17356D01*
X790252Y-17234D01*
X790246Y-17111D01*
X790244Y-16989D01*
X790244Y-9200D01*
X790246Y-9078D01*
X790252Y-8955D01*
X790261Y-8833D01*
X790275Y-8712D01*
X790292Y-8591D01*
X790313Y-8470D01*
X790338Y-8350D01*
X790366Y-8231D01*
X790399Y-8113D01*
X790435Y-7996D01*
X790474Y-7881D01*
X790518Y-7766D01*
X790564Y-7653D01*
X790615Y-7542D01*
X790669Y-7432D01*
X790726Y-7324D01*
X790786Y-7217D01*
X790850Y-7113D01*
X790918Y-7011D01*
X790988Y-6911D01*
X791061Y-6813D01*
X791138Y-6717D01*
X791217Y-6624D01*
X791300Y-6534D01*
X791385Y-6446D01*
X791473Y-6361D01*
X791563Y-6278D01*
X791656Y-6199D01*
X791752Y-6122D01*
X791850Y-6049D01*
X791950Y-5979D01*
X792052Y-5911D01*
X792156Y-5847D01*
X792263Y-5787D01*
X792371Y-5730D01*
X792481Y-5676D01*
X792592Y-5625D01*
X792705Y-5579D01*
X792820Y-5535D01*
X792935Y-5496D01*
X793052Y-5460D01*
X793170Y-5427D01*
X793289Y-5399D01*
X793409Y-5374D01*
X793530Y-5353D01*
X793651Y-5336D01*
X793772Y-5322D01*
X793894Y-5313D01*
X794017Y-5307D01*
X794139Y-5305D01*
X800630Y-5305D01*
X778691Y-20884D02*
X772200Y-20884D01*
X778691Y-20884D02*
X778813Y-20882D01*
X778936Y-20876D01*
X779058Y-20867D01*
X779179Y-20853D01*
X779300Y-20836D01*
X779421Y-20815D01*
X779541Y-20790D01*
X779660Y-20762D01*
X779778Y-20729D01*
X779895Y-20693D01*
X780010Y-20654D01*
X780125Y-20610D01*
X780238Y-20564D01*
X780349Y-20513D01*
X780459Y-20459D01*
X780567Y-20402D01*
X780674Y-20342D01*
X780778Y-20278D01*
X780880Y-20210D01*
X780980Y-20140D01*
X781078Y-20067D01*
X781174Y-19990D01*
X781267Y-19911D01*
X781357Y-19828D01*
X781445Y-19743D01*
X781530Y-19655D01*
X781613Y-19565D01*
X781692Y-19472D01*
X781769Y-19376D01*
X781842Y-19278D01*
X781912Y-19178D01*
X781980Y-19076D01*
X782044Y-18972D01*
X782104Y-18865D01*
X782161Y-18757D01*
X782215Y-18647D01*
X782266Y-18536D01*
X782312Y-18423D01*
X782356Y-18308D01*
X782395Y-18193D01*
X782431Y-18076D01*
X782464Y-17958D01*
X782492Y-17839D01*
X782517Y-17719D01*
X782538Y-17598D01*
X782555Y-17477D01*
X782569Y-17356D01*
X782578Y-17234D01*
X782584Y-17111D01*
X782586Y-16989D01*
X782586Y-10498D01*
X782584Y-10355D01*
X782578Y-10212D01*
X782568Y-10069D01*
X782554Y-9927D01*
X782537Y-9785D01*
X782515Y-9643D01*
X782490Y-9502D01*
X782460Y-9362D01*
X782427Y-9223D01*
X782390Y-9085D01*
X782349Y-8948D01*
X782305Y-8812D01*
X782256Y-8677D01*
X782204Y-8544D01*
X782149Y-8412D01*
X782089Y-8282D01*
X782026Y-8153D01*
X781960Y-8026D01*
X781890Y-7902D01*
X781817Y-7779D01*
X781740Y-7658D01*
X781660Y-7539D01*
X781577Y-7423D01*
X781491Y-7308D01*
X781402Y-7197D01*
X781309Y-7087D01*
X781214Y-6981D01*
X781115Y-6877D01*
X781014Y-6776D01*
X780910Y-6677D01*
X780804Y-6582D01*
X780694Y-6489D01*
X780583Y-6400D01*
X780468Y-6314D01*
X780352Y-6231D01*
X780233Y-6151D01*
X780112Y-6074D01*
X779990Y-6001D01*
X779865Y-5931D01*
X779738Y-5865D01*
X779609Y-5802D01*
X779479Y-5742D01*
X779347Y-5687D01*
X779214Y-5635D01*
X779079Y-5586D01*
X778943Y-5542D01*
X778806Y-5501D01*
X778668Y-5464D01*
X778529Y-5431D01*
X778389Y-5401D01*
X778248Y-5376D01*
X778106Y-5354D01*
X777964Y-5337D01*
X777822Y-5323D01*
X777679Y-5313D01*
X777536Y-5307D01*
X777393Y-5305D01*
X777250Y-5307D01*
X777107Y-5313D01*
X776964Y-5323D01*
X776822Y-5337D01*
X776680Y-5354D01*
X776538Y-5376D01*
X776397Y-5401D01*
X776257Y-5431D01*
X776118Y-5464D01*
X775980Y-5501D01*
X775843Y-5542D01*
X775707Y-5586D01*
X775572Y-5635D01*
X775439Y-5687D01*
X775307Y-5742D01*
X775177Y-5802D01*
X775048Y-5865D01*
X774921Y-5931D01*
X774797Y-6001D01*
X774674Y-6074D01*
X774553Y-6151D01*
X774434Y-6231D01*
X774318Y-6314D01*
X774203Y-6400D01*
X774092Y-6489D01*
X773982Y-6582D01*
X773876Y-6677D01*
X773772Y-6776D01*
X773671Y-6877D01*
X773572Y-6981D01*
X773477Y-7087D01*
X773384Y-7197D01*
X773295Y-7308D01*
X773209Y-7423D01*
X773126Y-7539D01*
X773046Y-7658D01*
X772969Y-7779D01*
X772896Y-7901D01*
X772826Y-8026D01*
X772760Y-8153D01*
X772697Y-8282D01*
X772637Y-8412D01*
X772582Y-8544D01*
X772530Y-8677D01*
X772481Y-8812D01*
X772437Y-8948D01*
X772396Y-9085D01*
X772359Y-9223D01*
X772326Y-9362D01*
X772296Y-9502D01*
X772271Y-9643D01*
X772249Y-9785D01*
X772232Y-9927D01*
X772218Y-10069D01*
X772208Y-10212D01*
X772202Y-10355D01*
X772200Y-10498D01*
X772200Y-13095D01*
X782586Y-13095D01*
X752566Y-20884D02*
X752566Y2484D01*
X746075Y2484D01*
X745916Y2482D01*
X745757Y2476D01*
X745597Y2466D01*
X745439Y2453D01*
X745280Y2435D01*
X745123Y2414D01*
X744965Y2388D01*
X744809Y2359D01*
X744653Y2326D01*
X744498Y2289D01*
X744344Y2249D01*
X744191Y2204D01*
X744039Y2156D01*
X743888Y2105D01*
X743739Y2049D01*
X743591Y1990D01*
X743445Y1927D01*
X743300Y1861D01*
X743157Y1791D01*
X743015Y1718D01*
X742876Y1641D01*
X742738Y1561D01*
X742602Y1477D01*
X742469Y1390D01*
X742337Y1300D01*
X742208Y1207D01*
X742082Y1110D01*
X741957Y1011D01*
X741835Y908D01*
X741716Y803D01*
X741599Y694D01*
X741485Y583D01*
X741374Y469D01*
X741265Y352D01*
X741160Y233D01*
X741057Y111D01*
X740958Y-14D01*
X740861Y-140D01*
X740768Y-269D01*
X740678Y-401D01*
X740591Y-534D01*
X740507Y-670D01*
X740427Y-808D01*
X740350Y-947D01*
X740277Y-1089D01*
X740207Y-1232D01*
X740141Y-1377D01*
X740078Y-1523D01*
X740019Y-1671D01*
X739963Y-1820D01*
X739912Y-1971D01*
X739864Y-2123D01*
X739819Y-2276D01*
X739779Y-2430D01*
X739742Y-2585D01*
X739709Y-2741D01*
X739680Y-2897D01*
X739654Y-3055D01*
X739633Y-3212D01*
X739615Y-3371D01*
X739602Y-3529D01*
X739592Y-3689D01*
X739586Y-3848D01*
X739584Y-4007D01*
X739584Y-14393D01*
X739586Y-14552D01*
X739592Y-14711D01*
X739602Y-14871D01*
X739615Y-15029D01*
X739633Y-15188D01*
X739654Y-15345D01*
X739680Y-15503D01*
X739709Y-15659D01*
X739742Y-15815D01*
X739779Y-15970D01*
X739819Y-16124D01*
X739864Y-16277D01*
X739912Y-16429D01*
X739963Y-16580D01*
X740019Y-16729D01*
X740078Y-16877D01*
X740141Y-17023D01*
X740207Y-17168D01*
X740277Y-17311D01*
X740350Y-17453D01*
X740427Y-17592D01*
X740507Y-17730D01*
X740591Y-17866D01*
X740678Y-17999D01*
X740768Y-18131D01*
X740861Y-18260D01*
X740958Y-18386D01*
X741057Y-18511D01*
X741160Y-18633D01*
X741265Y-18752D01*
X741374Y-18869D01*
X741485Y-18983D01*
X741599Y-19094D01*
X741716Y-19203D01*
X741835Y-19308D01*
X741957Y-19411D01*
X742082Y-19510D01*
X742208Y-19607D01*
X742337Y-19700D01*
X742469Y-19790D01*
X742602Y-19877D01*
X742738Y-19961D01*
X742876Y-20041D01*
X743015Y-20118D01*
X743157Y-20191D01*
X743300Y-20261D01*
X743445Y-20327D01*
X743591Y-20390D01*
X743739Y-20449D01*
X743888Y-20505D01*
X744039Y-20556D01*
X744191Y-20605D01*
X744344Y-20649D01*
X744498Y-20689D01*
X744653Y-20726D01*
X744809Y-20759D01*
X744965Y-20788D01*
X745123Y-20814D01*
X745280Y-20835D01*
X745439Y-20853D01*
X745598Y-20866D01*
X745757Y-20876D01*
X745916Y-20882D01*
X746075Y-20884D01*
X752566Y-20884D01*
X730764Y-20884D02*
X730764Y-5305D01*
X731413Y1186D02*
X731413Y2484D01*
X730115Y2484D01*
X730115Y1186D01*
X731413Y1186D01*
X718839Y-20884D02*
X712348Y-20884D01*
X718839Y-20884D02*
X718961Y-20882D01*
X719084Y-20876D01*
X719206Y-20867D01*
X719327Y-20853D01*
X719448Y-20836D01*
X719569Y-20815D01*
X719689Y-20790D01*
X719808Y-20762D01*
X719926Y-20729D01*
X720043Y-20693D01*
X720158Y-20654D01*
X720273Y-20610D01*
X720386Y-20564D01*
X720497Y-20513D01*
X720607Y-20459D01*
X720715Y-20402D01*
X720822Y-20342D01*
X720926Y-20278D01*
X721028Y-20210D01*
X721128Y-20140D01*
X721226Y-20067D01*
X721322Y-19990D01*
X721415Y-19911D01*
X721505Y-19828D01*
X721593Y-19743D01*
X721678Y-19655D01*
X721761Y-19565D01*
X721840Y-19472D01*
X721917Y-19376D01*
X721990Y-19278D01*
X722060Y-19178D01*
X722128Y-19076D01*
X722192Y-18972D01*
X722252Y-18865D01*
X722309Y-18757D01*
X722363Y-18647D01*
X722414Y-18536D01*
X722460Y-18423D01*
X722504Y-18308D01*
X722543Y-18193D01*
X722579Y-18076D01*
X722612Y-17958D01*
X722640Y-17839D01*
X722665Y-17719D01*
X722686Y-17598D01*
X722703Y-17477D01*
X722717Y-17356D01*
X722726Y-17234D01*
X722732Y-17111D01*
X722734Y-16989D01*
X722734Y-10498D01*
X722732Y-10355D01*
X722726Y-10212D01*
X722716Y-10069D01*
X722702Y-9927D01*
X722685Y-9785D01*
X722663Y-9643D01*
X722638Y-9502D01*
X722608Y-9362D01*
X722575Y-9223D01*
X722538Y-9085D01*
X722497Y-8948D01*
X722453Y-8812D01*
X722404Y-8677D01*
X722352Y-8544D01*
X722297Y-8412D01*
X722237Y-8282D01*
X722174Y-8153D01*
X722108Y-8026D01*
X722038Y-7902D01*
X721965Y-7779D01*
X721888Y-7658D01*
X721808Y-7539D01*
X721725Y-7423D01*
X721639Y-7308D01*
X721550Y-7197D01*
X721457Y-7087D01*
X721362Y-6981D01*
X721263Y-6877D01*
X721162Y-6776D01*
X721058Y-6677D01*
X720952Y-6582D01*
X720842Y-6489D01*
X720731Y-6400D01*
X720616Y-6314D01*
X720500Y-6231D01*
X720381Y-6151D01*
X720260Y-6074D01*
X720138Y-6001D01*
X720013Y-5931D01*
X719886Y-5865D01*
X719757Y-5802D01*
X719627Y-5742D01*
X719495Y-5687D01*
X719362Y-5635D01*
X719227Y-5586D01*
X719091Y-5542D01*
X718954Y-5501D01*
X718816Y-5464D01*
X718677Y-5431D01*
X718537Y-5401D01*
X718396Y-5376D01*
X718254Y-5354D01*
X718112Y-5337D01*
X717970Y-5323D01*
X717827Y-5313D01*
X717684Y-5307D01*
X717541Y-5305D01*
X717398Y-5307D01*
X717255Y-5313D01*
X717112Y-5323D01*
X716970Y-5337D01*
X716828Y-5354D01*
X716686Y-5376D01*
X716545Y-5401D01*
X716405Y-5431D01*
X716266Y-5464D01*
X716128Y-5501D01*
X715991Y-5542D01*
X715855Y-5586D01*
X715720Y-5635D01*
X715587Y-5687D01*
X715455Y-5742D01*
X715325Y-5802D01*
X715196Y-5865D01*
X715069Y-5931D01*
X714945Y-6001D01*
X714822Y-6074D01*
X714701Y-6151D01*
X714582Y-6231D01*
X714466Y-6314D01*
X714351Y-6400D01*
X714240Y-6489D01*
X714130Y-6582D01*
X714024Y-6677D01*
X713920Y-6776D01*
X713819Y-6877D01*
X713720Y-6981D01*
X713625Y-7087D01*
X713532Y-7197D01*
X713443Y-7308D01*
X713357Y-7423D01*
X713274Y-7539D01*
X713194Y-7658D01*
X713117Y-7779D01*
X713044Y-7901D01*
X712974Y-8026D01*
X712908Y-8153D01*
X712845Y-8282D01*
X712785Y-8412D01*
X712730Y-8544D01*
X712678Y-8677D01*
X712629Y-8812D01*
X712585Y-8948D01*
X712544Y-9085D01*
X712507Y-9223D01*
X712474Y-9362D01*
X712444Y-9502D01*
X712419Y-9643D01*
X712397Y-9785D01*
X712380Y-9927D01*
X712366Y-10069D01*
X712356Y-10212D01*
X712350Y-10355D01*
X712348Y-10498D01*
X712348Y-13095D01*
X722734Y-13095D01*
X703879Y-20884D02*
X703879Y-5305D01*
X696090Y-5305D01*
X696090Y-7902D01*
X689702Y-5305D02*
X689702Y-20884D01*
X690352Y1186D02*
X690352Y2484D01*
X689053Y2484D01*
X689053Y1186D01*
X690352Y1186D01*
X677763Y-20884D02*
X672570Y-20884D01*
X677763Y-20884D02*
X677885Y-20882D01*
X678008Y-20876D01*
X678130Y-20867D01*
X678251Y-20853D01*
X678372Y-20836D01*
X678493Y-20815D01*
X678613Y-20790D01*
X678732Y-20762D01*
X678850Y-20729D01*
X678967Y-20693D01*
X679082Y-20654D01*
X679197Y-20610D01*
X679310Y-20564D01*
X679421Y-20513D01*
X679531Y-20459D01*
X679639Y-20402D01*
X679746Y-20342D01*
X679850Y-20278D01*
X679952Y-20210D01*
X680052Y-20140D01*
X680150Y-20067D01*
X680246Y-19990D01*
X680339Y-19911D01*
X680429Y-19828D01*
X680517Y-19743D01*
X680602Y-19655D01*
X680685Y-19565D01*
X680764Y-19472D01*
X680841Y-19376D01*
X680914Y-19278D01*
X680984Y-19178D01*
X681052Y-19076D01*
X681116Y-18972D01*
X681176Y-18865D01*
X681233Y-18757D01*
X681287Y-18647D01*
X681338Y-18536D01*
X681384Y-18423D01*
X681428Y-18308D01*
X681467Y-18193D01*
X681503Y-18076D01*
X681536Y-17958D01*
X681564Y-17839D01*
X681589Y-17719D01*
X681610Y-17598D01*
X681627Y-17477D01*
X681641Y-17356D01*
X681650Y-17234D01*
X681656Y-17111D01*
X681658Y-16989D01*
X681658Y-9200D01*
X681656Y-9078D01*
X681650Y-8955D01*
X681641Y-8833D01*
X681627Y-8712D01*
X681610Y-8591D01*
X681589Y-8470D01*
X681564Y-8350D01*
X681536Y-8231D01*
X681503Y-8113D01*
X681467Y-7996D01*
X681428Y-7881D01*
X681384Y-7766D01*
X681338Y-7653D01*
X681287Y-7542D01*
X681233Y-7432D01*
X681176Y-7324D01*
X681116Y-7217D01*
X681052Y-7113D01*
X680984Y-7011D01*
X680914Y-6911D01*
X680841Y-6813D01*
X680764Y-6717D01*
X680685Y-6624D01*
X680602Y-6534D01*
X680517Y-6446D01*
X680429Y-6361D01*
X680339Y-6278D01*
X680246Y-6199D01*
X680150Y-6122D01*
X680052Y-6049D01*
X679952Y-5979D01*
X679850Y-5911D01*
X679746Y-5847D01*
X679639Y-5787D01*
X679531Y-5730D01*
X679421Y-5676D01*
X679310Y-5625D01*
X679197Y-5579D01*
X679082Y-5535D01*
X678967Y-5496D01*
X678850Y-5460D01*
X678732Y-5427D01*
X678613Y-5399D01*
X678493Y-5374D01*
X678372Y-5353D01*
X678251Y-5336D01*
X678130Y-5322D01*
X678008Y-5313D01*
X677885Y-5307D01*
X677763Y-5305D01*
X672570Y-5305D01*
X664851Y2484D02*
X664851Y-20884D01*
X664851Y-13095D02*
X654465Y-5305D01*
X660307Y-9849D02*
X654465Y-20884D01*
X648266Y-20884D02*
X637880Y-5305D01*
X648266Y-5305D02*
X637880Y-20884D01*
X852493Y-35616D02*
X858984Y-40809D01*
X852493Y-35616D02*
X852493Y-58984D01*
X858984Y-58984D02*
X846002Y-58984D01*
X838105Y-40809D02*
X831614Y-35616D01*
X831614Y-58984D01*
X838105Y-58984D02*
X825123Y-58984D01*
X818016Y-61580D02*
X807630Y-33020D01*
X798576Y-38862D02*
X798772Y-39277D01*
X798959Y-39697D01*
X799135Y-40122D01*
X799301Y-40551D01*
X799457Y-40983D01*
X799603Y-41419D01*
X799738Y-41858D01*
X799863Y-42301D01*
X799977Y-42746D01*
X800080Y-43194D01*
X800173Y-43644D01*
X800255Y-44097D01*
X800326Y-44551D01*
X800386Y-45007D01*
X800435Y-45464D01*
X800474Y-45922D01*
X800501Y-46381D01*
X800518Y-46840D01*
X800523Y-47300D01*
X798575Y-38861D02*
X798530Y-38734D01*
X798480Y-38608D01*
X798428Y-38483D01*
X798371Y-38360D01*
X798311Y-38238D01*
X798248Y-38119D01*
X798182Y-38001D01*
X798112Y-37885D01*
X798039Y-37771D01*
X797963Y-37659D01*
X797883Y-37549D01*
X797801Y-37442D01*
X797715Y-37337D01*
X797627Y-37234D01*
X797536Y-37134D01*
X797442Y-37036D01*
X797345Y-36942D01*
X797246Y-36850D01*
X797144Y-36760D01*
X797040Y-36674D01*
X796933Y-36591D01*
X796824Y-36511D01*
X796712Y-36434D01*
X796599Y-36360D01*
X796484Y-36289D01*
X796366Y-36221D01*
X796247Y-36157D01*
X796126Y-36096D01*
X796003Y-36039D01*
X795879Y-35985D01*
X795753Y-35935D01*
X795626Y-35888D01*
X795498Y-35845D01*
X795368Y-35806D01*
X795238Y-35770D01*
X795106Y-35738D01*
X794974Y-35709D01*
X794841Y-35685D01*
X794707Y-35664D01*
X794573Y-35647D01*
X794438Y-35633D01*
X794303Y-35624D01*
X794167Y-35618D01*
X794032Y-35616D01*
X793897Y-35618D01*
X793761Y-35624D01*
X793626Y-35633D01*
X793492Y-35647D01*
X793357Y-35664D01*
X793223Y-35685D01*
X793090Y-35709D01*
X792958Y-35738D01*
X792826Y-35770D01*
X792696Y-35806D01*
X792566Y-35845D01*
X792438Y-35888D01*
X792311Y-35935D01*
X792185Y-35985D01*
X792061Y-36039D01*
X791938Y-36096D01*
X791817Y-36157D01*
X791698Y-36221D01*
X791580Y-36289D01*
X791465Y-36360D01*
X791352Y-36433D01*
X791240Y-36511D01*
X791131Y-36591D01*
X791024Y-36674D01*
X790920Y-36760D01*
X790818Y-36850D01*
X790719Y-36942D01*
X790622Y-37036D01*
X790528Y-37134D01*
X790437Y-37234D01*
X790349Y-37337D01*
X790263Y-37442D01*
X790181Y-37549D01*
X790101Y-37659D01*
X790025Y-37771D01*
X789952Y-37885D01*
X789882Y-38001D01*
X789816Y-38119D01*
X789753Y-38238D01*
X789693Y-38360D01*
X789636Y-38483D01*
X789584Y-38608D01*
X789534Y-38734D01*
X789489Y-38861D01*
X789488Y-38861D02*
X789292Y-39277D01*
X789105Y-39697D01*
X788929Y-40122D01*
X788763Y-40550D01*
X788607Y-40983D01*
X788461Y-41419D01*
X788326Y-41858D01*
X788201Y-42301D01*
X788087Y-42746D01*
X787984Y-43194D01*
X787891Y-43644D01*
X787809Y-44097D01*
X787738Y-44551D01*
X787678Y-45007D01*
X787629Y-45464D01*
X787590Y-45922D01*
X787563Y-46381D01*
X787546Y-46840D01*
X787541Y-47300D01*
X800523Y-47300D02*
X800518Y-47760D01*
X800501Y-48219D01*
X800474Y-48678D01*
X800435Y-49136D01*
X800386Y-49593D01*
X800326Y-50049D01*
X800255Y-50503D01*
X800173Y-50956D01*
X800080Y-51406D01*
X799977Y-51854D01*
X799863Y-52299D01*
X799738Y-52742D01*
X799603Y-53181D01*
X799457Y-53617D01*
X799301Y-54049D01*
X799135Y-54478D01*
X798959Y-54903D01*
X798772Y-55323D01*
X798576Y-55738D01*
X798575Y-55739D02*
X798530Y-55866D01*
X798480Y-55992D01*
X798428Y-56117D01*
X798371Y-56240D01*
X798311Y-56362D01*
X798248Y-56481D01*
X798182Y-56599D01*
X798112Y-56715D01*
X798039Y-56829D01*
X797963Y-56941D01*
X797883Y-57051D01*
X797801Y-57158D01*
X797715Y-57263D01*
X797627Y-57366D01*
X797536Y-57466D01*
X797442Y-57564D01*
X797345Y-57658D01*
X797246Y-57750D01*
X797144Y-57840D01*
X797039Y-57926D01*
X796933Y-58009D01*
X796824Y-58089D01*
X796712Y-58167D01*
X796599Y-58240D01*
X796484Y-58311D01*
X796366Y-58379D01*
X796247Y-58443D01*
X796126Y-58504D01*
X796003Y-58561D01*
X795879Y-58615D01*
X795753Y-58665D01*
X795626Y-58712D01*
X795498Y-58755D01*
X795368Y-58794D01*
X795238Y-58830D01*
X795106Y-58862D01*
X794974Y-58891D01*
X794841Y-58915D01*
X794707Y-58936D01*
X794572Y-58953D01*
X794438Y-58967D01*
X794303Y-58976D01*
X794167Y-58982D01*
X794032Y-58984D01*
X789488Y-55739D02*
X789292Y-55323D01*
X789105Y-54903D01*
X788929Y-54478D01*
X788763Y-54050D01*
X788607Y-53617D01*
X788461Y-53181D01*
X788326Y-52742D01*
X788201Y-52299D01*
X788087Y-51854D01*
X787984Y-51406D01*
X787891Y-50956D01*
X787809Y-50503D01*
X787738Y-50049D01*
X787678Y-49593D01*
X787629Y-49136D01*
X787590Y-48678D01*
X787563Y-48219D01*
X787546Y-47760D01*
X787541Y-47300D01*
X789489Y-55739D02*
X789534Y-55866D01*
X789584Y-55992D01*
X789636Y-56117D01*
X789693Y-56240D01*
X789753Y-56362D01*
X789816Y-56481D01*
X789882Y-56599D01*
X789952Y-56715D01*
X790025Y-56829D01*
X790101Y-56941D01*
X790181Y-57051D01*
X790263Y-57158D01*
X790349Y-57263D01*
X790437Y-57366D01*
X790528Y-57466D01*
X790622Y-57564D01*
X790719Y-57658D01*
X790818Y-57750D01*
X790920Y-57840D01*
X791025Y-57926D01*
X791131Y-58009D01*
X791240Y-58089D01*
X791352Y-58167D01*
X791465Y-58240D01*
X791580Y-58311D01*
X791698Y-58379D01*
X791817Y-58443D01*
X791938Y-58504D01*
X792061Y-58561D01*
X792185Y-58615D01*
X792311Y-58665D01*
X792438Y-58712D01*
X792566Y-58755D01*
X792696Y-58794D01*
X792826Y-58830D01*
X792958Y-58862D01*
X793090Y-58891D01*
X793223Y-58915D01*
X793357Y-58936D01*
X793492Y-58953D01*
X793626Y-58967D01*
X793761Y-58976D01*
X793897Y-58982D01*
X794032Y-58984D01*
X799225Y-53791D02*
X788839Y-40809D01*
X779645Y-40809D02*
X773154Y-35616D01*
X773154Y-58984D01*
X779645Y-58984D02*
X766662Y-58984D01*
X759556Y-61580D02*
X749170Y-33020D01*
X742063Y-40809D02*
X735572Y-35616D01*
X735572Y-58984D01*
X742063Y-58984D02*
X729081Y-58984D01*
X715991Y-48598D02*
X708202Y-48598D01*
X715991Y-48598D02*
X716134Y-48596D01*
X716277Y-48590D01*
X716420Y-48580D01*
X716562Y-48566D01*
X716704Y-48549D01*
X716846Y-48527D01*
X716987Y-48502D01*
X717127Y-48472D01*
X717266Y-48439D01*
X717404Y-48402D01*
X717541Y-48361D01*
X717677Y-48317D01*
X717812Y-48268D01*
X717945Y-48216D01*
X718077Y-48161D01*
X718207Y-48101D01*
X718336Y-48038D01*
X718463Y-47972D01*
X718588Y-47902D01*
X718710Y-47829D01*
X718831Y-47752D01*
X718950Y-47672D01*
X719066Y-47589D01*
X719181Y-47503D01*
X719292Y-47414D01*
X719402Y-47321D01*
X719508Y-47226D01*
X719612Y-47127D01*
X719713Y-47026D01*
X719812Y-46922D01*
X719907Y-46816D01*
X720000Y-46706D01*
X720089Y-46595D01*
X720175Y-46480D01*
X720258Y-46364D01*
X720338Y-46245D01*
X720415Y-46124D01*
X720488Y-46002D01*
X720558Y-45877D01*
X720624Y-45750D01*
X720687Y-45621D01*
X720747Y-45491D01*
X720802Y-45359D01*
X720854Y-45226D01*
X720903Y-45091D01*
X720947Y-44955D01*
X720988Y-44818D01*
X721025Y-44680D01*
X721058Y-44541D01*
X721088Y-44401D01*
X721113Y-44260D01*
X721135Y-44118D01*
X721152Y-43976D01*
X721166Y-43834D01*
X721176Y-43691D01*
X721182Y-43548D01*
X721184Y-43405D01*
X721184Y-42107D01*
X721182Y-41948D01*
X721176Y-41789D01*
X721166Y-41629D01*
X721153Y-41471D01*
X721135Y-41312D01*
X721114Y-41155D01*
X721088Y-40997D01*
X721059Y-40841D01*
X721026Y-40685D01*
X720989Y-40530D01*
X720949Y-40376D01*
X720904Y-40223D01*
X720856Y-40071D01*
X720805Y-39920D01*
X720749Y-39771D01*
X720690Y-39623D01*
X720627Y-39477D01*
X720561Y-39332D01*
X720491Y-39189D01*
X720418Y-39047D01*
X720341Y-38908D01*
X720261Y-38770D01*
X720177Y-38634D01*
X720090Y-38501D01*
X720000Y-38369D01*
X719907Y-38240D01*
X719810Y-38114D01*
X719711Y-37989D01*
X719608Y-37867D01*
X719503Y-37748D01*
X719394Y-37631D01*
X719283Y-37517D01*
X719169Y-37406D01*
X719052Y-37297D01*
X718933Y-37192D01*
X718811Y-37089D01*
X718686Y-36990D01*
X718560Y-36893D01*
X718431Y-36800D01*
X718299Y-36710D01*
X718166Y-36623D01*
X718030Y-36539D01*
X717892Y-36459D01*
X717753Y-36382D01*
X717611Y-36309D01*
X717468Y-36239D01*
X717323Y-36173D01*
X717177Y-36110D01*
X717029Y-36051D01*
X716880Y-35995D01*
X716729Y-35944D01*
X716577Y-35896D01*
X716424Y-35851D01*
X716270Y-35811D01*
X716115Y-35774D01*
X715959Y-35741D01*
X715803Y-35712D01*
X715645Y-35686D01*
X715488Y-35665D01*
X715329Y-35647D01*
X715171Y-35634D01*
X715011Y-35624D01*
X714852Y-35618D01*
X714693Y-35616D01*
X714534Y-35618D01*
X714375Y-35624D01*
X714215Y-35634D01*
X714057Y-35647D01*
X713898Y-35665D01*
X713741Y-35686D01*
X713583Y-35712D01*
X713427Y-35741D01*
X713271Y-35774D01*
X713116Y-35811D01*
X712962Y-35851D01*
X712809Y-35896D01*
X712657Y-35944D01*
X712506Y-35995D01*
X712357Y-36051D01*
X712209Y-36110D01*
X712063Y-36173D01*
X711918Y-36239D01*
X711775Y-36309D01*
X711633Y-36382D01*
X711494Y-36459D01*
X711356Y-36539D01*
X711220Y-36623D01*
X711087Y-36710D01*
X710955Y-36800D01*
X710826Y-36893D01*
X710700Y-36990D01*
X710575Y-37089D01*
X710453Y-37192D01*
X710334Y-37297D01*
X710217Y-37406D01*
X710103Y-37517D01*
X709992Y-37631D01*
X709883Y-37748D01*
X709778Y-37867D01*
X709675Y-37989D01*
X709576Y-38114D01*
X709479Y-38240D01*
X709386Y-38369D01*
X709296Y-38501D01*
X709209Y-38634D01*
X709125Y-38770D01*
X709045Y-38908D01*
X708968Y-39047D01*
X708895Y-39189D01*
X708825Y-39332D01*
X708759Y-39477D01*
X708696Y-39623D01*
X708637Y-39771D01*
X708581Y-39920D01*
X708530Y-40071D01*
X708482Y-40223D01*
X708437Y-40376D01*
X708397Y-40530D01*
X708360Y-40685D01*
X708327Y-40841D01*
X708298Y-40997D01*
X708272Y-41155D01*
X708251Y-41312D01*
X708233Y-41471D01*
X708220Y-41629D01*
X708210Y-41789D01*
X708204Y-41948D01*
X708202Y-42107D01*
X708202Y-48598D01*
X708205Y-48849D01*
X708214Y-49100D01*
X708229Y-49350D01*
X708250Y-49600D01*
X708278Y-49850D01*
X708311Y-50099D01*
X708350Y-50347D01*
X708395Y-50593D01*
X708447Y-50839D01*
X708504Y-51084D01*
X708567Y-51326D01*
X708636Y-51568D01*
X708710Y-51807D01*
X708791Y-52045D01*
X708877Y-52281D01*
X708969Y-52515D01*
X709066Y-52746D01*
X709169Y-52975D01*
X709278Y-53201D01*
X709392Y-53425D01*
X709511Y-53645D01*
X709636Y-53863D01*
X709765Y-54078D01*
X709900Y-54290D01*
X710040Y-54498D01*
X710186Y-54703D01*
X710336Y-54904D01*
X710490Y-55102D01*
X710650Y-55295D01*
X710814Y-55485D01*
X710983Y-55671D01*
X711156Y-55853D01*
X711333Y-56030D01*
X711515Y-56203D01*
X711701Y-56372D01*
X711891Y-56536D01*
X712084Y-56696D01*
X712282Y-56850D01*
X712483Y-57000D01*
X712688Y-57146D01*
X712896Y-57286D01*
X713108Y-57421D01*
X713323Y-57550D01*
X713541Y-57675D01*
X713761Y-57794D01*
X713985Y-57908D01*
X714211Y-58017D01*
X714440Y-58120D01*
X714672Y-58217D01*
X714905Y-58309D01*
X715141Y-58395D01*
X715379Y-58476D01*
X715618Y-58550D01*
X715860Y-58619D01*
X716102Y-58682D01*
X716347Y-58739D01*
X716593Y-58791D01*
X716839Y-58836D01*
X717087Y-58875D01*
X717336Y-58908D01*
X717586Y-58936D01*
X717836Y-58957D01*
X718086Y-58972D01*
X718337Y-58981D01*
X718588Y-58984D01*
D10*
X929600Y-31008D02*
X929606Y-30509D01*
X929624Y-30011D01*
X929655Y-29513D01*
X929698Y-29016D01*
X929753Y-28521D01*
X929820Y-28026D01*
X929899Y-27534D01*
X929990Y-27044D01*
X930094Y-26556D01*
X930209Y-26071D01*
X930336Y-25588D01*
X930475Y-25109D01*
X930626Y-24634D01*
X930788Y-24162D01*
X930962Y-23695D01*
X931147Y-23232D01*
X931343Y-22773D01*
X931551Y-22320D01*
X931770Y-21872D01*
X931999Y-21429D01*
X932240Y-20992D01*
X932491Y-20561D01*
X932753Y-20137D01*
X933025Y-19719D01*
X933307Y-19308D01*
X933599Y-18903D01*
X933901Y-18506D01*
X934212Y-18117D01*
X934534Y-17736D01*
X934864Y-17362D01*
X935203Y-16997D01*
X935552Y-16640D01*
X935909Y-16291D01*
X936274Y-15952D01*
X936648Y-15622D01*
X937029Y-15300D01*
X937418Y-14989D01*
X937815Y-14687D01*
X938220Y-14395D01*
X938631Y-14113D01*
X939049Y-13841D01*
X939473Y-13579D01*
X939904Y-13328D01*
X940341Y-13087D01*
X940784Y-12858D01*
X941232Y-12639D01*
X941685Y-12431D01*
X942144Y-12235D01*
X942607Y-12050D01*
X943074Y-11876D01*
X943546Y-11714D01*
X944021Y-11563D01*
X944500Y-11424D01*
X944983Y-11297D01*
X945468Y-11182D01*
X945956Y-11078D01*
X946446Y-10987D01*
X946938Y-10908D01*
X947433Y-10841D01*
X947928Y-10786D01*
X948425Y-10743D01*
X948923Y-10712D01*
X949421Y-10694D01*
X949920Y-10688D01*
X950419Y-10694D01*
X950917Y-10712D01*
X951415Y-10743D01*
X951912Y-10786D01*
X952407Y-10841D01*
X952902Y-10908D01*
X953394Y-10987D01*
X953884Y-11078D01*
X954372Y-11182D01*
X954857Y-11297D01*
X955340Y-11424D01*
X955819Y-11563D01*
X956294Y-11714D01*
X956766Y-11876D01*
X957233Y-12050D01*
X957696Y-12235D01*
X958155Y-12431D01*
X958608Y-12639D01*
X959056Y-12858D01*
X959499Y-13087D01*
X959936Y-13328D01*
X960367Y-13579D01*
X960791Y-13841D01*
X961209Y-14113D01*
X961620Y-14395D01*
X962025Y-14687D01*
X962422Y-14989D01*
X962811Y-15300D01*
X963192Y-15622D01*
X963566Y-15952D01*
X963931Y-16291D01*
X964288Y-16640D01*
X964637Y-16997D01*
X964976Y-17362D01*
X965306Y-17736D01*
X965628Y-18117D01*
X965939Y-18506D01*
X966241Y-18903D01*
X966533Y-19308D01*
X966815Y-19719D01*
X967087Y-20137D01*
X967349Y-20561D01*
X967600Y-20992D01*
X967841Y-21429D01*
X968070Y-21872D01*
X968289Y-22320D01*
X968497Y-22773D01*
X968693Y-23232D01*
X968878Y-23695D01*
X969052Y-24162D01*
X969214Y-24634D01*
X969365Y-25109D01*
X969504Y-25588D01*
X969631Y-26071D01*
X969746Y-26556D01*
X969850Y-27044D01*
X969941Y-27534D01*
X970020Y-28026D01*
X970087Y-28521D01*
X970142Y-29016D01*
X970185Y-29513D01*
X970216Y-30011D01*
X970234Y-30509D01*
X970240Y-31008D01*
X970234Y-31507D01*
X970216Y-32005D01*
X970185Y-32503D01*
X970142Y-33000D01*
X970087Y-33495D01*
X970020Y-33990D01*
X969941Y-34482D01*
X969850Y-34972D01*
X969746Y-35460D01*
X969631Y-35945D01*
X969504Y-36428D01*
X969365Y-36907D01*
X969214Y-37382D01*
X969052Y-37854D01*
X968878Y-38321D01*
X968693Y-38784D01*
X968497Y-39243D01*
X968289Y-39696D01*
X968070Y-40144D01*
X967841Y-40587D01*
X967600Y-41024D01*
X967349Y-41455D01*
X967087Y-41879D01*
X966815Y-42297D01*
X966533Y-42708D01*
X966241Y-43113D01*
X965939Y-43510D01*
X965628Y-43899D01*
X965306Y-44280D01*
X964976Y-44654D01*
X964637Y-45019D01*
X964288Y-45376D01*
X963931Y-45725D01*
X963566Y-46064D01*
X963192Y-46394D01*
X962811Y-46716D01*
X962422Y-47027D01*
X962025Y-47329D01*
X961620Y-47621D01*
X961209Y-47903D01*
X960791Y-48175D01*
X960367Y-48437D01*
X959936Y-48688D01*
X959499Y-48929D01*
X959056Y-49158D01*
X958608Y-49377D01*
X958155Y-49585D01*
X957696Y-49781D01*
X957233Y-49966D01*
X956766Y-50140D01*
X956294Y-50302D01*
X955819Y-50453D01*
X955340Y-50592D01*
X954857Y-50719D01*
X954372Y-50834D01*
X953884Y-50938D01*
X953394Y-51029D01*
X952902Y-51108D01*
X952407Y-51175D01*
X951912Y-51230D01*
X951415Y-51273D01*
X950917Y-51304D01*
X950419Y-51322D01*
X949920Y-51328D01*
X949421Y-51322D01*
X948923Y-51304D01*
X948425Y-51273D01*
X947928Y-51230D01*
X947433Y-51175D01*
X946938Y-51108D01*
X946446Y-51029D01*
X945956Y-50938D01*
X945468Y-50834D01*
X944983Y-50719D01*
X944500Y-50592D01*
X944021Y-50453D01*
X943546Y-50302D01*
X943074Y-50140D01*
X942607Y-49966D01*
X942144Y-49781D01*
X941685Y-49585D01*
X941232Y-49377D01*
X940784Y-49158D01*
X940341Y-48929D01*
X939904Y-48688D01*
X939473Y-48437D01*
X939049Y-48175D01*
X938631Y-47903D01*
X938220Y-47621D01*
X937815Y-47329D01*
X937418Y-47027D01*
X937029Y-46716D01*
X936648Y-46394D01*
X936274Y-46064D01*
X935909Y-45725D01*
X935552Y-45376D01*
X935203Y-45019D01*
X934864Y-44654D01*
X934534Y-44280D01*
X934212Y-43899D01*
X933901Y-43510D01*
X933599Y-43113D01*
X933307Y-42708D01*
X933025Y-42297D01*
X932753Y-41879D01*
X932491Y-41455D01*
X932240Y-41024D01*
X931999Y-40587D01*
X931770Y-40144D01*
X931551Y-39696D01*
X931343Y-39243D01*
X931147Y-38784D01*
X930962Y-38321D01*
X930788Y-37854D01*
X930626Y-37382D01*
X930475Y-36907D01*
X930336Y-36428D01*
X930209Y-35945D01*
X930094Y-35460D01*
X929990Y-34972D01*
X929899Y-34482D01*
X929820Y-33990D01*
X929753Y-33495D01*
X929698Y-33000D01*
X929655Y-32503D01*
X929624Y-32005D01*
X929606Y-31507D01*
X929600Y-31008D01*
X929600Y770510D02*
X929606Y771009D01*
X929624Y771507D01*
X929655Y772005D01*
X929698Y772502D01*
X929753Y772997D01*
X929820Y773492D01*
X929899Y773984D01*
X929990Y774474D01*
X930094Y774962D01*
X930209Y775447D01*
X930336Y775930D01*
X930475Y776409D01*
X930626Y776884D01*
X930788Y777356D01*
X930962Y777823D01*
X931147Y778286D01*
X931343Y778745D01*
X931551Y779198D01*
X931770Y779646D01*
X931999Y780089D01*
X932240Y780526D01*
X932491Y780957D01*
X932753Y781381D01*
X933025Y781799D01*
X933307Y782210D01*
X933599Y782615D01*
X933901Y783012D01*
X934212Y783401D01*
X934534Y783782D01*
X934864Y784156D01*
X935203Y784521D01*
X935552Y784878D01*
X935909Y785227D01*
X936274Y785566D01*
X936648Y785896D01*
X937029Y786218D01*
X937418Y786529D01*
X937815Y786831D01*
X938220Y787123D01*
X938631Y787405D01*
X939049Y787677D01*
X939473Y787939D01*
X939904Y788190D01*
X940341Y788431D01*
X940784Y788660D01*
X941232Y788879D01*
X941685Y789087D01*
X942144Y789283D01*
X942607Y789468D01*
X943074Y789642D01*
X943546Y789804D01*
X944021Y789955D01*
X944500Y790094D01*
X944983Y790221D01*
X945468Y790336D01*
X945956Y790440D01*
X946446Y790531D01*
X946938Y790610D01*
X947433Y790677D01*
X947928Y790732D01*
X948425Y790775D01*
X948923Y790806D01*
X949421Y790824D01*
X949920Y790830D01*
X950419Y790824D01*
X950917Y790806D01*
X951415Y790775D01*
X951912Y790732D01*
X952407Y790677D01*
X952902Y790610D01*
X953394Y790531D01*
X953884Y790440D01*
X954372Y790336D01*
X954857Y790221D01*
X955340Y790094D01*
X955819Y789955D01*
X956294Y789804D01*
X956766Y789642D01*
X957233Y789468D01*
X957696Y789283D01*
X958155Y789087D01*
X958608Y788879D01*
X959056Y788660D01*
X959499Y788431D01*
X959936Y788190D01*
X960367Y787939D01*
X960791Y787677D01*
X961209Y787405D01*
X961620Y787123D01*
X962025Y786831D01*
X962422Y786529D01*
X962811Y786218D01*
X963192Y785896D01*
X963566Y785566D01*
X963931Y785227D01*
X964288Y784878D01*
X964637Y784521D01*
X964976Y784156D01*
X965306Y783782D01*
X965628Y783401D01*
X965939Y783012D01*
X966241Y782615D01*
X966533Y782210D01*
X966815Y781799D01*
X967087Y781381D01*
X967349Y780957D01*
X967600Y780526D01*
X967841Y780089D01*
X968070Y779646D01*
X968289Y779198D01*
X968497Y778745D01*
X968693Y778286D01*
X968878Y777823D01*
X969052Y777356D01*
X969214Y776884D01*
X969365Y776409D01*
X969504Y775930D01*
X969631Y775447D01*
X969746Y774962D01*
X969850Y774474D01*
X969941Y773984D01*
X970020Y773492D01*
X970087Y772997D01*
X970142Y772502D01*
X970185Y772005D01*
X970216Y771507D01*
X970234Y771009D01*
X970240Y770510D01*
X970234Y770011D01*
X970216Y769513D01*
X970185Y769015D01*
X970142Y768518D01*
X970087Y768023D01*
X970020Y767528D01*
X969941Y767036D01*
X969850Y766546D01*
X969746Y766058D01*
X969631Y765573D01*
X969504Y765090D01*
X969365Y764611D01*
X969214Y764136D01*
X969052Y763664D01*
X968878Y763197D01*
X968693Y762734D01*
X968497Y762275D01*
X968289Y761822D01*
X968070Y761374D01*
X967841Y760931D01*
X967600Y760494D01*
X967349Y760063D01*
X967087Y759639D01*
X966815Y759221D01*
X966533Y758810D01*
X966241Y758405D01*
X965939Y758008D01*
X965628Y757619D01*
X965306Y757238D01*
X964976Y756864D01*
X964637Y756499D01*
X964288Y756142D01*
X963931Y755793D01*
X963566Y755454D01*
X963192Y755124D01*
X962811Y754802D01*
X962422Y754491D01*
X962025Y754189D01*
X961620Y753897D01*
X961209Y753615D01*
X960791Y753343D01*
X960367Y753081D01*
X959936Y752830D01*
X959499Y752589D01*
X959056Y752360D01*
X958608Y752141D01*
X958155Y751933D01*
X957696Y751737D01*
X957233Y751552D01*
X956766Y751378D01*
X956294Y751216D01*
X955819Y751065D01*
X955340Y750926D01*
X954857Y750799D01*
X954372Y750684D01*
X953884Y750580D01*
X953394Y750489D01*
X952902Y750410D01*
X952407Y750343D01*
X951912Y750288D01*
X951415Y750245D01*
X950917Y750214D01*
X950419Y750196D01*
X949920Y750190D01*
X949421Y750196D01*
X948923Y750214D01*
X948425Y750245D01*
X947928Y750288D01*
X947433Y750343D01*
X946938Y750410D01*
X946446Y750489D01*
X945956Y750580D01*
X945468Y750684D01*
X944983Y750799D01*
X944500Y750926D01*
X944021Y751065D01*
X943546Y751216D01*
X943074Y751378D01*
X942607Y751552D01*
X942144Y751737D01*
X941685Y751933D01*
X941232Y752141D01*
X940784Y752360D01*
X940341Y752589D01*
X939904Y752830D01*
X939473Y753081D01*
X939049Y753343D01*
X938631Y753615D01*
X938220Y753897D01*
X937815Y754189D01*
X937418Y754491D01*
X937029Y754802D01*
X936648Y755124D01*
X936274Y755454D01*
X935909Y755793D01*
X935552Y756142D01*
X935203Y756499D01*
X934864Y756864D01*
X934534Y757238D01*
X934212Y757619D01*
X933901Y758008D01*
X933599Y758405D01*
X933307Y758810D01*
X933025Y759221D01*
X932753Y759639D01*
X932491Y760063D01*
X932240Y760494D01*
X931999Y760931D01*
X931770Y761374D01*
X931551Y761822D01*
X931343Y762275D01*
X931147Y762734D01*
X930962Y763197D01*
X930788Y763664D01*
X930626Y764136D01*
X930475Y764611D01*
X930336Y765090D01*
X930209Y765573D01*
X930094Y766058D01*
X929990Y766546D01*
X929899Y767036D01*
X929820Y767528D01*
X929753Y768023D01*
X929698Y768518D01*
X929655Y769015D01*
X929624Y769513D01*
X929606Y770011D01*
X929600Y770510D01*
X20480Y772000D02*
X20486Y772499D01*
X20504Y772997D01*
X20535Y773495D01*
X20578Y773992D01*
X20633Y774487D01*
X20700Y774982D01*
X20779Y775474D01*
X20870Y775964D01*
X20974Y776452D01*
X21089Y776937D01*
X21216Y777420D01*
X21355Y777899D01*
X21506Y778374D01*
X21668Y778846D01*
X21842Y779313D01*
X22027Y779776D01*
X22223Y780235D01*
X22431Y780688D01*
X22650Y781136D01*
X22879Y781579D01*
X23120Y782016D01*
X23371Y782447D01*
X23633Y782871D01*
X23905Y783289D01*
X24187Y783700D01*
X24479Y784105D01*
X24781Y784502D01*
X25092Y784891D01*
X25414Y785272D01*
X25744Y785646D01*
X26083Y786011D01*
X26432Y786368D01*
X26789Y786717D01*
X27154Y787056D01*
X27528Y787386D01*
X27909Y787708D01*
X28298Y788019D01*
X28695Y788321D01*
X29100Y788613D01*
X29511Y788895D01*
X29929Y789167D01*
X30353Y789429D01*
X30784Y789680D01*
X31221Y789921D01*
X31664Y790150D01*
X32112Y790369D01*
X32565Y790577D01*
X33024Y790773D01*
X33487Y790958D01*
X33954Y791132D01*
X34426Y791294D01*
X34901Y791445D01*
X35380Y791584D01*
X35863Y791711D01*
X36348Y791826D01*
X36836Y791930D01*
X37326Y792021D01*
X37818Y792100D01*
X38313Y792167D01*
X38808Y792222D01*
X39305Y792265D01*
X39803Y792296D01*
X40301Y792314D01*
X40800Y792320D01*
X41299Y792314D01*
X41797Y792296D01*
X42295Y792265D01*
X42792Y792222D01*
X43287Y792167D01*
X43782Y792100D01*
X44274Y792021D01*
X44764Y791930D01*
X45252Y791826D01*
X45737Y791711D01*
X46220Y791584D01*
X46699Y791445D01*
X47174Y791294D01*
X47646Y791132D01*
X48113Y790958D01*
X48576Y790773D01*
X49035Y790577D01*
X49488Y790369D01*
X49936Y790150D01*
X50379Y789921D01*
X50816Y789680D01*
X51247Y789429D01*
X51671Y789167D01*
X52089Y788895D01*
X52500Y788613D01*
X52905Y788321D01*
X53302Y788019D01*
X53691Y787708D01*
X54072Y787386D01*
X54446Y787056D01*
X54811Y786717D01*
X55168Y786368D01*
X55517Y786011D01*
X55856Y785646D01*
X56186Y785272D01*
X56508Y784891D01*
X56819Y784502D01*
X57121Y784105D01*
X57413Y783700D01*
X57695Y783289D01*
X57967Y782871D01*
X58229Y782447D01*
X58480Y782016D01*
X58721Y781579D01*
X58950Y781136D01*
X59169Y780688D01*
X59377Y780235D01*
X59573Y779776D01*
X59758Y779313D01*
X59932Y778846D01*
X60094Y778374D01*
X60245Y777899D01*
X60384Y777420D01*
X60511Y776937D01*
X60626Y776452D01*
X60730Y775964D01*
X60821Y775474D01*
X60900Y774982D01*
X60967Y774487D01*
X61022Y773992D01*
X61065Y773495D01*
X61096Y772997D01*
X61114Y772499D01*
X61120Y772000D01*
X61114Y771501D01*
X61096Y771003D01*
X61065Y770505D01*
X61022Y770008D01*
X60967Y769513D01*
X60900Y769018D01*
X60821Y768526D01*
X60730Y768036D01*
X60626Y767548D01*
X60511Y767063D01*
X60384Y766580D01*
X60245Y766101D01*
X60094Y765626D01*
X59932Y765154D01*
X59758Y764687D01*
X59573Y764224D01*
X59377Y763765D01*
X59169Y763312D01*
X58950Y762864D01*
X58721Y762421D01*
X58480Y761984D01*
X58229Y761553D01*
X57967Y761129D01*
X57695Y760711D01*
X57413Y760300D01*
X57121Y759895D01*
X56819Y759498D01*
X56508Y759109D01*
X56186Y758728D01*
X55856Y758354D01*
X55517Y757989D01*
X55168Y757632D01*
X54811Y757283D01*
X54446Y756944D01*
X54072Y756614D01*
X53691Y756292D01*
X53302Y755981D01*
X52905Y755679D01*
X52500Y755387D01*
X52089Y755105D01*
X51671Y754833D01*
X51247Y754571D01*
X50816Y754320D01*
X50379Y754079D01*
X49936Y753850D01*
X49488Y753631D01*
X49035Y753423D01*
X48576Y753227D01*
X48113Y753042D01*
X47646Y752868D01*
X47174Y752706D01*
X46699Y752555D01*
X46220Y752416D01*
X45737Y752289D01*
X45252Y752174D01*
X44764Y752070D01*
X44274Y751979D01*
X43782Y751900D01*
X43287Y751833D01*
X42792Y751778D01*
X42295Y751735D01*
X41797Y751704D01*
X41299Y751686D01*
X40800Y751680D01*
X40301Y751686D01*
X39803Y751704D01*
X39305Y751735D01*
X38808Y751778D01*
X38313Y751833D01*
X37818Y751900D01*
X37326Y751979D01*
X36836Y752070D01*
X36348Y752174D01*
X35863Y752289D01*
X35380Y752416D01*
X34901Y752555D01*
X34426Y752706D01*
X33954Y752868D01*
X33487Y753042D01*
X33024Y753227D01*
X32565Y753423D01*
X32112Y753631D01*
X31664Y753850D01*
X31221Y754079D01*
X30784Y754320D01*
X30353Y754571D01*
X29929Y754833D01*
X29511Y755105D01*
X29100Y755387D01*
X28695Y755679D01*
X28298Y755981D01*
X27909Y756292D01*
X27528Y756614D01*
X27154Y756944D01*
X26789Y757283D01*
X26432Y757632D01*
X26083Y757989D01*
X25744Y758354D01*
X25414Y758728D01*
X25092Y759109D01*
X24781Y759498D01*
X24479Y759895D01*
X24187Y760300D01*
X23905Y760711D01*
X23633Y761129D01*
X23371Y761553D01*
X23120Y761984D01*
X22879Y762421D01*
X22650Y762864D01*
X22431Y763312D01*
X22223Y763765D01*
X22027Y764224D01*
X21842Y764687D01*
X21668Y765154D01*
X21506Y765626D01*
X21355Y766101D01*
X21216Y766580D01*
X21089Y767063D01*
X20974Y767548D01*
X20870Y768036D01*
X20779Y768526D01*
X20700Y769018D01*
X20633Y769513D01*
X20578Y770008D01*
X20535Y770505D01*
X20504Y771003D01*
X20486Y771501D01*
X20480Y772000D01*
X19850Y-129850D02*
X19856Y-129351D01*
X19874Y-128853D01*
X19905Y-128355D01*
X19948Y-127858D01*
X20003Y-127363D01*
X20070Y-126868D01*
X20149Y-126376D01*
X20240Y-125886D01*
X20344Y-125398D01*
X20459Y-124913D01*
X20586Y-124430D01*
X20725Y-123951D01*
X20876Y-123476D01*
X21038Y-123004D01*
X21212Y-122537D01*
X21397Y-122074D01*
X21593Y-121615D01*
X21801Y-121162D01*
X22020Y-120714D01*
X22249Y-120271D01*
X22490Y-119834D01*
X22741Y-119403D01*
X23003Y-118979D01*
X23275Y-118561D01*
X23557Y-118150D01*
X23849Y-117745D01*
X24151Y-117348D01*
X24462Y-116959D01*
X24784Y-116578D01*
X25114Y-116204D01*
X25453Y-115839D01*
X25802Y-115482D01*
X26159Y-115133D01*
X26524Y-114794D01*
X26898Y-114464D01*
X27279Y-114142D01*
X27668Y-113831D01*
X28065Y-113529D01*
X28470Y-113237D01*
X28881Y-112955D01*
X29299Y-112683D01*
X29723Y-112421D01*
X30154Y-112170D01*
X30591Y-111929D01*
X31034Y-111700D01*
X31482Y-111481D01*
X31935Y-111273D01*
X32394Y-111077D01*
X32857Y-110892D01*
X33324Y-110718D01*
X33796Y-110556D01*
X34271Y-110405D01*
X34750Y-110266D01*
X35233Y-110139D01*
X35718Y-110024D01*
X36206Y-109920D01*
X36696Y-109829D01*
X37188Y-109750D01*
X37683Y-109683D01*
X38178Y-109628D01*
X38675Y-109585D01*
X39173Y-109554D01*
X39671Y-109536D01*
X40170Y-109530D01*
X40669Y-109536D01*
X41167Y-109554D01*
X41665Y-109585D01*
X42162Y-109628D01*
X42657Y-109683D01*
X43152Y-109750D01*
X43644Y-109829D01*
X44134Y-109920D01*
X44622Y-110024D01*
X45107Y-110139D01*
X45590Y-110266D01*
X46069Y-110405D01*
X46544Y-110556D01*
X47016Y-110718D01*
X47483Y-110892D01*
X47946Y-111077D01*
X48405Y-111273D01*
X48858Y-111481D01*
X49306Y-111700D01*
X49749Y-111929D01*
X50186Y-112170D01*
X50617Y-112421D01*
X51041Y-112683D01*
X51459Y-112955D01*
X51870Y-113237D01*
X52275Y-113529D01*
X52672Y-113831D01*
X53061Y-114142D01*
X53442Y-114464D01*
X53816Y-114794D01*
X54181Y-115133D01*
X54538Y-115482D01*
X54887Y-115839D01*
X55226Y-116204D01*
X55556Y-116578D01*
X55878Y-116959D01*
X56189Y-117348D01*
X56491Y-117745D01*
X56783Y-118150D01*
X57065Y-118561D01*
X57337Y-118979D01*
X57599Y-119403D01*
X57850Y-119834D01*
X58091Y-120271D01*
X58320Y-120714D01*
X58539Y-121162D01*
X58747Y-121615D01*
X58943Y-122074D01*
X59128Y-122537D01*
X59302Y-123004D01*
X59464Y-123476D01*
X59615Y-123951D01*
X59754Y-124430D01*
X59881Y-124913D01*
X59996Y-125398D01*
X60100Y-125886D01*
X60191Y-126376D01*
X60270Y-126868D01*
X60337Y-127363D01*
X60392Y-127858D01*
X60435Y-128355D01*
X60466Y-128853D01*
X60484Y-129351D01*
X60490Y-129850D01*
X60484Y-130349D01*
X60466Y-130847D01*
X60435Y-131345D01*
X60392Y-131842D01*
X60337Y-132337D01*
X60270Y-132832D01*
X60191Y-133324D01*
X60100Y-133814D01*
X59996Y-134302D01*
X59881Y-134787D01*
X59754Y-135270D01*
X59615Y-135749D01*
X59464Y-136224D01*
X59302Y-136696D01*
X59128Y-137163D01*
X58943Y-137626D01*
X58747Y-138085D01*
X58539Y-138538D01*
X58320Y-138986D01*
X58091Y-139429D01*
X57850Y-139866D01*
X57599Y-140297D01*
X57337Y-140721D01*
X57065Y-141139D01*
X56783Y-141550D01*
X56491Y-141955D01*
X56189Y-142352D01*
X55878Y-142741D01*
X55556Y-143122D01*
X55226Y-143496D01*
X54887Y-143861D01*
X54538Y-144218D01*
X54181Y-144567D01*
X53816Y-144906D01*
X53442Y-145236D01*
X53061Y-145558D01*
X52672Y-145869D01*
X52275Y-146171D01*
X51870Y-146463D01*
X51459Y-146745D01*
X51041Y-147017D01*
X50617Y-147279D01*
X50186Y-147530D01*
X49749Y-147771D01*
X49306Y-148000D01*
X48858Y-148219D01*
X48405Y-148427D01*
X47946Y-148623D01*
X47483Y-148808D01*
X47016Y-148982D01*
X46544Y-149144D01*
X46069Y-149295D01*
X45590Y-149434D01*
X45107Y-149561D01*
X44622Y-149676D01*
X44134Y-149780D01*
X43644Y-149871D01*
X43152Y-149950D01*
X42657Y-150017D01*
X42162Y-150072D01*
X41665Y-150115D01*
X41167Y-150146D01*
X40669Y-150164D01*
X40170Y-150170D01*
X39671Y-150164D01*
X39173Y-150146D01*
X38675Y-150115D01*
X38178Y-150072D01*
X37683Y-150017D01*
X37188Y-149950D01*
X36696Y-149871D01*
X36206Y-149780D01*
X35718Y-149676D01*
X35233Y-149561D01*
X34750Y-149434D01*
X34271Y-149295D01*
X33796Y-149144D01*
X33324Y-148982D01*
X32857Y-148808D01*
X32394Y-148623D01*
X31935Y-148427D01*
X31482Y-148219D01*
X31034Y-148000D01*
X30591Y-147771D01*
X30154Y-147530D01*
X29723Y-147279D01*
X29299Y-147017D01*
X28881Y-146745D01*
X28470Y-146463D01*
X28065Y-146171D01*
X27668Y-145869D01*
X27279Y-145558D01*
X26898Y-145236D01*
X26524Y-144906D01*
X26159Y-144567D01*
X25802Y-144218D01*
X25453Y-143861D01*
X25114Y-143496D01*
X24784Y-143122D01*
X24462Y-142741D01*
X24151Y-142352D01*
X23849Y-141955D01*
X23557Y-141550D01*
X23275Y-141139D01*
X23003Y-140721D01*
X22741Y-140297D01*
X22490Y-139866D01*
X22249Y-139429D01*
X22020Y-138986D01*
X21801Y-138538D01*
X21593Y-138085D01*
X21397Y-137626D01*
X21212Y-137163D01*
X21038Y-136696D01*
X20876Y-136224D01*
X20725Y-135749D01*
X20586Y-135270D01*
X20459Y-134787D01*
X20344Y-134302D01*
X20240Y-133814D01*
X20149Y-133324D01*
X20070Y-132832D01*
X20003Y-132337D01*
X19948Y-131842D01*
X19905Y-131345D01*
X19874Y-130847D01*
X19856Y-130349D01*
X19850Y-129850D01*
M02*
