G04 EAGLE Gerber X2 export*
%TF.Part,Single*%
%TF.FileFunction,Other,Top Layer*%
%TF.FilePolarity,Positive*%
%TF.GenerationSoftware,Autodesk,EAGLE,9.1.2*%
%TF.CreationDate,2019-01-18T12:57:07Z*%
G75*
%MOMM*%
%FSLAX34Y34*%
%LPD*%
%AMOC8*
5,1,8,0,0,1.08239X$1,22.5*%
G01*
%ADD10C,0.000000*%
%ADD11C,1.308000*%
%ADD12C,1.600200*%
%ADD13P,1.429621X8X22.500000*%
%ADD14C,1.320800*%
%ADD15C,1.676400*%
%ADD16C,1.208000*%
%ADD17C,1.408000*%
%ADD18C,1.930400*%
%ADD19C,1.790700*%
%ADD20C,1.800000*%
%ADD21C,1.524000*%
%ADD22P,2.110661X8X202.500000*%
%ADD23C,2.250000*%
%ADD24C,1.016000*%
%ADD25C,0.152400*%
%ADD26C,0.756400*%


D10*
X0Y-187960D02*
X1000000Y-187960D01*
X1000000Y812700D01*
X0Y812700D01*
X0Y-187960D01*
D11*
X383540Y406400D03*
X408940Y406400D03*
X434340Y406400D03*
X889000Y584200D03*
X889000Y609600D03*
X889000Y635000D03*
X723900Y770890D03*
X749300Y770890D03*
X774700Y770890D03*
X723900Y715010D03*
X749300Y715010D03*
X774700Y715010D03*
D12*
X204470Y394970D03*
X179070Y394970D03*
X361950Y643890D03*
X336550Y643890D03*
X426720Y642620D03*
X401320Y642620D03*
D11*
X38100Y112400D03*
X63500Y112400D03*
X88900Y112400D03*
D12*
X185740Y106680D03*
X160340Y106680D03*
D11*
X723900Y659130D03*
X749300Y659130D03*
X774700Y659130D03*
D13*
X279400Y127000D03*
X304800Y127000D03*
X293370Y444500D03*
X318770Y444500D03*
X294640Y347980D03*
X320040Y347980D03*
X294640Y396240D03*
X320040Y396240D03*
X279400Y80010D03*
X304800Y80010D03*
X279400Y173990D03*
X304800Y173990D03*
D14*
X215900Y762000D03*
X215900Y736600D03*
X215900Y609600D03*
X292100Y609600D03*
X215900Y711200D03*
X215900Y685800D03*
X215900Y635000D03*
X215900Y660400D03*
X292100Y635000D03*
X292100Y660400D03*
X292100Y685800D03*
X292100Y711200D03*
X292100Y736600D03*
X292100Y762000D03*
X372320Y542510D03*
X372320Y517110D03*
X448520Y517110D03*
X448520Y542510D03*
X372320Y491710D03*
X372320Y466310D03*
X448520Y491710D03*
X448520Y466310D03*
X38100Y279400D03*
X38100Y254000D03*
X114300Y254000D03*
X114300Y279400D03*
X38100Y228600D03*
X38100Y203200D03*
X114300Y228600D03*
X114300Y203200D03*
D15*
X830580Y780790D03*
X830580Y646440D03*
D14*
X167640Y335280D03*
X218440Y335280D03*
X193040Y335280D03*
D11*
X353540Y335280D03*
X371320Y335280D03*
X389100Y335280D03*
D16*
X293210Y534670D03*
X308450Y534670D03*
X323690Y534670D03*
X293090Y491710D03*
X308330Y491710D03*
X323570Y491710D03*
D14*
X182880Y43180D03*
X233680Y43180D03*
X208280Y43180D03*
D11*
X104140Y55250D03*
X121920Y55250D03*
X139700Y55250D03*
D16*
X276860Y266700D03*
X292100Y266700D03*
X307340Y266700D03*
X276860Y215900D03*
X292100Y215900D03*
X307340Y215900D03*
D14*
X575310Y492760D03*
X626110Y492760D03*
X600710Y492760D03*
X325120Y746760D03*
X426720Y746760D03*
X22860Y457200D03*
X124460Y457200D03*
X341630Y182880D03*
X443230Y182880D03*
X341630Y152400D03*
X443230Y152400D03*
X341630Y60960D03*
X443230Y60960D03*
X341630Y213360D03*
X443230Y213360D03*
X341630Y121920D03*
X443230Y121920D03*
X341630Y274320D03*
X443230Y274320D03*
X341630Y91440D03*
X443230Y91440D03*
X341630Y243840D03*
X443230Y243840D03*
X585470Y744220D03*
X687070Y744220D03*
X325120Y688340D03*
X426720Y688340D03*
X585470Y774700D03*
X687070Y774700D03*
X585470Y683260D03*
X687070Y683260D03*
X585470Y713740D03*
X687070Y713740D03*
D17*
X467360Y629920D03*
X492760Y629920D03*
X518160Y629920D03*
X467360Y690880D03*
X492760Y690880D03*
X518160Y690880D03*
X172720Y455930D03*
X198120Y455930D03*
X223520Y455930D03*
X165100Y177800D03*
X190500Y177800D03*
X215900Y177800D03*
D14*
X22860Y487680D03*
X124460Y487680D03*
X22860Y396240D03*
X124460Y396240D03*
X22860Y335280D03*
X124460Y335280D03*
X22860Y518160D03*
X124460Y518160D03*
X22860Y548640D03*
X124460Y548640D03*
X22860Y426720D03*
X124460Y426720D03*
X22860Y365760D03*
X124460Y365760D03*
D18*
X175260Y779780D03*
X175260Y754380D03*
X175260Y728980D03*
X175260Y703580D03*
X175260Y678180D03*
X175260Y652780D03*
X99060Y627380D03*
X73660Y627380D03*
X48260Y627380D03*
X99060Y576580D03*
X73660Y576580D03*
X48260Y576580D03*
D19*
X968890Y645870D03*
X968890Y696670D03*
X969010Y63990D03*
X969010Y114790D03*
D14*
X528320Y749300D03*
X452120Y749300D03*
X402590Y716280D03*
X326390Y716280D03*
X797560Y458470D03*
X797560Y382270D03*
X234950Y543560D03*
X158750Y543560D03*
X233680Y505460D03*
X157480Y505460D03*
X233680Y278130D03*
X157480Y278130D03*
X233680Y240030D03*
X157480Y240030D03*
D11*
X723900Y491490D03*
X749300Y491490D03*
X774700Y491490D03*
D15*
X830580Y489210D03*
X830580Y623560D03*
D11*
X723900Y603250D03*
X749300Y603250D03*
X774700Y603250D03*
X879000Y701040D03*
X879000Y726440D03*
X879000Y751840D03*
X723900Y547370D03*
X749300Y547370D03*
X774700Y547370D03*
D14*
X645160Y492760D03*
X695960Y492760D03*
X670560Y492760D03*
X585470Y561340D03*
X687070Y561340D03*
X585470Y622300D03*
X687070Y622300D03*
X585470Y652780D03*
X687070Y652780D03*
X585470Y591820D03*
X687070Y591820D03*
D19*
X969010Y539750D03*
X969010Y590550D03*
D14*
X848360Y459740D03*
X848360Y383540D03*
X890270Y483870D03*
X890270Y458470D03*
X890270Y331470D03*
X966470Y331470D03*
X890270Y433070D03*
X890270Y407670D03*
X890270Y356870D03*
X890270Y382270D03*
X966470Y356870D03*
X966470Y382270D03*
X966470Y407670D03*
X966470Y433070D03*
X966470Y458470D03*
X966470Y483870D03*
D10*
X929600Y-31008D02*
X929606Y-30509D01*
X929624Y-30011D01*
X929655Y-29513D01*
X929698Y-29016D01*
X929753Y-28521D01*
X929820Y-28026D01*
X929899Y-27534D01*
X929990Y-27044D01*
X930094Y-26556D01*
X930209Y-26071D01*
X930336Y-25588D01*
X930475Y-25109D01*
X930626Y-24634D01*
X930788Y-24162D01*
X930962Y-23695D01*
X931147Y-23232D01*
X931343Y-22773D01*
X931551Y-22320D01*
X931770Y-21872D01*
X931999Y-21429D01*
X932240Y-20992D01*
X932491Y-20561D01*
X932753Y-20137D01*
X933025Y-19719D01*
X933307Y-19308D01*
X933599Y-18903D01*
X933901Y-18506D01*
X934212Y-18117D01*
X934534Y-17736D01*
X934864Y-17362D01*
X935203Y-16997D01*
X935552Y-16640D01*
X935909Y-16291D01*
X936274Y-15952D01*
X936648Y-15622D01*
X937029Y-15300D01*
X937418Y-14989D01*
X937815Y-14687D01*
X938220Y-14395D01*
X938631Y-14113D01*
X939049Y-13841D01*
X939473Y-13579D01*
X939904Y-13328D01*
X940341Y-13087D01*
X940784Y-12858D01*
X941232Y-12639D01*
X941685Y-12431D01*
X942144Y-12235D01*
X942607Y-12050D01*
X943074Y-11876D01*
X943546Y-11714D01*
X944021Y-11563D01*
X944500Y-11424D01*
X944983Y-11297D01*
X945468Y-11182D01*
X945956Y-11078D01*
X946446Y-10987D01*
X946938Y-10908D01*
X947433Y-10841D01*
X947928Y-10786D01*
X948425Y-10743D01*
X948923Y-10712D01*
X949421Y-10694D01*
X949920Y-10688D01*
X950419Y-10694D01*
X950917Y-10712D01*
X951415Y-10743D01*
X951912Y-10786D01*
X952407Y-10841D01*
X952902Y-10908D01*
X953394Y-10987D01*
X953884Y-11078D01*
X954372Y-11182D01*
X954857Y-11297D01*
X955340Y-11424D01*
X955819Y-11563D01*
X956294Y-11714D01*
X956766Y-11876D01*
X957233Y-12050D01*
X957696Y-12235D01*
X958155Y-12431D01*
X958608Y-12639D01*
X959056Y-12858D01*
X959499Y-13087D01*
X959936Y-13328D01*
X960367Y-13579D01*
X960791Y-13841D01*
X961209Y-14113D01*
X961620Y-14395D01*
X962025Y-14687D01*
X962422Y-14989D01*
X962811Y-15300D01*
X963192Y-15622D01*
X963566Y-15952D01*
X963931Y-16291D01*
X964288Y-16640D01*
X964637Y-16997D01*
X964976Y-17362D01*
X965306Y-17736D01*
X965628Y-18117D01*
X965939Y-18506D01*
X966241Y-18903D01*
X966533Y-19308D01*
X966815Y-19719D01*
X967087Y-20137D01*
X967349Y-20561D01*
X967600Y-20992D01*
X967841Y-21429D01*
X968070Y-21872D01*
X968289Y-22320D01*
X968497Y-22773D01*
X968693Y-23232D01*
X968878Y-23695D01*
X969052Y-24162D01*
X969214Y-24634D01*
X969365Y-25109D01*
X969504Y-25588D01*
X969631Y-26071D01*
X969746Y-26556D01*
X969850Y-27044D01*
X969941Y-27534D01*
X970020Y-28026D01*
X970087Y-28521D01*
X970142Y-29016D01*
X970185Y-29513D01*
X970216Y-30011D01*
X970234Y-30509D01*
X970240Y-31008D01*
X970234Y-31507D01*
X970216Y-32005D01*
X970185Y-32503D01*
X970142Y-33000D01*
X970087Y-33495D01*
X970020Y-33990D01*
X969941Y-34482D01*
X969850Y-34972D01*
X969746Y-35460D01*
X969631Y-35945D01*
X969504Y-36428D01*
X969365Y-36907D01*
X969214Y-37382D01*
X969052Y-37854D01*
X968878Y-38321D01*
X968693Y-38784D01*
X968497Y-39243D01*
X968289Y-39696D01*
X968070Y-40144D01*
X967841Y-40587D01*
X967600Y-41024D01*
X967349Y-41455D01*
X967087Y-41879D01*
X966815Y-42297D01*
X966533Y-42708D01*
X966241Y-43113D01*
X965939Y-43510D01*
X965628Y-43899D01*
X965306Y-44280D01*
X964976Y-44654D01*
X964637Y-45019D01*
X964288Y-45376D01*
X963931Y-45725D01*
X963566Y-46064D01*
X963192Y-46394D01*
X962811Y-46716D01*
X962422Y-47027D01*
X962025Y-47329D01*
X961620Y-47621D01*
X961209Y-47903D01*
X960791Y-48175D01*
X960367Y-48437D01*
X959936Y-48688D01*
X959499Y-48929D01*
X959056Y-49158D01*
X958608Y-49377D01*
X958155Y-49585D01*
X957696Y-49781D01*
X957233Y-49966D01*
X956766Y-50140D01*
X956294Y-50302D01*
X955819Y-50453D01*
X955340Y-50592D01*
X954857Y-50719D01*
X954372Y-50834D01*
X953884Y-50938D01*
X953394Y-51029D01*
X952902Y-51108D01*
X952407Y-51175D01*
X951912Y-51230D01*
X951415Y-51273D01*
X950917Y-51304D01*
X950419Y-51322D01*
X949920Y-51328D01*
X949421Y-51322D01*
X948923Y-51304D01*
X948425Y-51273D01*
X947928Y-51230D01*
X947433Y-51175D01*
X946938Y-51108D01*
X946446Y-51029D01*
X945956Y-50938D01*
X945468Y-50834D01*
X944983Y-50719D01*
X944500Y-50592D01*
X944021Y-50453D01*
X943546Y-50302D01*
X943074Y-50140D01*
X942607Y-49966D01*
X942144Y-49781D01*
X941685Y-49585D01*
X941232Y-49377D01*
X940784Y-49158D01*
X940341Y-48929D01*
X939904Y-48688D01*
X939473Y-48437D01*
X939049Y-48175D01*
X938631Y-47903D01*
X938220Y-47621D01*
X937815Y-47329D01*
X937418Y-47027D01*
X937029Y-46716D01*
X936648Y-46394D01*
X936274Y-46064D01*
X935909Y-45725D01*
X935552Y-45376D01*
X935203Y-45019D01*
X934864Y-44654D01*
X934534Y-44280D01*
X934212Y-43899D01*
X933901Y-43510D01*
X933599Y-43113D01*
X933307Y-42708D01*
X933025Y-42297D01*
X932753Y-41879D01*
X932491Y-41455D01*
X932240Y-41024D01*
X931999Y-40587D01*
X931770Y-40144D01*
X931551Y-39696D01*
X931343Y-39243D01*
X931147Y-38784D01*
X930962Y-38321D01*
X930788Y-37854D01*
X930626Y-37382D01*
X930475Y-36907D01*
X930336Y-36428D01*
X930209Y-35945D01*
X930094Y-35460D01*
X929990Y-34972D01*
X929899Y-34482D01*
X929820Y-33990D01*
X929753Y-33495D01*
X929698Y-33000D01*
X929655Y-32503D01*
X929624Y-32005D01*
X929606Y-31507D01*
X929600Y-31008D01*
X929600Y770510D02*
X929606Y771009D01*
X929624Y771507D01*
X929655Y772005D01*
X929698Y772502D01*
X929753Y772997D01*
X929820Y773492D01*
X929899Y773984D01*
X929990Y774474D01*
X930094Y774962D01*
X930209Y775447D01*
X930336Y775930D01*
X930475Y776409D01*
X930626Y776884D01*
X930788Y777356D01*
X930962Y777823D01*
X931147Y778286D01*
X931343Y778745D01*
X931551Y779198D01*
X931770Y779646D01*
X931999Y780089D01*
X932240Y780526D01*
X932491Y780957D01*
X932753Y781381D01*
X933025Y781799D01*
X933307Y782210D01*
X933599Y782615D01*
X933901Y783012D01*
X934212Y783401D01*
X934534Y783782D01*
X934864Y784156D01*
X935203Y784521D01*
X935552Y784878D01*
X935909Y785227D01*
X936274Y785566D01*
X936648Y785896D01*
X937029Y786218D01*
X937418Y786529D01*
X937815Y786831D01*
X938220Y787123D01*
X938631Y787405D01*
X939049Y787677D01*
X939473Y787939D01*
X939904Y788190D01*
X940341Y788431D01*
X940784Y788660D01*
X941232Y788879D01*
X941685Y789087D01*
X942144Y789283D01*
X942607Y789468D01*
X943074Y789642D01*
X943546Y789804D01*
X944021Y789955D01*
X944500Y790094D01*
X944983Y790221D01*
X945468Y790336D01*
X945956Y790440D01*
X946446Y790531D01*
X946938Y790610D01*
X947433Y790677D01*
X947928Y790732D01*
X948425Y790775D01*
X948923Y790806D01*
X949421Y790824D01*
X949920Y790830D01*
X950419Y790824D01*
X950917Y790806D01*
X951415Y790775D01*
X951912Y790732D01*
X952407Y790677D01*
X952902Y790610D01*
X953394Y790531D01*
X953884Y790440D01*
X954372Y790336D01*
X954857Y790221D01*
X955340Y790094D01*
X955819Y789955D01*
X956294Y789804D01*
X956766Y789642D01*
X957233Y789468D01*
X957696Y789283D01*
X958155Y789087D01*
X958608Y788879D01*
X959056Y788660D01*
X959499Y788431D01*
X959936Y788190D01*
X960367Y787939D01*
X960791Y787677D01*
X961209Y787405D01*
X961620Y787123D01*
X962025Y786831D01*
X962422Y786529D01*
X962811Y786218D01*
X963192Y785896D01*
X963566Y785566D01*
X963931Y785227D01*
X964288Y784878D01*
X964637Y784521D01*
X964976Y784156D01*
X965306Y783782D01*
X965628Y783401D01*
X965939Y783012D01*
X966241Y782615D01*
X966533Y782210D01*
X966815Y781799D01*
X967087Y781381D01*
X967349Y780957D01*
X967600Y780526D01*
X967841Y780089D01*
X968070Y779646D01*
X968289Y779198D01*
X968497Y778745D01*
X968693Y778286D01*
X968878Y777823D01*
X969052Y777356D01*
X969214Y776884D01*
X969365Y776409D01*
X969504Y775930D01*
X969631Y775447D01*
X969746Y774962D01*
X969850Y774474D01*
X969941Y773984D01*
X970020Y773492D01*
X970087Y772997D01*
X970142Y772502D01*
X970185Y772005D01*
X970216Y771507D01*
X970234Y771009D01*
X970240Y770510D01*
X970234Y770011D01*
X970216Y769513D01*
X970185Y769015D01*
X970142Y768518D01*
X970087Y768023D01*
X970020Y767528D01*
X969941Y767036D01*
X969850Y766546D01*
X969746Y766058D01*
X969631Y765573D01*
X969504Y765090D01*
X969365Y764611D01*
X969214Y764136D01*
X969052Y763664D01*
X968878Y763197D01*
X968693Y762734D01*
X968497Y762275D01*
X968289Y761822D01*
X968070Y761374D01*
X967841Y760931D01*
X967600Y760494D01*
X967349Y760063D01*
X967087Y759639D01*
X966815Y759221D01*
X966533Y758810D01*
X966241Y758405D01*
X965939Y758008D01*
X965628Y757619D01*
X965306Y757238D01*
X964976Y756864D01*
X964637Y756499D01*
X964288Y756142D01*
X963931Y755793D01*
X963566Y755454D01*
X963192Y755124D01*
X962811Y754802D01*
X962422Y754491D01*
X962025Y754189D01*
X961620Y753897D01*
X961209Y753615D01*
X960791Y753343D01*
X960367Y753081D01*
X959936Y752830D01*
X959499Y752589D01*
X959056Y752360D01*
X958608Y752141D01*
X958155Y751933D01*
X957696Y751737D01*
X957233Y751552D01*
X956766Y751378D01*
X956294Y751216D01*
X955819Y751065D01*
X955340Y750926D01*
X954857Y750799D01*
X954372Y750684D01*
X953884Y750580D01*
X953394Y750489D01*
X952902Y750410D01*
X952407Y750343D01*
X951912Y750288D01*
X951415Y750245D01*
X950917Y750214D01*
X950419Y750196D01*
X949920Y750190D01*
X949421Y750196D01*
X948923Y750214D01*
X948425Y750245D01*
X947928Y750288D01*
X947433Y750343D01*
X946938Y750410D01*
X946446Y750489D01*
X945956Y750580D01*
X945468Y750684D01*
X944983Y750799D01*
X944500Y750926D01*
X944021Y751065D01*
X943546Y751216D01*
X943074Y751378D01*
X942607Y751552D01*
X942144Y751737D01*
X941685Y751933D01*
X941232Y752141D01*
X940784Y752360D01*
X940341Y752589D01*
X939904Y752830D01*
X939473Y753081D01*
X939049Y753343D01*
X938631Y753615D01*
X938220Y753897D01*
X937815Y754189D01*
X937418Y754491D01*
X937029Y754802D01*
X936648Y755124D01*
X936274Y755454D01*
X935909Y755793D01*
X935552Y756142D01*
X935203Y756499D01*
X934864Y756864D01*
X934534Y757238D01*
X934212Y757619D01*
X933901Y758008D01*
X933599Y758405D01*
X933307Y758810D01*
X933025Y759221D01*
X932753Y759639D01*
X932491Y760063D01*
X932240Y760494D01*
X931999Y760931D01*
X931770Y761374D01*
X931551Y761822D01*
X931343Y762275D01*
X931147Y762734D01*
X930962Y763197D01*
X930788Y763664D01*
X930626Y764136D01*
X930475Y764611D01*
X930336Y765090D01*
X930209Y765573D01*
X930094Y766058D01*
X929990Y766546D01*
X929899Y767036D01*
X929820Y767528D01*
X929753Y768023D01*
X929698Y768518D01*
X929655Y769015D01*
X929624Y769513D01*
X929606Y770011D01*
X929600Y770510D01*
X20480Y772000D02*
X20486Y772499D01*
X20504Y772997D01*
X20535Y773495D01*
X20578Y773992D01*
X20633Y774487D01*
X20700Y774982D01*
X20779Y775474D01*
X20870Y775964D01*
X20974Y776452D01*
X21089Y776937D01*
X21216Y777420D01*
X21355Y777899D01*
X21506Y778374D01*
X21668Y778846D01*
X21842Y779313D01*
X22027Y779776D01*
X22223Y780235D01*
X22431Y780688D01*
X22650Y781136D01*
X22879Y781579D01*
X23120Y782016D01*
X23371Y782447D01*
X23633Y782871D01*
X23905Y783289D01*
X24187Y783700D01*
X24479Y784105D01*
X24781Y784502D01*
X25092Y784891D01*
X25414Y785272D01*
X25744Y785646D01*
X26083Y786011D01*
X26432Y786368D01*
X26789Y786717D01*
X27154Y787056D01*
X27528Y787386D01*
X27909Y787708D01*
X28298Y788019D01*
X28695Y788321D01*
X29100Y788613D01*
X29511Y788895D01*
X29929Y789167D01*
X30353Y789429D01*
X30784Y789680D01*
X31221Y789921D01*
X31664Y790150D01*
X32112Y790369D01*
X32565Y790577D01*
X33024Y790773D01*
X33487Y790958D01*
X33954Y791132D01*
X34426Y791294D01*
X34901Y791445D01*
X35380Y791584D01*
X35863Y791711D01*
X36348Y791826D01*
X36836Y791930D01*
X37326Y792021D01*
X37818Y792100D01*
X38313Y792167D01*
X38808Y792222D01*
X39305Y792265D01*
X39803Y792296D01*
X40301Y792314D01*
X40800Y792320D01*
X41299Y792314D01*
X41797Y792296D01*
X42295Y792265D01*
X42792Y792222D01*
X43287Y792167D01*
X43782Y792100D01*
X44274Y792021D01*
X44764Y791930D01*
X45252Y791826D01*
X45737Y791711D01*
X46220Y791584D01*
X46699Y791445D01*
X47174Y791294D01*
X47646Y791132D01*
X48113Y790958D01*
X48576Y790773D01*
X49035Y790577D01*
X49488Y790369D01*
X49936Y790150D01*
X50379Y789921D01*
X50816Y789680D01*
X51247Y789429D01*
X51671Y789167D01*
X52089Y788895D01*
X52500Y788613D01*
X52905Y788321D01*
X53302Y788019D01*
X53691Y787708D01*
X54072Y787386D01*
X54446Y787056D01*
X54811Y786717D01*
X55168Y786368D01*
X55517Y786011D01*
X55856Y785646D01*
X56186Y785272D01*
X56508Y784891D01*
X56819Y784502D01*
X57121Y784105D01*
X57413Y783700D01*
X57695Y783289D01*
X57967Y782871D01*
X58229Y782447D01*
X58480Y782016D01*
X58721Y781579D01*
X58950Y781136D01*
X59169Y780688D01*
X59377Y780235D01*
X59573Y779776D01*
X59758Y779313D01*
X59932Y778846D01*
X60094Y778374D01*
X60245Y777899D01*
X60384Y777420D01*
X60511Y776937D01*
X60626Y776452D01*
X60730Y775964D01*
X60821Y775474D01*
X60900Y774982D01*
X60967Y774487D01*
X61022Y773992D01*
X61065Y773495D01*
X61096Y772997D01*
X61114Y772499D01*
X61120Y772000D01*
X61114Y771501D01*
X61096Y771003D01*
X61065Y770505D01*
X61022Y770008D01*
X60967Y769513D01*
X60900Y769018D01*
X60821Y768526D01*
X60730Y768036D01*
X60626Y767548D01*
X60511Y767063D01*
X60384Y766580D01*
X60245Y766101D01*
X60094Y765626D01*
X59932Y765154D01*
X59758Y764687D01*
X59573Y764224D01*
X59377Y763765D01*
X59169Y763312D01*
X58950Y762864D01*
X58721Y762421D01*
X58480Y761984D01*
X58229Y761553D01*
X57967Y761129D01*
X57695Y760711D01*
X57413Y760300D01*
X57121Y759895D01*
X56819Y759498D01*
X56508Y759109D01*
X56186Y758728D01*
X55856Y758354D01*
X55517Y757989D01*
X55168Y757632D01*
X54811Y757283D01*
X54446Y756944D01*
X54072Y756614D01*
X53691Y756292D01*
X53302Y755981D01*
X52905Y755679D01*
X52500Y755387D01*
X52089Y755105D01*
X51671Y754833D01*
X51247Y754571D01*
X50816Y754320D01*
X50379Y754079D01*
X49936Y753850D01*
X49488Y753631D01*
X49035Y753423D01*
X48576Y753227D01*
X48113Y753042D01*
X47646Y752868D01*
X47174Y752706D01*
X46699Y752555D01*
X46220Y752416D01*
X45737Y752289D01*
X45252Y752174D01*
X44764Y752070D01*
X44274Y751979D01*
X43782Y751900D01*
X43287Y751833D01*
X42792Y751778D01*
X42295Y751735D01*
X41797Y751704D01*
X41299Y751686D01*
X40800Y751680D01*
X40301Y751686D01*
X39803Y751704D01*
X39305Y751735D01*
X38808Y751778D01*
X38313Y751833D01*
X37818Y751900D01*
X37326Y751979D01*
X36836Y752070D01*
X36348Y752174D01*
X35863Y752289D01*
X35380Y752416D01*
X34901Y752555D01*
X34426Y752706D01*
X33954Y752868D01*
X33487Y753042D01*
X33024Y753227D01*
X32565Y753423D01*
X32112Y753631D01*
X31664Y753850D01*
X31221Y754079D01*
X30784Y754320D01*
X30353Y754571D01*
X29929Y754833D01*
X29511Y755105D01*
X29100Y755387D01*
X28695Y755679D01*
X28298Y755981D01*
X27909Y756292D01*
X27528Y756614D01*
X27154Y756944D01*
X26789Y757283D01*
X26432Y757632D01*
X26083Y757989D01*
X25744Y758354D01*
X25414Y758728D01*
X25092Y759109D01*
X24781Y759498D01*
X24479Y759895D01*
X24187Y760300D01*
X23905Y760711D01*
X23633Y761129D01*
X23371Y761553D01*
X23120Y761984D01*
X22879Y762421D01*
X22650Y762864D01*
X22431Y763312D01*
X22223Y763765D01*
X22027Y764224D01*
X21842Y764687D01*
X21668Y765154D01*
X21506Y765626D01*
X21355Y766101D01*
X21216Y766580D01*
X21089Y767063D01*
X20974Y767548D01*
X20870Y768036D01*
X20779Y768526D01*
X20700Y769018D01*
X20633Y769513D01*
X20578Y770008D01*
X20535Y770505D01*
X20504Y771003D01*
X20486Y771501D01*
X20480Y772000D01*
X19850Y-129850D02*
X19856Y-129351D01*
X19874Y-128853D01*
X19905Y-128355D01*
X19948Y-127858D01*
X20003Y-127363D01*
X20070Y-126868D01*
X20149Y-126376D01*
X20240Y-125886D01*
X20344Y-125398D01*
X20459Y-124913D01*
X20586Y-124430D01*
X20725Y-123951D01*
X20876Y-123476D01*
X21038Y-123004D01*
X21212Y-122537D01*
X21397Y-122074D01*
X21593Y-121615D01*
X21801Y-121162D01*
X22020Y-120714D01*
X22249Y-120271D01*
X22490Y-119834D01*
X22741Y-119403D01*
X23003Y-118979D01*
X23275Y-118561D01*
X23557Y-118150D01*
X23849Y-117745D01*
X24151Y-117348D01*
X24462Y-116959D01*
X24784Y-116578D01*
X25114Y-116204D01*
X25453Y-115839D01*
X25802Y-115482D01*
X26159Y-115133D01*
X26524Y-114794D01*
X26898Y-114464D01*
X27279Y-114142D01*
X27668Y-113831D01*
X28065Y-113529D01*
X28470Y-113237D01*
X28881Y-112955D01*
X29299Y-112683D01*
X29723Y-112421D01*
X30154Y-112170D01*
X30591Y-111929D01*
X31034Y-111700D01*
X31482Y-111481D01*
X31935Y-111273D01*
X32394Y-111077D01*
X32857Y-110892D01*
X33324Y-110718D01*
X33796Y-110556D01*
X34271Y-110405D01*
X34750Y-110266D01*
X35233Y-110139D01*
X35718Y-110024D01*
X36206Y-109920D01*
X36696Y-109829D01*
X37188Y-109750D01*
X37683Y-109683D01*
X38178Y-109628D01*
X38675Y-109585D01*
X39173Y-109554D01*
X39671Y-109536D01*
X40170Y-109530D01*
X40669Y-109536D01*
X41167Y-109554D01*
X41665Y-109585D01*
X42162Y-109628D01*
X42657Y-109683D01*
X43152Y-109750D01*
X43644Y-109829D01*
X44134Y-109920D01*
X44622Y-110024D01*
X45107Y-110139D01*
X45590Y-110266D01*
X46069Y-110405D01*
X46544Y-110556D01*
X47016Y-110718D01*
X47483Y-110892D01*
X47946Y-111077D01*
X48405Y-111273D01*
X48858Y-111481D01*
X49306Y-111700D01*
X49749Y-111929D01*
X50186Y-112170D01*
X50617Y-112421D01*
X51041Y-112683D01*
X51459Y-112955D01*
X51870Y-113237D01*
X52275Y-113529D01*
X52672Y-113831D01*
X53061Y-114142D01*
X53442Y-114464D01*
X53816Y-114794D01*
X54181Y-115133D01*
X54538Y-115482D01*
X54887Y-115839D01*
X55226Y-116204D01*
X55556Y-116578D01*
X55878Y-116959D01*
X56189Y-117348D01*
X56491Y-117745D01*
X56783Y-118150D01*
X57065Y-118561D01*
X57337Y-118979D01*
X57599Y-119403D01*
X57850Y-119834D01*
X58091Y-120271D01*
X58320Y-120714D01*
X58539Y-121162D01*
X58747Y-121615D01*
X58943Y-122074D01*
X59128Y-122537D01*
X59302Y-123004D01*
X59464Y-123476D01*
X59615Y-123951D01*
X59754Y-124430D01*
X59881Y-124913D01*
X59996Y-125398D01*
X60100Y-125886D01*
X60191Y-126376D01*
X60270Y-126868D01*
X60337Y-127363D01*
X60392Y-127858D01*
X60435Y-128355D01*
X60466Y-128853D01*
X60484Y-129351D01*
X60490Y-129850D01*
X60484Y-130349D01*
X60466Y-130847D01*
X60435Y-131345D01*
X60392Y-131842D01*
X60337Y-132337D01*
X60270Y-132832D01*
X60191Y-133324D01*
X60100Y-133814D01*
X59996Y-134302D01*
X59881Y-134787D01*
X59754Y-135270D01*
X59615Y-135749D01*
X59464Y-136224D01*
X59302Y-136696D01*
X59128Y-137163D01*
X58943Y-137626D01*
X58747Y-138085D01*
X58539Y-138538D01*
X58320Y-138986D01*
X58091Y-139429D01*
X57850Y-139866D01*
X57599Y-140297D01*
X57337Y-140721D01*
X57065Y-141139D01*
X56783Y-141550D01*
X56491Y-141955D01*
X56189Y-142352D01*
X55878Y-142741D01*
X55556Y-143122D01*
X55226Y-143496D01*
X54887Y-143861D01*
X54538Y-144218D01*
X54181Y-144567D01*
X53816Y-144906D01*
X53442Y-145236D01*
X53061Y-145558D01*
X52672Y-145869D01*
X52275Y-146171D01*
X51870Y-146463D01*
X51459Y-146745D01*
X51041Y-147017D01*
X50617Y-147279D01*
X50186Y-147530D01*
X49749Y-147771D01*
X49306Y-148000D01*
X48858Y-148219D01*
X48405Y-148427D01*
X47946Y-148623D01*
X47483Y-148808D01*
X47016Y-148982D01*
X46544Y-149144D01*
X46069Y-149295D01*
X45590Y-149434D01*
X45107Y-149561D01*
X44622Y-149676D01*
X44134Y-149780D01*
X43644Y-149871D01*
X43152Y-149950D01*
X42657Y-150017D01*
X42162Y-150072D01*
X41665Y-150115D01*
X41167Y-150146D01*
X40669Y-150164D01*
X40170Y-150170D01*
X39671Y-150164D01*
X39173Y-150146D01*
X38675Y-150115D01*
X38178Y-150072D01*
X37683Y-150017D01*
X37188Y-149950D01*
X36696Y-149871D01*
X36206Y-149780D01*
X35718Y-149676D01*
X35233Y-149561D01*
X34750Y-149434D01*
X34271Y-149295D01*
X33796Y-149144D01*
X33324Y-148982D01*
X32857Y-148808D01*
X32394Y-148623D01*
X31935Y-148427D01*
X31482Y-148219D01*
X31034Y-148000D01*
X30591Y-147771D01*
X30154Y-147530D01*
X29723Y-147279D01*
X29299Y-147017D01*
X28881Y-146745D01*
X28470Y-146463D01*
X28065Y-146171D01*
X27668Y-145869D01*
X27279Y-145558D01*
X26898Y-145236D01*
X26524Y-144906D01*
X26159Y-144567D01*
X25802Y-144218D01*
X25453Y-143861D01*
X25114Y-143496D01*
X24784Y-143122D01*
X24462Y-142741D01*
X24151Y-142352D01*
X23849Y-141955D01*
X23557Y-141550D01*
X23275Y-141139D01*
X23003Y-140721D01*
X22741Y-140297D01*
X22490Y-139866D01*
X22249Y-139429D01*
X22020Y-138986D01*
X21801Y-138538D01*
X21593Y-138085D01*
X21397Y-137626D01*
X21212Y-137163D01*
X21038Y-136696D01*
X20876Y-136224D01*
X20725Y-135749D01*
X20586Y-135270D01*
X20459Y-134787D01*
X20344Y-134302D01*
X20240Y-133814D01*
X20149Y-133324D01*
X20070Y-132832D01*
X20003Y-132337D01*
X19948Y-131842D01*
X19905Y-131345D01*
X19874Y-130847D01*
X19856Y-130349D01*
X19850Y-129850D01*
D14*
X805180Y265430D03*
X881380Y265430D03*
D20*
X562610Y243840D03*
X511810Y243840D03*
X681990Y243840D03*
X631190Y243840D03*
D14*
X805180Y200660D03*
X881380Y200660D03*
D21*
X723900Y114300D03*
X698500Y114300D03*
X673100Y114300D03*
D22*
X821690Y88900D03*
X575310Y88900D03*
D11*
X749300Y215900D03*
X749300Y241300D03*
X749300Y266700D03*
X39500Y-47543D03*
X64900Y-47543D03*
X90300Y-47543D03*
X26500Y38080D03*
X51900Y38080D03*
X77300Y38080D03*
D23*
X611220Y-69090D03*
X297560Y-67990D03*
X22220Y588450D03*
X144140Y579870D03*
X182400Y-12750D03*
X37620Y164250D03*
X234440Y362160D03*
X266060Y543650D03*
X923080Y264580D03*
X455130Y-66760D03*
X245740Y-62320D03*
X476940Y537660D03*
X475610Y434240D03*
X274440Y-3440D03*
X374440Y-4240D03*
X139060Y-16470D03*
X484440Y334160D03*
D19*
X923965Y-158680D03*
X974765Y-158680D03*
X819456Y-158434D03*
X870256Y-158434D03*
X714852Y-158625D03*
X765652Y-158625D03*
X507195Y-158646D03*
X557995Y-158646D03*
X610664Y-159015D03*
X661464Y-159015D03*
X402862Y-158642D03*
X453662Y-158642D03*
X298533Y-158716D03*
X349333Y-158716D03*
X194011Y-158672D03*
X244811Y-158672D03*
D24*
X290000Y185000D02*
X292500Y187500D01*
X290000Y185000D02*
X280000Y175000D01*
X292500Y187500D02*
X337500Y187500D01*
X340000Y185000D01*
X280000Y175000D02*
X279400Y173990D01*
X340000Y185000D02*
X341630Y182880D01*
X55000Y187500D02*
X40000Y202500D01*
X55000Y187500D02*
X155000Y187500D01*
X160000Y192500D01*
X177500Y192500D01*
X190000Y180000D01*
X40000Y202500D02*
X38100Y203200D01*
X190000Y180000D02*
X190500Y177800D01*
X227500Y187500D02*
X287500Y187500D01*
X227500Y187500D02*
X222500Y192500D01*
X182500Y192500D01*
X287500Y187500D02*
X290000Y185000D01*
X182500Y192500D02*
X177500Y192500D01*
X295000Y445000D02*
X315000Y465000D01*
X370000Y465000D01*
X295000Y445000D02*
X293370Y444500D01*
X370000Y465000D02*
X372320Y466310D01*
X215000Y440000D02*
X200000Y455000D01*
X215000Y440000D02*
X292500Y440000D01*
X200000Y455000D02*
X198120Y455930D01*
X292500Y440000D02*
X293370Y444500D01*
X137500Y475000D02*
X125000Y487500D01*
X137500Y475000D02*
X180000Y475000D01*
X195000Y460000D01*
X125000Y487500D02*
X124460Y487680D01*
X195000Y460000D02*
X198120Y455930D01*
X750000Y-142500D02*
X765000Y-157500D01*
X750000Y-142500D02*
X470000Y-142500D01*
X455000Y-157500D01*
X765000Y-157500D02*
X765652Y-158625D01*
X455000Y-157500D02*
X453662Y-158642D01*
X892500Y485000D02*
X965000Y485000D01*
X966470Y483870D01*
X892500Y485000D02*
X890270Y483870D01*
X842500Y240000D02*
X880000Y202500D01*
X842500Y240000D02*
X750000Y240000D01*
X880000Y202500D02*
X881380Y200660D01*
X750000Y240000D02*
X749300Y241300D01*
X652500Y265000D02*
X632500Y245000D01*
X652500Y265000D02*
X747500Y265000D01*
X632500Y245000D02*
X631190Y243840D01*
X747500Y265000D02*
X749300Y266700D01*
X355000Y137500D02*
X342500Y150000D01*
X355000Y137500D02*
X650000Y137500D01*
X672500Y115000D01*
X342500Y150000D02*
X341630Y152400D01*
X672500Y115000D02*
X673100Y114300D01*
D25*
X232500Y645000D02*
X217500Y660000D01*
X232500Y645000D02*
X335000Y645000D01*
X217500Y660000D02*
X215900Y660400D01*
X335000Y645000D02*
X336550Y643890D01*
X440000Y737500D02*
X450000Y747500D01*
X440000Y737500D02*
X335000Y737500D01*
X327500Y745000D01*
X450000Y747500D02*
X452120Y749300D01*
X327500Y745000D02*
X325120Y746760D01*
X317500Y687500D02*
X292500Y662500D01*
X317500Y687500D02*
X325000Y687500D01*
X292500Y662500D02*
X292100Y660400D01*
X325000Y687500D02*
X325120Y688340D01*
X385000Y660000D02*
X400000Y645000D01*
X385000Y660000D02*
X292500Y660000D01*
X400000Y645000D02*
X401320Y642620D01*
X292500Y660000D02*
X292100Y660400D01*
X215000Y685000D02*
X210000Y680000D01*
X177500Y680000D01*
X215000Y685000D02*
X215900Y685800D01*
X177500Y680000D02*
X175260Y678180D01*
X217500Y635000D02*
X232500Y620000D01*
X412500Y620000D02*
X485000Y620000D01*
X412500Y620000D02*
X232500Y620000D01*
X485000Y620000D02*
X492500Y627500D01*
X217500Y635000D02*
X215900Y635000D01*
X492500Y627500D02*
X492760Y629920D01*
X405000Y655000D02*
X405000Y715000D01*
X405000Y655000D02*
X412500Y647500D01*
X412500Y620000D01*
X405000Y715000D02*
X402590Y716280D01*
X290000Y265000D02*
X267500Y242500D01*
X235000Y242500D01*
X290000Y265000D02*
X292100Y266700D01*
X235000Y242500D02*
X233680Y240030D01*
X87500Y112500D02*
X65000Y112500D01*
X63500Y112400D01*
X87500Y112500D02*
X88900Y112400D01*
X280000Y125000D02*
X287500Y117500D01*
X337500Y117500D01*
X340000Y120000D01*
X280000Y125000D02*
X279400Y127000D01*
X340000Y120000D02*
X341630Y121920D01*
X95000Y117500D02*
X90000Y112500D01*
X95000Y117500D02*
X287500Y117500D01*
X90000Y112500D02*
X88900Y112400D01*
X417500Y117500D02*
X442500Y92500D01*
X417500Y117500D02*
X337500Y117500D01*
X442500Y92500D02*
X443230Y91440D01*
X341630Y121920D02*
X337500Y117500D01*
X357500Y380000D02*
X382500Y405000D01*
X357500Y380000D02*
X272500Y380000D01*
X237500Y345000D01*
X202500Y345000D01*
X195000Y337500D01*
X382500Y405000D02*
X383540Y406400D01*
X195000Y337500D02*
X193040Y335280D01*
X45000Y375000D02*
X25000Y395000D01*
X45000Y375000D02*
X220000Y375000D01*
X232500Y362500D01*
X25000Y395000D02*
X22860Y396240D01*
X232500Y362500D02*
X234440Y362160D01*
X192500Y360000D02*
X170000Y337500D01*
X192500Y360000D02*
X232500Y360000D01*
X170000Y337500D02*
X167640Y335280D01*
X232500Y360000D02*
X234440Y362160D01*
X370000Y517500D02*
X330000Y557500D01*
X247500Y557500D01*
X245000Y555000D01*
X370000Y517500D02*
X372320Y517110D01*
D26*
X245000Y555000D03*
D25*
X42500Y355000D02*
X25000Y337500D01*
X42500Y355000D02*
X177500Y355000D01*
X25000Y337500D02*
X22860Y335280D01*
X352500Y385000D02*
X370000Y402500D01*
X352500Y385000D02*
X210000Y385000D01*
X207500Y382500D01*
X190000Y382500D01*
X180000Y392500D01*
X179070Y394970D01*
D26*
X177500Y355000D03*
X370000Y402500D03*
D25*
X390000Y335000D02*
X482500Y335000D01*
X390000Y335000D02*
X389100Y335280D01*
X482500Y335000D02*
X484440Y334160D01*
X130000Y555000D02*
X125000Y550000D01*
X130000Y555000D02*
X130000Y595000D01*
X492500Y595000D01*
X125000Y550000D02*
X124460Y548640D01*
D26*
X492500Y595000D03*
D25*
X40000Y325000D02*
X37500Y327500D01*
X40000Y325000D02*
X270000Y325000D01*
X292500Y347500D01*
X294640Y347980D01*
X302500Y357500D02*
X500000Y357500D01*
X302500Y357500D02*
X295000Y350000D01*
X294640Y347980D01*
D26*
X37500Y327500D03*
X500000Y357500D03*
D25*
X370000Y335000D02*
X355000Y320000D01*
X25000Y320000D01*
X12500Y332500D01*
X12500Y417500D01*
X35000Y417500D01*
X42500Y425000D01*
X122500Y425000D01*
X370000Y335000D02*
X371320Y335280D01*
X124460Y426720D02*
X122500Y425000D01*
X325000Y532500D02*
X362500Y495000D01*
X362500Y482500D01*
X400000Y482500D01*
X450000Y532500D01*
X470000Y532500D01*
X475000Y537500D01*
X325000Y532500D02*
X323690Y534670D01*
X475000Y537500D02*
X476940Y537660D01*
X37500Y532500D02*
X25000Y520000D01*
X37500Y532500D02*
X210000Y532500D01*
X240000Y562500D01*
X415000Y562500D01*
X445000Y532500D01*
X450000Y532500D01*
X25000Y520000D02*
X22860Y518160D01*
X150000Y440000D02*
X167500Y422500D01*
X305000Y422500D01*
X317500Y435000D01*
X317500Y442500D01*
X318770Y444500D01*
X330000Y372500D02*
X712500Y372500D01*
D26*
X150000Y440000D03*
X712500Y372500D03*
X330000Y372500D03*
D25*
X292500Y535000D02*
X285000Y542500D01*
X267500Y542500D01*
X292500Y535000D02*
X293210Y534670D01*
X267500Y542500D02*
X266060Y543650D01*
X332500Y530000D02*
X370000Y492500D01*
X332500Y530000D02*
X332500Y545000D01*
X287500Y545000D01*
X285000Y542500D01*
X370000Y492500D02*
X372320Y491710D01*
X265000Y545000D02*
X235000Y545000D01*
X234950Y543560D01*
X265000Y545000D02*
X266060Y543650D01*
X297500Y502500D02*
X307500Y492500D01*
X297500Y502500D02*
X245000Y502500D01*
X237500Y495000D01*
X167500Y495000D01*
X157500Y505000D01*
X307500Y492500D02*
X308330Y491710D01*
X157500Y505000D02*
X157480Y505460D01*
X325000Y490000D02*
X337500Y477500D01*
X422500Y477500D01*
X465000Y435000D01*
X475000Y435000D01*
X325000Y490000D02*
X323570Y491710D01*
X475000Y435000D02*
X475610Y434240D01*
X162500Y417500D02*
X125000Y455000D01*
X162500Y417500D02*
X305000Y417500D01*
X322500Y435000D01*
X465000Y435000D01*
X125000Y455000D02*
X124460Y457200D01*
X465000Y435000D02*
X475610Y434240D01*
X35000Y467500D02*
X25000Y457500D01*
X35000Y467500D02*
X147500Y467500D01*
X185000Y430000D01*
X302500Y430000D01*
X25000Y457500D02*
X22860Y457200D01*
X322500Y365000D02*
X617500Y365000D01*
D26*
X302500Y430000D03*
X617500Y365000D03*
X322500Y365000D03*
D25*
X40000Y110000D02*
X85000Y65000D01*
X187500Y65000D01*
X207500Y45000D01*
X40000Y110000D02*
X38100Y112400D01*
X207500Y45000D02*
X208280Y43180D01*
X55000Y47500D02*
X52500Y50000D01*
X55000Y47500D02*
X97500Y47500D01*
X105000Y40000D01*
X180000Y40000D01*
X182500Y42500D01*
X182880Y43180D01*
X192500Y27500D02*
X452500Y27500D01*
X192500Y27500D02*
X180000Y40000D01*
X182880Y43180D01*
D26*
X52500Y50000D03*
X452500Y27500D03*
D25*
X442500Y62500D02*
X435000Y70000D01*
X197500Y70000D01*
X162500Y105000D01*
X442500Y62500D02*
X443230Y60960D01*
X162500Y105000D02*
X160340Y106680D01*
X335000Y207500D02*
X340000Y212500D01*
X335000Y207500D02*
X140000Y207500D01*
X132500Y200000D01*
X340000Y212500D02*
X341630Y213360D01*
D26*
X132500Y200000D03*
D25*
X430000Y200000D02*
X442500Y212500D01*
X430000Y200000D02*
X262500Y200000D01*
X442500Y212500D02*
X443230Y213360D01*
D26*
X262500Y200000D03*
D25*
X122500Y55000D02*
X132500Y45000D01*
X170000Y45000D01*
X177500Y52500D01*
X187500Y52500D01*
X197500Y42500D01*
X197500Y32500D01*
X427500Y32500D01*
X452500Y57500D01*
X452500Y120000D01*
X445000Y120000D01*
X122500Y55000D02*
X121920Y55250D01*
X443230Y121920D02*
X445000Y120000D01*
X435000Y265000D02*
X307500Y265000D01*
X435000Y265000D02*
X442500Y272500D01*
X307500Y265000D02*
X307340Y266700D01*
X442500Y272500D02*
X443230Y274320D01*
X287500Y10000D02*
X275000Y-2500D01*
X287500Y10000D02*
X427500Y10000D01*
X275000Y-2500D02*
X274440Y-3440D01*
D26*
X427500Y10000D03*
D25*
X275000Y267500D02*
X265000Y277500D01*
X235000Y277500D01*
X275000Y267500D02*
X276860Y266700D01*
X235000Y277500D02*
X233680Y278130D01*
X232500Y277500D02*
X220000Y265000D01*
X75000Y265000D01*
X40000Y230000D01*
X232500Y277500D02*
X233680Y278130D01*
X40000Y230000D02*
X38100Y228600D01*
X277500Y230000D02*
X290000Y217500D01*
X277500Y230000D02*
X167500Y230000D01*
X157500Y240000D01*
X290000Y217500D02*
X292100Y215900D01*
X157500Y240000D02*
X157480Y240030D01*
X307500Y217500D02*
X332500Y242500D01*
X340000Y242500D01*
X307500Y217500D02*
X307340Y215900D01*
X340000Y242500D02*
X341630Y243840D01*
X445000Y242500D02*
X452500Y235000D01*
X452500Y192500D01*
X432500Y192500D01*
X402500Y162500D01*
X337500Y162500D01*
X302500Y127500D01*
X443230Y243840D02*
X445000Y242500D01*
X304800Y127000D02*
X302500Y127500D01*
X722500Y660000D02*
X710000Y672500D01*
X597500Y672500D01*
X587500Y682500D01*
X722500Y660000D02*
X723900Y659130D01*
X587500Y682500D02*
X585470Y683260D01*
X750000Y772500D02*
X772500Y772500D01*
X774700Y770890D01*
X750000Y772500D02*
X749300Y770890D01*
X627500Y705000D02*
X620000Y712500D01*
X587500Y712500D01*
X585470Y713740D01*
X710000Y702500D02*
X722500Y715000D01*
X710000Y702500D02*
X630000Y702500D01*
X627500Y705000D01*
X722500Y715000D02*
X723900Y715010D01*
D26*
X627500Y705000D03*
D25*
X687500Y772500D02*
X722500Y772500D01*
X723900Y770890D01*
X687500Y772500D02*
X687070Y774700D01*
X732500Y780000D02*
X830000Y780000D01*
X732500Y780000D02*
X725000Y772500D01*
X830000Y780000D02*
X830580Y780790D01*
X725000Y772500D02*
X723900Y770890D01*
X932500Y732500D02*
X967500Y697500D01*
X932500Y732500D02*
X912500Y732500D01*
X865000Y780000D01*
X832500Y780000D01*
X967500Y697500D02*
X968890Y696670D01*
X832500Y780000D02*
X830580Y780790D01*
X800000Y457500D02*
X835000Y422500D01*
X892500Y422500D01*
X900000Y430000D01*
X900000Y457500D01*
X892500Y457500D01*
X800000Y457500D02*
X797560Y458470D01*
X890270Y458470D02*
X892500Y457500D01*
X890000Y435000D02*
X847500Y477500D01*
X557500Y477500D01*
X457500Y577500D01*
X145000Y577500D01*
X890000Y435000D02*
X890270Y433070D01*
X145000Y577500D02*
X144140Y579870D01*
D24*
X882500Y265000D02*
X922500Y265000D01*
X882500Y265000D02*
X881380Y265430D01*
X922500Y265000D02*
X923080Y264580D01*
X870000Y280000D02*
X560000Y280000D01*
X870000Y280000D02*
X880000Y270000D01*
X881380Y265430D01*
D26*
X560000Y280000D03*
D25*
X340000Y62500D02*
X337500Y65000D01*
X192500Y65000D01*
X185000Y72500D01*
X172500Y72500D01*
X340000Y62500D02*
X341630Y60960D01*
D26*
X172500Y72500D03*
D25*
X800000Y382500D02*
X847500Y382500D01*
X800000Y382500D02*
X797560Y382270D01*
X847500Y382500D02*
X848360Y383540D01*
X722500Y490000D02*
X715000Y482500D01*
X682500Y482500D01*
X672500Y492500D01*
X722500Y490000D02*
X723900Y491490D01*
X672500Y492500D02*
X670560Y492760D01*
X635000Y512500D02*
X587500Y560000D01*
X635000Y512500D02*
X635000Y482500D01*
X682500Y482500D01*
X587500Y560000D02*
X585470Y561340D01*
X750000Y605000D02*
X772500Y605000D01*
X750000Y605000D02*
X749300Y603250D01*
X772500Y605000D02*
X774700Y603250D01*
X835000Y657500D02*
X877500Y700000D01*
X835000Y657500D02*
X825000Y657500D01*
X772500Y605000D01*
X877500Y700000D02*
X879000Y701040D01*
X774700Y603250D02*
X772500Y605000D01*
X595000Y612500D02*
X587500Y620000D01*
X595000Y612500D02*
X740000Y612500D01*
X747500Y605000D01*
X587500Y620000D02*
X585470Y622300D01*
X747500Y605000D02*
X749300Y603250D01*
X722500Y602500D02*
X712500Y592500D01*
X687500Y592500D01*
X722500Y602500D02*
X723900Y603250D01*
X687500Y592500D02*
X687070Y591820D01*
X817500Y502500D02*
X830000Y490000D01*
X817500Y502500D02*
X655000Y502500D01*
X647500Y495000D01*
X830000Y490000D02*
X830580Y489210D01*
X647500Y495000D02*
X645160Y492760D01*
X965000Y595000D02*
X967500Y592500D01*
X965000Y595000D02*
X780000Y595000D01*
X777500Y592500D01*
X712500Y592500D01*
X967500Y592500D02*
X969010Y590550D01*
X772500Y547500D02*
X750000Y547500D01*
X749300Y547370D01*
X772500Y547500D02*
X774700Y547370D01*
X827500Y420000D02*
X890000Y357500D01*
X827500Y420000D02*
X400000Y420000D01*
X397500Y422500D01*
X315000Y422500D01*
X305000Y412500D01*
X40000Y412500D01*
X890000Y357500D02*
X890270Y356870D01*
X175000Y702500D02*
X112500Y640000D01*
X42500Y640000D01*
X22500Y620000D01*
X22500Y590000D01*
X175000Y702500D02*
X175260Y703580D01*
X22500Y590000D02*
X22220Y588450D01*
D26*
X40000Y412500D03*
D25*
X725000Y115000D02*
X805000Y195000D01*
X805000Y200000D01*
X725000Y115000D02*
X723900Y114300D01*
X805000Y200000D02*
X805180Y200660D01*
X552500Y202500D02*
X512500Y242500D01*
X552500Y202500D02*
X805000Y202500D01*
X512500Y242500D02*
X511810Y243840D01*
X805000Y202500D02*
X805180Y200660D01*
X75000Y37500D02*
X52500Y37500D01*
X51900Y38080D01*
X75000Y37500D02*
X77300Y38080D01*
X77500Y202500D02*
X112500Y202500D01*
X114300Y203200D01*
D26*
X77500Y202500D03*
D25*
X90000Y-47500D02*
X65000Y-47500D01*
X64900Y-47543D01*
X90000Y-47500D02*
X90300Y-47543D01*
X92500Y-47500D02*
X420000Y-47500D01*
X92500Y-47500D02*
X90300Y-47543D01*
D26*
X420000Y-47500D03*
D25*
X402500Y172500D02*
X305000Y172500D01*
X304800Y173990D01*
D26*
X402500Y172500D03*
D25*
X950000Y-135000D02*
X972500Y-157500D01*
X950000Y-135000D02*
X197500Y-135000D01*
X972500Y-157500D02*
X974765Y-158680D01*
D26*
X197500Y-135000D03*
D25*
X305000Y760000D02*
X765000Y760000D01*
X305000Y760000D02*
X297500Y752500D01*
X177500Y752500D01*
X175260Y754380D01*
D26*
X765000Y760000D03*
D25*
X252500Y525000D02*
X242500Y515000D01*
X235000Y507500D01*
X252500Y525000D02*
X300000Y525000D01*
X307500Y532500D01*
X235000Y507500D02*
X233680Y505460D01*
X307500Y532500D02*
X308450Y534670D01*
X42500Y507500D02*
X25000Y490000D01*
X42500Y507500D02*
X145000Y507500D01*
X152500Y515000D01*
X242500Y515000D01*
X25000Y490000D02*
X22860Y487680D01*
X410000Y407500D02*
X432500Y407500D01*
X410000Y407500D02*
X408940Y406400D01*
X432500Y407500D02*
X434340Y406400D01*
X315000Y417500D02*
X295000Y397500D01*
X315000Y417500D02*
X397500Y417500D01*
X407500Y407500D01*
X295000Y397500D02*
X294640Y396240D01*
X407500Y407500D02*
X408940Y406400D01*
X435000Y405000D02*
X610000Y405000D01*
X435000Y405000D02*
X434340Y406400D01*
D26*
X610000Y405000D03*
M02*
