M48
;GenerationSoftware,Autodesk,EAGLE,9.1.2*%
;CreationDate,2019-01-18T12:57:35Z*%
FMAT,2
ICI,OFF
METRIC,TZ,000.000
T12C0.350
T11C0.700
T10C0.800
T9C0.813
T8C0.900
T7C1.000
T6C1.016
T5C1.194
T4C1.200
T3C1.300
T2C1.500
T1C4.064
%
G90
M71
T1
X94992Y-3101
X94992Y77051
X4080Y77200
X4017Y-12985
T2
X92308Y26458
X29756Y-6799
X61122Y-6909
X48444Y33416
X13906Y-1647
X37444Y-424
X27444Y-344
X47561Y43424
X47694Y53766
X24574Y-6232
X45513Y-6676
X26606Y54365
X23444Y36216
X3762Y16425
X18240Y-1275
X14414Y57987
X2222Y58845
T3
X57531Y8890
X82169Y8890
T4
X63119Y24384
X68199Y24384
X51181Y24384
X56261Y24384
T5
X40286Y-15864
X66146Y-15902
X61066Y-15902
X55799Y-15865
X50719Y-15865
X76565Y-15862
X71485Y-15862
X87026Y-15843
X81946Y-15843
X92396Y-15868
X45366Y-15864
X29853Y-15872
X34933Y-15872
X97476Y-15868
X96901Y59055
X96901Y53975
X24481Y-15867
X96901Y11479
X96901Y6399
X96889Y69667
X96889Y64587
X19401Y-15867
T6
X67310Y11430
X69850Y11430
X72390Y11430
T7
X4826Y57658
X7366Y57658
X9906Y57658
X4826Y62738
X7366Y62738
X9906Y62738
X17526Y65278
X83058Y78079
X17526Y67818
X17526Y70358
X17526Y72898
X17526Y75438
X17526Y77978
X83058Y64644
X83058Y62356
X83058Y48921
T8
X51816Y69088
X49276Y69088
X46736Y69088
X21590Y17780
X16510Y17780
X22352Y45593
X51816Y62992
X49276Y62992
X46736Y62992
X19812Y45593
X17272Y45593
X19050Y17780
T9
X29337Y44450
X31877Y44450
X29464Y34798
X32004Y34798
X29464Y39624
X32004Y39624
X27940Y8001
X30480Y8001
X27940Y17399
X30480Y17399
X21590Y76200
X21590Y73660
X21590Y60960
X29210Y60960
X21590Y71120
X21590Y68580
X21590Y63500
X21590Y66040
X29210Y63500
X29210Y68580
X29210Y71120
X29210Y73660
X29210Y76200
X37232Y54251
X37232Y51711
X44852Y51711
X44852Y54251
X37232Y49171
X37232Y46631
X44852Y49171
X44852Y46631
X3810Y27940
X3810Y25400
X11430Y25400
X11430Y27940
X3810Y22860
X3810Y20320
X11430Y22860
X11430Y20320
X16764Y33528
X21844Y33528
X19304Y33528
X18288Y4318
X23368Y4318
X20828Y4318
X57531Y49276
X62611Y49276
X60071Y49276
X32512Y74676
X42672Y74676
X2286Y45720
X12446Y45720
X34163Y18288
X44323Y18288
X34163Y15240
X44323Y15240
X34163Y6096
X44323Y6096
X34163Y21336
X44323Y21336
X34163Y12192
X44323Y12192
X34163Y27432
X44323Y27432
X34163Y9144
X44323Y9144
X34163Y24384
X44323Y24384
X58547Y74422
X68707Y74422
X32512Y68834
X42672Y68834
X58547Y77470
X68707Y77470
X58547Y68326
X68707Y68326
X58547Y62230
X68707Y71374
X2286Y48768
X12446Y48768
X2286Y39624
X12446Y39624
X2286Y33528
X12446Y33528
X2286Y51816
X12446Y51816
X2286Y54864
X12446Y54864
X2286Y42672
X12446Y42672
X2286Y36576
X12446Y36576
X52832Y74930
X45212Y74930
X40259Y71628
X32639Y71628
X79756Y45847
X79756Y38227
X23495Y54356
X15875Y54356
X23368Y50546
X15748Y50546
X23368Y27813
X15748Y27813
X23368Y24003
X15748Y24003
X64516Y49276
X69596Y49276
X67056Y49276
X58547Y56134
X68707Y56134
X68707Y62230
X58547Y65278
X68707Y65278
X58547Y59182
X68707Y59182
X84836Y45974
X84836Y38354
X89027Y48387
X89027Y45847
X89027Y33147
X96647Y33147
X89027Y43307
X89027Y40767
X89027Y35687
X89027Y38227
X96647Y35687
X96647Y38227
X96647Y40767
X96647Y43307
X96647Y45847
X96647Y48387
X80518Y26543
X88138Y26543
X80518Y20066
X88138Y20066
X29210Y66040
X58547Y71374
X27940Y12700
X30480Y12700
T10
X74930Y60325
X77470Y60325
X87900Y70104
X87900Y72644
X87900Y75184
X72390Y54737
X74930Y54737
X77470Y54737
X38910Y33528
X37132Y33528
X35354Y33528
X6350Y11240
X77470Y65913
X36195Y64389
X74930Y65913
X72390Y65913
X16034Y10668
X18574Y10668
X12192Y5525
X17907Y39497
X20447Y39497
X8890Y11240
X3950Y-4754
X3810Y11240
X40132Y64262
X6490Y-4754
X9030Y-4754
X2650Y3808
X7730Y3808
X13970Y5525
X10414Y5525
X40894Y40640
X38354Y40640
X74930Y26670
X77470Y49149
X88900Y63500
X42672Y64262
X33655Y64389
X72390Y60325
X77470Y71501
X74930Y71501
X72390Y71501
X74930Y77089
X72390Y49149
X74930Y49149
X72390Y77089
X5190Y3808
X88900Y60960
X88900Y58420
X43434Y40640
X74930Y21590
X74930Y24130
X77470Y77089
T11
X30734Y21590
X27686Y21590
X30734Y26670
X29210Y26670
X27686Y26670
X32357Y49171
X30833Y49171
X29309Y49171
X32369Y53467
X29210Y21590
X30845Y53467
X29321Y53467
T12
X24500Y55500
X42000Y-4750
X7750Y20250
X4000Y41250
X17250Y7250
X62750Y70500
X42750Y1000
X26250Y20000
X13250Y20000
X45250Y2750
X5250Y5000
X32250Y36500
X61750Y36500
X30250Y43000
X33000Y37250
X56000Y28000
X15000Y44000
X50000Y35750
X3750Y32750
X49250Y59500
X37000Y40250
X17750Y35500
X61000Y40500
X76500Y76000
X19750Y-13500
X40250Y17250
X71250Y37250
M30